<?xml version="1.0" encoding="UTF-8" standalone="no"?>
<svg
   xmlns:dc="http://purl.org/dc/elements/1.1/"
   xmlns:cc="http://creativecommons.org/ns#"
   xmlns:rdf="http://www.w3.org/1999/02/22-rdf-syntax-ns#"
   xmlns:svg="http://www.w3.org/2000/svg"
   xmlns="http://www.w3.org/2000/svg"
   xmlns:sodipodi="http://sodipodi.sourceforge.net/DTD/sodipodi-0.dtd"
   xmlns:inkscape="http://www.inkscape.org/namespaces/inkscape"
   sodipodi:docname="cumuli.svg"
   inkscape:version="1.0.1 (3bc2e813f5, 2020-09-07)"
   id="svg55291"
   version="1.1"
   viewBox="0 0 25.400001 128.5007"
   height="128.5007mm"
   width="25.4mm">
  <defs
     id="defs55285">
    <clipPath
       id="clip11">
      <rect
         id="rect9531"
         height="16"
         width="17"
         y="0"
         x="0" />
    </clipPath>
    <clipPath
       id="clip12">
      <path
         id="path9528"
         d="M 0.671875,0.476562 H 16.917969 V 15.574219 H 0.671875 Z m 0,0"
         inkscape:connector-curvature="0" />
    </clipPath>
    <clipPath
       id="clip9">
      <rect
         id="rect9515"
         height="25"
         width="24"
         y="0"
         x="0" />
    </clipPath>
    <clipPath
       id="clip10">
      <path
         id="path9512"
         d="M 0.457031,0.238281 H 23.132812 V 24.980469 H 0.457031 Z m 0,0"
         inkscape:connector-curvature="0" />
    </clipPath>
    <clipPath
       id="clip7">
      <rect
         id="rect9499"
         height="16"
         width="17"
         y="0"
         x="0" />
    </clipPath>
    <clipPath
       id="clip8">
      <path
         id="path9496"
         d="M 0.671875,0.449219 H 16.917969 V 15.546875 H 0.671875 Z m 0,0"
         inkscape:connector-curvature="0" />
    </clipPath>
    <clipPath
       id="clip5">
      <rect
         id="rect9483"
         height="25"
         width="24"
         y="0"
         x="0" />
    </clipPath>
    <clipPath
       id="clip6">
      <path
         id="path9480"
         d="M 0.457031,0.210938 H 23.132812 V 24.953125 H 0.457031 Z m 0,0"
         inkscape:connector-curvature="0" />
    </clipPath>
    <clipPath
       id="clip1">
      <rect
         id="rect9461"
         height="32"
         width="30"
         y="0"
         x="0" />
    </clipPath>
    <clipPath
       id="clip2">
      <path
         id="path9458"
         d="M 0.441406,0.394531 H 29.140625 V 31.96875 H 0.441406 Z m 0,0"
         inkscape:connector-curvature="0" />
    </clipPath>
  </defs>
  <sodipodi:namedview
     inkscape:document-rotation="0"
     inkscape:window-maximized="0"
     inkscape:window-y="18"
     inkscape:window-x="0"
     inkscape:window-height="761"
     inkscape:window-width="1276"
     inkscape:snap-nodes="false"
     inkscape:snap-bbox-midpoints="true"
     inkscape:snap-bbox="true"
     fit-margin-bottom="0"
     fit-margin-right="0"
     fit-margin-left="0"
     fit-margin-top="0"
     showgrid="false"
     inkscape:current-layer="layer4"
     inkscape:document-units="mm"
     inkscape:cy="242.83597"
     inkscape:cx="48.177065"
     inkscape:zoom="1.1448057"
     inkscape:pageshadow="2"
     inkscape:pageopacity="0.0"
     borderopacity="1.0"
     bordercolor="#666666"
     pagecolor="#ffffff"
     id="base" />
  <metadata
     id="metadata55288">
    <rdf:RDF>
      <cc:Work
         rdf:about="">
        <dc:format>image/svg+xml</dc:format>
        <dc:type
           rdf:resource="http://purl.org/dc/dcmitype/StillImage" />
        <dc:title />
      </cc:Work>
    </rdf:RDF>
  </metadata>
  <g
     style="display:inline"
     transform="translate(-8.01071,-5.675522)"
     id="layer1"
     inkscape:groupmode="layer"
     inkscape:label="graphics"
     sodipodi:insensitive="true">
    <path
       id="path10665"
       d="M 8.1044074,5.6758691 H 33.504407 V 134.17588 H 8.1044074 Z m 0,0"
       style="fill:#1a1a1a;fill-opacity:1;fill-rule:nonzero;stroke:none;stroke-width:0.352778"
       inkscape:connector-curvature="0" />
    <path
       id="path10667"
       d="M 33.41071,5.675523 H 8.0107099 V 134.17622 H 33.41071 Z M 33.098379,133.98879 H 8.3208073 V 5.862936 H 33.098379 Z m 0,0"
       style="fill:#ababab;fill-opacity:1;fill-rule:nonzero;stroke:none;stroke-width:0.352778"
       inkscape:connector-curvature="0" />
    <rect
       style="display:inline;fill:#e4e4e4;fill-opacity:1;stroke:none;stroke-width:0.999999;stroke-miterlimit:4;stroke-dasharray:none"
       id="rect1684"
       width="13"
       height="15"
       x="14.21071"
       y="106.87552"
       rx="2"
       ry="2" />
  </g>
  <g
     style="display:inline"
     inkscape:label="logo"
     id="layer2"
     inkscape:groupmode="layer"
     sodipodi:insensitive="true">
    <g
       style="display:inline"
       id="g2756"
       transform="rotate(180,22.142544,137.90457)">
      <rect
         ry="1.2"
         rx="1.1818184"
         y="150.05914"
         x="25.335091"
         height="5.5"
         width="12.5"
         id="rect3959-3"
         style="display:inline;fill:none;stroke:#ffd500;stroke-width:0.5;stroke-miterlimit:4;stroke-dasharray:none;stroke-opacity:1" />
      <rect
         style="fill:#ffd500;fill-opacity:1;stroke:none;stroke-width:0;stroke-linecap:round;stroke-miterlimit:4;stroke-dasharray:none;stroke-opacity:1"
         id="rect2659"
         width="0.25"
         height="4.5"
         x="31.460091"
         y="150.55914" />
      <circle
         cy="154.16956"
         cx="29.522081"
         id="circle2671"
         style="fill:#ffd500;fill-opacity:1;stroke:none;stroke-width:0;stroke-linecap:round;stroke-miterlimit:4;stroke-dasharray:none;stroke-opacity:1"
         r="0.625" />
      <circle
         r="0.625"
         style="fill:#ffd500;fill-opacity:1;stroke:none;stroke-width:0;stroke-linecap:round;stroke-miterlimit:4;stroke-dasharray:none;stroke-opacity:1"
         id="circle2683"
         cx="27.405416"
         cy="151.52373" />
      <circle
         r="0.625"
         style="fill:#ffd500;fill-opacity:1;stroke:none;stroke-width:0;stroke-linecap:round;stroke-miterlimit:4;stroke-dasharray:none;stroke-opacity:1"
         id="circle2685"
         cx="35.650894"
         cy="154.16956" />
      <circle
         cy="151.52373"
         cx="33.534229"
         id="circle2687"
         style="fill:#ffd500;fill-opacity:1;stroke:none;stroke-width:0;stroke-linecap:round;stroke-miterlimit:4;stroke-dasharray:none;stroke-opacity:1"
         r="0.625" />
    </g>
  </g>
  <g
     style="display:none"
     inkscape:label="text"
     id="layer3"
     inkscape:groupmode="layer"
     sodipodi:insensitive="true">
    <text
       id="text1545"
       y="10.775675"
       x="3.8220158"
       style="font-size:4.93889px;line-height:1.25;font-family:sans-serif;letter-spacing:0px;word-spacing:0px;fill:#f9f9f9;stroke-width:0.264583"
       xml:space="preserve"><tspan
         style="font-style:normal;font-variant:normal;font-weight:normal;font-stretch:normal;font-size:4.93889px;font-family:OCR-A;-inkscape-font-specification:OCR-A;fill:#f9f9f9;stroke-width:0.264583"
         y="10.775675"
         x="3.8220158"
         id="tspan1543"
         sodipodi:role="line">cumuli</tspan></text>
    <text
       xml:space="preserve"
       style="font-style:normal;font-variant:normal;font-weight:normal;font-stretch:normal;font-size:7.05556px;line-height:1.25;font-family:OCR-A;-inkscape-font-specification:OCR-A;letter-spacing:0px;word-spacing:0px;display:inline;fill:#1a1a1a;fill-opacity:1;stroke:none;stroke-width:0.264583"
       x="9.4874554"
       y="113.78577"
       id="text282"><tspan
         sodipodi:role="line"
         id="tspan280"
         x="9.4874554"
         y="113.78577"
         style="font-style:normal;font-variant:normal;font-weight:normal;font-stretch:normal;font-size:3.52777px;font-family:OCR-A;-inkscape-font-specification:OCR-A;fill:#1a1a1a;fill-opacity:1;stroke-width:0.264583">out</tspan></text>
    <text
       id="text1359"
       y="76.858284"
       x="8.851368"
       style="font-style:normal;font-weight:normal;font-size:7.05556px;line-height:1.25;font-family:sans-serif;letter-spacing:0px;word-spacing:0px;display:inline;fill:#e5e5e5;fill-opacity:1;stroke:none;stroke-width:0.264583"
       xml:space="preserve"><tspan
         style="font-style:normal;font-variant:normal;font-weight:normal;font-stretch:normal;font-size:3.175px;font-family:OCR-A;-inkscape-font-specification:OCR-A;fill:#e5e5e5;fill-opacity:1;stroke-width:0.264583"
         y="76.858284"
         x="8.851368"
         id="tspan1357"
         sodipodi:role="line">down</tspan></text>
    <text
       id="text1241"
       y="37.699913"
       x="10.761474"
       style="font-style:normal;font-weight:normal;font-size:7.05556px;line-height:1.25;font-family:sans-serif;letter-spacing:0px;word-spacing:0px;display:inline;fill:#e5e5e5;fill-opacity:1;stroke:none;stroke-width:0.264583"
       xml:space="preserve"><tspan
         style="font-style:normal;font-variant:normal;font-weight:normal;font-stretch:normal;font-size:3.175px;font-family:OCR-A;-inkscape-font-specification:OCR-A;fill:#e5e5e5;fill-opacity:1;stroke-width:0.264583"
         y="37.699913"
         x="10.761474"
         id="tspan1239"
         sodipodi:role="line">up</tspan></text>
  </g>
  <g
     inkscape:groupmode="layer"
     id="layer5"
     inkscape:label="text as path"
     style="display:inline"
     sodipodi:insensitive="true">
    <g
       aria-label="cumuli"
       id="text63"
       style="font-size:4.93889px;line-height:1.25;font-family:sans-serif;letter-spacing:0px;word-spacing:0px;display:inline;fill:#f9f9f9;stroke-width:0.264583">
      <path
         d="M 6.1636477,10.775675 H 5.297895 q -0.2290989,0 -0.3906739,-0.13746 L 4.5141356,10.295773 Q 4.3260333,10.139021 4.3260333,9.8713371 V 9.3432038 Q 4.3163871,9.0851661 4.5382513,8.8946523 L 4.8927517,8.5883832 Q 5.063973,8.4485123 5.2593099,8.4485123 h 0.9091609 q 0.084405,0 0.1422825,0.060289 0.060289,0.057878 0.060289,0.1422825 0,0.086816 -0.060289,0.144694 -0.057878,0.057878 -0.1422825,0.057878 H 5.297895 q -0.081993,0 -0.1567519,0.065112 L 4.8155815,9.1960982 q -0.079582,0.067524 -0.079582,0.1808675 v 0.4943714 q 0,0.079582 0.062701,0.1350479 l 0.356912,0.303857 q 0.067524,0.06029 0.178456,0.06029 h 0.8295792 q 0.081993,0 0.1422825,0.06029 0.060289,0.05788 0.060289,0.142282 0,0.08441 -0.060289,0.144694 -0.057878,0.05788 -0.1422825,0.05788 z"
         style="font-style:normal;font-variant:normal;font-weight:normal;font-stretch:normal;font-size:4.93889px;font-family:OCR-A;-inkscape-font-specification:OCR-A;fill:#f9f9f9;stroke-width:0.264583"
         id="path67" />
      <path
         d="M 8.2665343,10.365708 8.9490079,9.9316262 V 8.651084 q 0,-0.084405 0.057878,-0.1446941 0.060289,-0.062701 0.1446941,-0.062701 0.084405,0 0.1422825,0.062701 0.060289,0.060289 0.060289,0.1446941 v 1.922019 q 0,0.08199 -0.060289,0.142283 -0.060289,0.06029 -0.1422825,0.06029 -0.081993,0 -0.1422825,-0.06029 -0.060289,-0.06029 -0.060289,-0.142283 V 10.41394 L 8.5969191,10.643039 Q 8.3895243,10.775675 8.1773064,10.775675 H 7.9892041 q -0.2483914,0 -0.4268474,-0.173633 -0.178456,-0.173633 -0.1905138,-0.424436 L 7.3139652,8.651084 q -0.00482,-0.079582 0.055466,-0.1398709 0.062701,-0.062701 0.1471056,-0.062701 0.081993,0 0.1398709,0.060289 0.060289,0.060289 0.062701,0.1422825 l 0.053054,1.4975834 q 0.00723,0.217041 0.2483915,0.217041 z"
         style="font-style:normal;font-variant:normal;font-weight:normal;font-stretch:normal;font-size:4.93889px;font-family:OCR-A;-inkscape-font-specification:OCR-A;fill:#f9f9f9;stroke-width:0.264583"
         id="path69" />
      <path
         d="M 10.236785,10.573103 V 8.651084 q 0,-0.084405 0.05788,-0.1422825 0.06029,-0.060289 0.144694,-0.060289 0.156752,0 0.197749,0.1543403 0.16881,-0.1591634 0.376205,-0.1591634 0.243568,0 0.40032,0.2073948 0.192925,-0.2073948 0.424436,-0.2073948 0.188102,0 0.325561,0.1350477 0.139871,0.1326362 0.149517,0.340031 l 0.05788,1.6543349 q 0,0.08199 -0.06029,0.142283 -0.06029,0.06029 -0.142283,0.06029 -0.08441,0 -0.144694,-0.06029 -0.06029,-0.06029 -0.0627,-0.142283 L 11.91283,8.9838805 q -0.0048,-0.1302247 -0.07958,-0.1302247 -0.041,0 -0.0844,0.036174 l -0.241157,0.2025717 v 1.4807025 q 0,0.08199 -0.06029,0.139871 -0.05788,0.05788 -0.142283,0.05788 -0.08199,0 -0.142282,-0.05788 -0.06029,-0.06029 -0.06029,-0.144694 V 8.957353 q 0,-0.1036974 -0.08923,-0.1036974 -0.04341,0 -0.07958,0.03135 l -0.2918,0.2459799 v 1.4421175 q 0,0.08199 -0.05788,0.142283 -0.05788,0.06029 -0.139871,0.06029 -0.0844,0 -0.147106,-0.06029 -0.06029,-0.06029 -0.06029,-0.142283 z"
         style="font-style:normal;font-variant:normal;font-weight:normal;font-stretch:normal;font-size:4.93889px;font-family:OCR-A;-inkscape-font-specification:OCR-A;fill:#f9f9f9;stroke-width:0.264583"
         id="path71" />
      <path
         d="M 14.232752,10.365708 14.915226,9.9316262 V 8.651084 q 0,-0.084405 0.05788,-0.1446941 0.06029,-0.062701 0.144694,-0.062701 0.08441,0 0.142283,0.062701 0.06029,0.060289 0.06029,0.1446941 v 1.922019 q 0,0.08199 -0.06029,0.142283 -0.06029,0.06029 -0.142283,0.06029 -0.08199,0 -0.142282,-0.06029 -0.06029,-0.06029 -0.06029,-0.142283 V 10.41394 l -0.352089,0.229099 q -0.207395,0.132636 -0.419613,0.132636 h -0.188102 q -0.248392,0 -0.426848,-0.173633 -0.178456,-0.173633 -0.190513,-0.424436 l -0.05788,-1.526522 q -0.0048,-0.079582 0.05547,-0.1398709 0.0627,-0.062701 0.147106,-0.062701 0.08199,0 0.139871,0.060289 0.06029,0.060289 0.0627,0.1422825 l 0.05306,1.4975834 q 0.0072,0.217041 0.248391,0.217041 z"
         style="font-style:normal;font-variant:normal;font-weight:normal;font-stretch:normal;font-size:4.93889px;font-family:OCR-A;-inkscape-font-specification:OCR-A;fill:#f9f9f9;stroke-width:0.264583"
         id="path73" />
      <path
         d="m 17.888688,10.775675 h -1.225076 q -0.08441,0 -0.144694,-0.06029 -0.05788,-0.0627 -0.05788,-0.147106 0,-0.08199 0.05788,-0.142282 0.06029,-0.06029 0.144694,-0.06029 h 0.405143 V 7.9758451 h -0.409966 q -0.08441,0 -0.144694,-0.057878 -0.05788,-0.060289 -0.05788,-0.1446941 0,-0.084405 0.05788,-0.1422824 0.06029,-0.060289 0.144694,-0.060289 h 0.617361 q 0.08199,0 0.142282,0.060289 0.06029,0.060289 0.06029,0.1422824 v 2.592435 h 0.409967 q 0.08199,0 0.142282,0.06029 0.06029,0.06029 0.06029,0.142282 0,0.08441 -0.06029,0.147106 -0.05788,0.06029 -0.142282,0.06029 z"
         style="font-style:normal;font-variant:normal;font-weight:normal;font-stretch:normal;font-size:4.93889px;font-family:OCR-A;-inkscape-font-specification:OCR-A;fill:#f9f9f9;stroke-width:0.264583"
         id="path75" />
      <path
         d="m 20.04704,7.3922458 h 0.212218 q 0.08441,0 0.142283,0.060289 0.06029,0.057878 0.06029,0.1422825 v 0.1736328 q 0,0.084405 -0.06029,0.1471056 -0.05788,0.060289 -0.142283,0.060289 h -0.217041 q -0.08682,0 -0.147105,-0.062701 -0.05788,-0.062701 -0.05547,-0.1398709 l 0.0048,-0.1784559 q 0,-0.084405 0.05788,-0.1422825 0.06029,-0.060289 0.144694,-0.060289 z m 0.824756,3.3786062 h -1.234722 q -0.0844,0 -0.144694,-0.05788 -0.05788,-0.06029 -0.05788,-0.144694 0,-0.08199 0.05788,-0.142282 0.06029,-0.06029 0.144694,-0.06029 h 0.41479 V 8.8536556 h -0.409967 q -0.08441,0 -0.144694,-0.060289 -0.05788,-0.060289 -0.05788,-0.1422824 0,-0.084405 0.05788,-0.1446941 0.06029,-0.062701 0.144694,-0.062701 h 0.617361 q 0.08441,0 0.142283,0.062701 0.06029,0.060289 0.06029,0.1446941 v 1.7146238 h 0.405143 q 0.0844,0 0.144694,0.06029 0.0627,0.05788 0.0627,0.142282 0,0.08441 -0.06029,0.144694 -0.06029,0.05788 -0.142283,0.05788 z"
         style="font-style:normal;font-variant:normal;font-weight:normal;font-stretch:normal;font-size:4.93889px;font-family:OCR-A;-inkscape-font-specification:OCR-A;fill:#f9f9f9;stroke-width:0.264583"
         id="path77" />
    </g>
    <g
       aria-label="out"
       id="text282-7"
       style="font-style:normal;font-variant:normal;font-weight:normal;font-stretch:normal;font-size:7.05556px;line-height:1.25;font-family:OCR-A;-inkscape-font-specification:OCR-A;letter-spacing:0px;word-spacing:0px;display:inline;fill:#1a1a1a;fill-opacity:1;stroke:none;stroke-width:0.264583"
       transform="translate(0,4.7625002)">
      <path
         d="m 11.301294,107.88295 v 0.61151 q 0,0.19464 -0.184312,0.36001 -0.18259,0.16536 -0.377237,0.16536 h -0.339341 q -0.198093,0 -0.37896,-0.16708 -0.1808671,-0.16881 -0.1808671,-0.35829 v -0.61151 q 0,-0.18948 0.1756991,-0.35656 0.177422,-0.16881 0.384128,-0.16881 h 0.339341 q 0.194647,-0.003 0.377237,0.16192 0.184312,0.16536 0.184312,0.36345 z m -1.167885,0.0121 v 0.58567 q 0,0.0792 0.05684,0.12574 l 0.108521,0.093 q 0.03617,0.031 0.10163,0.031 h 0.3359 q 0.07407,0 0.134358,-0.0534 l 0.08785,-0.0775 q 0.0534,-0.0413 0.0534,-0.11541 v -0.58566 q 0,-0.0861 -0.0534,-0.12747 l -0.10163,-0.081 q -0.05168,-0.0431 -0.120578,-0.0431 h -0.299723 q -0.09818,0 -0.151584,0.0465 l -0.09819,0.0844 q -0.0534,0.0448 -0.0534,0.11713 z"
         style="font-style:normal;font-variant:normal;font-weight:normal;font-stretch:normal;font-size:3.52777px;font-family:OCR-A;-inkscape-font-specification:OCR-A;fill:#1a1a1a;fill-opacity:1;stroke-width:0.264583"
         id="path1180" />
      <path
         d="m 12.662104,108.73044 0.48748,-0.31005 v -0.91467 q 0,-0.0603 0.04134,-0.10336 0.04306,-0.0448 0.103353,-0.0448 0.06029,0 0.10163,0.0448 0.04306,0.0431 0.04306,0.10336 v 1.37286 q 0,0.0586 -0.04306,0.10163 -0.04306,0.0431 -0.10163,0.0431 -0.05857,0 -0.101631,-0.0431 -0.04306,-0.0431 -0.04306,-0.10163 v -0.11368 l -0.251492,0.16364 q -0.148138,0.0947 -0.299722,0.0947 h -0.134359 q -0.177422,0 -0.30489,-0.12403 -0.127468,-0.12402 -0.136081,-0.30316 l -0.04134,-1.09037 q -0.0034,-0.0568 0.03962,-0.0999 0.04479,-0.0448 0.105075,-0.0448 0.05857,0 0.09991,0.0431 0.04306,0.0431 0.04479,0.10163 l 0.0379,1.0697 q 0.0052,0.15502 0.177422,0.15502 z"
         style="font-style:normal;font-variant:normal;font-weight:normal;font-stretch:normal;font-size:3.52777px;font-family:OCR-A;-inkscape-font-specification:OCR-A;fill:#1a1a1a;fill-opacity:1;stroke-width:0.264583"
         id="path1182" />
      <path
         d="m 15.121897,109.02328 h -0.289388 q -0.179144,0 -0.308335,-0.12747 -0.129191,-0.12747 -0.129191,-0.30661 v -0.93879 h -0.148139 q -0.06029,0 -0.103352,-0.0413 -0.04134,-0.0413 -0.04134,-0.10335 0,-0.0603 0.04134,-0.10163 0.04306,-0.0431 0.103352,-0.0431 h 0.151584 v -0.35484 q 0,-0.0603 0.04134,-0.10163 0.04306,-0.0431 0.103353,-0.0431 0.05684,0 0.09991,0.0431 0.04479,0.0431 0.04479,0.10163 v 0.35484 h 0.582219 q 0.05857,0 0.101631,0.0431 0.04306,0.0431 0.04306,0.10163 0,0.0603 -0.04306,0.10335 -0.04306,0.0413 -0.101631,0.0413 h -0.585664 v 0.93879 q 0,0.0586 0.04306,0.10163 0.04479,0.0431 0.105075,0.0431 h 0.282498 q 0.11541,0 0.153306,-0.12402 0.0379,-0.12575 0.146416,-0.12575 0.06373,0 0.103353,0.0431 0.04134,0.0413 0.04134,0.10508 0,0.13091 -0.124023,0.26183 -0.122301,0.12919 -0.313503,0.12919 z"
         style="font-style:normal;font-variant:normal;font-weight:normal;font-stretch:normal;font-size:3.52777px;font-family:OCR-A;-inkscape-font-specification:OCR-A;fill:#1a1a1a;fill-opacity:1;stroke-width:0.264583"
         id="path1184" />
    </g>
    <g
       aria-label="down"
       id="text1359-3"
       style="font-style:normal;font-weight:normal;font-size:7.05556px;line-height:1.25;font-family:sans-serif;letter-spacing:0px;word-spacing:0px;display:inline;fill:#e5e5e5;fill-opacity:1;stroke:none;stroke-width:0.264583">
      <path
         d="m 10.220277,75.543636 v -0.615467 q 0,-0.05426 0.03721,-0.09147 0.03721,-0.03876 0.08992,-0.03876 0.05426,0 0.09302,0.03876 0.04031,0.03721 0.04031,0.09147 v 1.79989 q 0,0.05426 -0.03876,0.09302 -0.03876,0.03721 -0.09147,0.03721 -0.05581,0 -0.09302,-0.03721 -0.03721,-0.03876 -0.03721,-0.09302 v -0.05736 q -0.190686,0.187585 -0.3565678,0.187585 H 9.6420174 q -0.1333252,0 -0.2666504,-0.114722 l -0.1085205,-0.09147 q -0.037207,-0.03566 -0.071314,-0.119373 -0.032556,-0.08372 -0.032556,-0.156579 v -0.5302 q 0,-0.08837 0.037207,-0.170533 0.037207,-0.08371 0.086816,-0.125573 l 0.1069702,-0.09147 q 0.1147217,-0.09922 0.269751,-0.09922 h 0.1875854 q 0.1534789,0 0.2790529,0.10852 z m -0.3782719,0.07906 H 9.6606209 q -0.057361,0 -0.1038697,0.04186 l -0.083716,0.07286 q -0.043408,0.03876 -0.043408,0.09922 v 0.551904 q 0,0.05426 0.05116,0.09767 l 0.085266,0.07286 q 0.040308,0.03566 0.085266,0.03566 h 0.2123901 q 0.041858,0 0.099219,-0.04806 l 0.2061887,-0.170532 q 0.05116,-0.04496 0.05116,-0.111621 v -0.282154 q 0,-0.09457 -0.05426,-0.139526 L 9.9536262,75.661458 q -0.041858,-0.03876 -0.1116211,-0.03876 z"
         style="font-style:normal;font-variant:normal;font-weight:normal;font-stretch:normal;font-size:3.175px;font-family:OCR-A;-inkscape-font-specification:OCR-A;fill:#e5e5e5;fill-opacity:1;stroke-width:0.264583"
         id="path1272" />
      <path
         d="m 12.401539,75.83199 v 0.550354 q 0,0.175183 -0.165882,0.324011 -0.164331,0.148828 -0.339514,0.148828 h -0.305407 q -0.178284,0 -0.341065,-0.150378 Q 11.08689,76.552876 11.08689,76.382344 V 75.83199 q 0,-0.170532 0.15813,-0.320911 0.15968,-0.151928 0.345716,-0.151928 h 0.305407 q 0.175183,-0.0031 0.339514,0.145727 0.165882,0.148828 0.165882,0.327112 z m -1.051099,0.01085 v 0.5271 q 0,0.07131 0.05116,0.113171 l 0.09767,0.08372 q 0.03256,0.02791 0.09147,0.02791 h 0.302307 q 0.06666,0 0.120923,-0.04806 l 0.07906,-0.06976 q 0.04806,-0.03721 0.04806,-0.10387 v -0.527099 q 0,-0.07752 -0.04806,-0.114722 l -0.09147,-0.07286 q -0.04651,-0.03876 -0.10852,-0.03876 h -0.269751 q -0.08837,0 -0.136426,0.04186 l -0.08837,0.07596 q -0.04806,0.04031 -0.04806,0.10542 z"
         style="font-style:normal;font-variant:normal;font-weight:normal;font-stretch:normal;font-size:3.175px;font-family:OCR-A;-inkscape-font-specification:OCR-A;fill:#e5e5e5;fill-opacity:1;stroke-width:0.264583"
         id="path1274" />
      <path
         d="m 13.793702,75.940511 v 0.311608 l 0.173633,0.297657 0.08992,-0.297657 0.02791,-0.759643 q 0.0031,-0.05271 0.04031,-0.09147 0.03876,-0.03876 0.08992,-0.03876 0.05426,0 0.09302,0.03876 0.03876,0.03721 0.03721,0.09147 l -0.02791,0.810803 -0.139527,0.460437 q -0.02946,0.09457 -0.120922,0.09457 h -0.139527 q -0.07286,0 -0.114721,-0.07286 L 13.660377,76.540474 13.51775,76.78232 q -0.04806,0.07596 -0.114722,0.07596 h -0.136426 q -0.04496,0 -0.08216,-0.02635 -0.03566,-0.02636 -0.04496,-0.06201 l -0.136426,-0.47749 -0.02946,-0.799951 q -0.0015,-0.05116 0.03876,-0.08992 0.04031,-0.04031 0.09457,-0.04031 0.04961,0 0.08682,0.03721 0.03876,0.03566 0.04031,0.09302 l 0.02946,0.762744 0.08527,0.291455 0.181384,-0.303857 v -0.302307 q 0,-0.05426 0.03876,-0.09147 0.03876,-0.03876 0.09457,-0.03876 0.05271,0 0.09147,0.03876 0.03876,0.03721 0.03876,0.09147 z"
         style="font-style:normal;font-variant:normal;font-weight:normal;font-stretch:normal;font-size:3.175px;font-family:OCR-A;-inkscape-font-specification:OCR-A;fill:#e5e5e5;fill-opacity:1;stroke-width:0.264583"
         id="path1276" />
      <path
         d="m 15.540882,75.664558 -0.355017,0.230994 v 0.832507 q 0,0.05271 -0.03876,0.09147 -0.03876,0.03876 -0.09147,0.03876 -0.05271,0 -0.09147,-0.03876 -0.03876,-0.03876 -0.03876,-0.09147 v -1.235583 q 0,-0.05426 0.03721,-0.09302 0.03876,-0.04031 0.09302,-0.04031 0.05271,0 0.09147,0.04031 0.03876,0.03876 0.03876,0.09302 v 0.08682 l 0.237195,-0.144177 q 0.119372,-0.07596 0.269751,-0.07596 h 0.120923 q 0.155029,0 0.2682,0.110071 0.113172,0.11007 0.119373,0.271301 l 0.03566,0.987536 q 0.0015,0.05271 -0.03721,0.09147 -0.03876,0.03876 -0.09302,0.03876 -0.05116,0 -0.08992,-0.03411 -0.03876,-0.03566 -0.04031,-0.09612 l -0.03876,-0.972033 Q 15.933106,75.6196 15.79513,75.6196 h -0.127124 q -0.05891,0 -0.127124,0.04496 z"
         style="font-style:normal;font-variant:normal;font-weight:normal;font-stretch:normal;font-size:3.175px;font-family:OCR-A;-inkscape-font-specification:OCR-A;fill:#e5e5e5;fill-opacity:1;stroke-width:0.264583"
         id="path1278" />
    </g>
    <g
       aria-label="up"
       id="text1241-6"
       style="font-style:normal;font-weight:normal;font-size:7.05556px;line-height:1.25;font-family:sans-serif;letter-spacing:0px;word-spacing:0px;display:inline;fill:#e5e5e5;fill-opacity:1;stroke:none;stroke-width:0.264583">
      <path
         d="m 11.700951,37.436363 0.438733,-0.279053 v -0.823205 q 0,-0.05426 0.03721,-0.09302 0.03876,-0.04031 0.09302,-0.04031 0.05426,0 0.09147,0.04031 0.03876,0.03876 0.03876,0.09302 v 1.235583 q 0,0.05271 -0.03876,0.09147 -0.03876,0.03876 -0.09147,0.03876 -0.05271,0 -0.09147,-0.03876 -0.03876,-0.03876 -0.03876,-0.09147 v -0.102319 l -0.226343,0.147278 q -0.133325,0.08527 -0.269751,0.08527 h -0.120923 q -0.15968,0 -0.274401,-0.111621 -0.114722,-0.111621 -0.122474,-0.272852 l -0.03721,-0.981335 q -0.0031,-0.05116 0.03566,-0.08992 0.04031,-0.04031 0.09457,-0.04031 0.05271,0 0.08992,0.03876 0.03876,0.03876 0.04031,0.09147 l 0.03411,0.962732 q 0.0047,0.139526 0.15968,0.139526 z"
         style="font-style:normal;font-variant:normal;font-weight:normal;font-stretch:normal;font-size:3.175px;font-family:OCR-A;-inkscape-font-specification:OCR-A;fill:#e5e5e5;fill-opacity:1;stroke-width:0.264583"
         id="path1267" />
      <path
         d="m 13.263646,37.551085 v 0.576709 q 0,0.05581 -0.03876,0.09457 -0.03721,0.03876 -0.09147,0.03876 -0.05426,0 -0.09457,-0.03876 -0.03876,-0.03876 -0.03876,-0.09457 v -1.857251 q 0,-0.05271 0.03876,-0.09147 0.03876,-0.03876 0.09457,-0.03876 0.05271,0 0.09147,0.03876 0.03876,0.03876 0.03876,0.09147 v 0.08372 q 0.189136,-0.21084 0.373621,-0.21084 h 0.06046 q 0.137977,0 0.254248,0.102319 l 0.217042,0.187586 q 0.142626,0.124023 0.142626,0.314709 v 0.406177 q 0,0.192236 -0.153479,0.324011 l -0.21239,0.182935 q -0.10542,0.09612 -0.26665,0.09612 h -0.05736 q -0.151929,0 -0.257349,-0.10542 z m 0.36742,-0.05736 h 0.06666 q 0.04806,0 0.10232,-0.04806 l 0.203088,-0.178284 q 0.05116,-0.04031 0.05116,-0.110071 v -0.420129 q 0,-0.06201 -0.05736,-0.110071 l -0.218591,-0.187585 q -0.03721,-0.03256 -0.08062,-0.03256 h -0.07596 q -0.04341,0 -0.113171,0.07131 l -0.193787,0.192237 q -0.05116,0.05116 -0.05116,0.114721 v 0.333313 q 0,0.06046 0.05736,0.117822 l 0.187586,0.187586 q 0.06976,0.06976 0.122473,0.06976 z"
         style="font-style:normal;font-variant:normal;font-weight:normal;font-stretch:normal;font-size:3.175px;font-family:OCR-A;-inkscape-font-specification:OCR-A;fill:#e5e5e5;fill-opacity:1;stroke-width:0.264583"
         id="path1269" />
    </g>
  </g>
  <g
     inkscape:groupmode="layer"
     id="layer4"
     inkscape:label="components"
     style="display:none"
     sodipodi:insensitive="true">
    <circle
       style="display:inline;fill:#0000ff;fill-opacity:1;stroke:none;stroke-width:1;stroke-miterlimit:4;stroke-dasharray:none"
       id="circle3867"
       cx="12.7"
       cy="106.33155"
       r="4.1775002"
       inkscape:label="OUT" />
    <circle
       r="4.1775002"
       cy="44.390938"
       cx="12.7"
       id="circle903"
       style="display:inline;fill:#00ff00;fill-opacity:1;stroke:none;stroke-width:1;stroke-miterlimit:4;stroke-dasharray:none"
       inkscape:label="UP" />
    <circle
       r="4.1775002"
       cy="68.203461"
       cx="12.7"
       id="circle1202"
       style="display:inline;fill:#00ff00;fill-opacity:1;stroke:none;stroke-width:1;stroke-miterlimit:4;stroke-dasharray:none"
       inkscape:label="DOWN" />
    <circle
       r="6.3499999"
       cy="85.892006"
       cx="12.7"
       id="circle1373"
       style="display:inline;fill:#ff0000;fill-opacity:1;stroke:none;stroke-width:1;stroke-miterlimit:4;stroke-dasharray:none"
       inkscape:label="DOWNRATE" />
    <circle
       r="6.3499999"
       cy="27.154449"
       cx="12.7"
       id="circle1219"
       style="display:inline;fill:#ff0000;fill-opacity:1;stroke:none;stroke-width:1;stroke-miterlimit:4;stroke-dasharray:none"
       inkscape:label="UPRATE" />
  </g>
</svg>
