<?xml version="1.0" encoding="UTF-8" standalone="no"?>
<svg
   sodipodi:docname="cumuli.svg"
   inkscape:version="1.2.2 (b0a8486541, 2022-12-01)"
   id="svg55291"
   version="1.1"
   viewBox="0 0 25.400001 128.5007"
   height="128.5007mm"
   width="25.4mm"
   xmlns:inkscape="http://www.inkscape.org/namespaces/inkscape"
   xmlns:sodipodi="http://sodipodi.sourceforge.net/DTD/sodipodi-0.dtd"
   xmlns="http://www.w3.org/2000/svg"
   xmlns:svg="http://www.w3.org/2000/svg"
   xmlns:rdf="http://www.w3.org/1999/02/22-rdf-syntax-ns#"
   xmlns:cc="http://creativecommons.org/ns#"
   xmlns:dc="http://purl.org/dc/elements/1.1/">
  <defs
     id="defs55285" />
  <sodipodi:namedview
     inkscape:document-rotation="0"
     inkscape:window-maximized="1"
     inkscape:window-y="18"
     inkscape:window-x="0"
     inkscape:window-height="761"
     inkscape:window-width="1276"
     inkscape:snap-nodes="false"
     inkscape:snap-bbox-midpoints="true"
     inkscape:snap-bbox="true"
     fit-margin-bottom="0"
     fit-margin-right="0"
     fit-margin-left="0"
     fit-margin-top="0"
     showgrid="false"
     inkscape:current-layer="layer4"
     inkscape:document-units="mm"
     inkscape:cy="287.79245"
     inkscape:cx="-20.506096"
     inkscape:zoom="1.4142136"
     inkscape:pageshadow="2"
     inkscape:pageopacity="0.0"
     borderopacity="1.0"
     bordercolor="#666666"
     pagecolor="#ffffff"
     id="base"
     inkscape:showpageshadow="2"
     inkscape:pagecheckerboard="0"
     inkscape:deskcolor="#d1d1d1" />
  <metadata
     id="metadata55288">
    <rdf:RDF>
      <cc:Work
         rdf:about="">
        <dc:format>image/svg+xml</dc:format>
        <dc:type
           rdf:resource="http://purl.org/dc/dcmitype/StillImage" />
        <dc:title />
      </cc:Work>
    </rdf:RDF>
  </metadata>
  <g
     style="display:inline"
     transform="translate(-8.01071,-5.675522)"
     id="layer1"
     inkscape:groupmode="layer"
     inkscape:label="graphics"
     sodipodi:insensitive="true">
    <rect
       style="fill:#1a1a1a;stroke:none;stroke-width:0.265;stroke-linecap:round;stroke-miterlimit:4;stroke-dasharray:none"
       id="rect73"
       width="25.4"
       height="128.5"
       x="8.0107098"
       y="5.6755219"
       inkscape:label="background" />
    <rect
       style="display:inline;fill:#e4e4e4;fill-opacity:1;stroke:none;stroke-width:0.999999;stroke-miterlimit:4;stroke-dasharray:none"
       id="rect1684"
       width="13"
       height="15"
       x="14.21071"
       y="106.87552"
       rx="2"
       ry="2"
       inkscape:label="outline" />
    <path
       style="display:inline;fill:#e4e4e4;fill-opacity:1;stroke:#e4e4e4;stroke-width:0.264583px;stroke-linecap:butt;stroke-linejoin:miter;stroke-opacity:1"
       d="M 4.0215899,50.706836 H 21.358334"
       id="path385"
       transform="translate(8.01071,5.675522)"
       inkscape:label="hi-separator" />
    <path
       style="display:inline;fill:#e4e4e4;fill-opacity:1;stroke:#e4e4e4;stroke-width:0.264583px;stroke-linecap:butt;stroke-linejoin:miter;stroke-opacity:1"
       d="M 4.0215899,66.394757 H 21.358334"
       id="path1409"
       transform="translate(8.01071,5.675522)"
       inkscape:label="low-separator" />
  </g>
  <g
     style="display:inline"
     inkscape:label="logo"
     id="layer2"
     inkscape:groupmode="layer"
     sodipodi:insensitive="true">
    <g
       style="display:inline"
       id="g2756"
       transform="rotate(180,22.142544,137.90457)">
      <rect
         ry="1.2"
         rx="1.1818184"
         y="150.05914"
         x="25.335091"
         height="5.5"
         width="12.5"
         id="rect3959-3"
         style="display:inline;fill:none;stroke:#ffd500;stroke-width:0.5;stroke-miterlimit:4;stroke-dasharray:none;stroke-opacity:1" />
      <rect
         style="fill:#ffd500;fill-opacity:1;stroke:none;stroke-width:0;stroke-linecap:round;stroke-miterlimit:4;stroke-dasharray:none;stroke-opacity:1"
         id="rect2659"
         width="0.25"
         height="4.5"
         x="31.460091"
         y="150.55914" />
      <circle
         cy="154.16956"
         cx="29.522081"
         id="circle2671"
         style="fill:#ffd500;fill-opacity:1;stroke:none;stroke-width:0;stroke-linecap:round;stroke-miterlimit:4;stroke-dasharray:none;stroke-opacity:1"
         r="0.625" />
      <circle
         r="0.625"
         style="fill:#ffd500;fill-opacity:1;stroke:none;stroke-width:0;stroke-linecap:round;stroke-miterlimit:4;stroke-dasharray:none;stroke-opacity:1"
         id="circle2683"
         cx="27.405416"
         cy="151.52373" />
      <circle
         r="0.625"
         style="fill:#ffd500;fill-opacity:1;stroke:none;stroke-width:0;stroke-linecap:round;stroke-miterlimit:4;stroke-dasharray:none;stroke-opacity:1"
         id="circle2685"
         cx="35.650894"
         cy="154.16956" />
      <circle
         cy="151.52373"
         cx="33.534229"
         id="circle2687"
         style="fill:#ffd500;fill-opacity:1;stroke:none;stroke-width:0;stroke-linecap:round;stroke-miterlimit:4;stroke-dasharray:none;stroke-opacity:1"
         r="0.625" />
    </g>
  </g>
  <g
     style="display:none"
     inkscape:label="text"
     id="layer3"
     inkscape:groupmode="layer"
     sodipodi:insensitive="true">
    <text
       id="text1545"
       y="10.775675"
       x="3.8220158"
       style="font-size:4.93889px;line-height:1.25;font-family:sans-serif;letter-spacing:0px;word-spacing:0px;fill:#f9f9f9;stroke-width:0.264583"
       xml:space="preserve"
       inkscape:label="cumuli-text"><tspan
         style="font-style:normal;font-variant:normal;font-weight:normal;font-stretch:normal;font-size:4.93889px;font-family:OCR-A;-inkscape-font-specification:OCR-A;fill:#f9f9f9;stroke-width:0.264583"
         y="10.775675"
         x="3.8220158"
         id="tspan1543"
         sodipodi:role="line">cumuli</tspan></text>
    <text
       xml:space="preserve"
       style="font-style:normal;font-variant:normal;font-weight:normal;font-stretch:normal;font-size:7.05556px;line-height:1.25;font-family:OCR-A;-inkscape-font-specification:OCR-A;letter-spacing:0px;word-spacing:0px;display:inline;fill:#1a1a1a;fill-opacity:1;stroke:none;stroke-width:0.264583"
       x="9.4874554"
       y="113.78577"
       id="text282"
       inkscape:label="out-text"><tspan
         sodipodi:role="line"
         id="tspan280"
         x="9.4874554"
         y="113.78577"
         style="font-style:normal;font-variant:normal;font-weight:normal;font-stretch:normal;font-size:3.52777px;font-family:OCR-A;-inkscape-font-specification:OCR-A;fill:#1a1a1a;fill-opacity:1;stroke-width:0.264583">out</tspan></text>
    <text
       id="text1359"
       y="80.562454"
       x="8.4237394"
       style="font-style:normal;font-weight:normal;font-size:3.52778px;line-height:1.25;font-family:sans-serif;letter-spacing:0px;word-spacing:0px;display:inline;fill:#e5e5e5;fill-opacity:1;stroke:none;stroke-width:0.264583"
       xml:space="preserve"
       inkscape:label="down-text"><tspan
         style="font-style:normal;font-variant:normal;font-weight:normal;font-stretch:normal;font-size:3.52778px;font-family:OCR-A;-inkscape-font-specification:OCR-A;fill:#e5e5e5;fill-opacity:1;stroke-width:0.264583"
         y="80.562454"
         x="8.4237394"
         id="tspan1357"
         sodipodi:role="line">down</tspan></text>
    <text
       id="text1241"
       y="37.699913"
       x="10.54608"
       style="font-style:normal;font-weight:normal;font-size:3.52778px;line-height:1.25;font-family:sans-serif;letter-spacing:0px;word-spacing:0px;display:inline;fill:#e5e5e5;fill-opacity:1;stroke:none;stroke-width:0.264583"
       xml:space="preserve"
       inkscape:label="up-text"><tspan
         style="font-style:normal;font-variant:normal;font-weight:normal;font-stretch:normal;font-size:3.52778px;font-family:OCR-A;-inkscape-font-specification:OCR-A;fill:#e5e5e5;fill-opacity:1;stroke-width:0.264583"
         y="37.699913"
         x="10.54608"
         id="tspan1239"
         sodipodi:role="line">up</tspan></text>
    <text
       id="text227"
       y="56.749931"
       x="3.6648908"
       style="font-style:normal;font-weight:normal;font-size:3.52778px;line-height:1.25;font-family:sans-serif;letter-spacing:0px;word-spacing:0px;display:inline;fill:#e5e5e5;fill-opacity:1;stroke:none;stroke-width:0.264583"
       xml:space="preserve"
       inkscape:label="rst-text"><tspan
         style="font-style:normal;font-variant:normal;font-weight:normal;font-stretch:normal;font-size:3.52778px;font-family:OCR-A;-inkscape-font-specification:OCR-A;fill:#e5e5e5;fill-opacity:1;stroke-width:0.264583"
         y="56.749931"
         x="3.6648908"
         id="tspan225"
         sodipodi:role="line">rst</tspan></text>
  </g>
  <g
     style="display:inline"
     inkscape:label="text-as-path"
     id="g1433"
     inkscape:groupmode="layer"
     sodipodi:insensitive="true">
    <g
       aria-label="cumuli"
       id="text1415"
       style="font-size:4.93889px;line-height:1.25;letter-spacing:0px;word-spacing:0px;fill:#f9f9f9;stroke-width:0.264583"
       inkscape:label="cumuli-text">
      <path
         d="M 6.1636477,10.775675 H 5.297895 q -0.2290989,0 -0.3906739,-0.13746 L 4.5141356,10.295773 Q 4.3260333,10.139021 4.3260333,9.8713371 V 9.3432038 Q 4.3163871,9.0851661 4.5382513,8.8946523 L 4.8927517,8.5883832 Q 5.063973,8.4485123 5.2593099,8.4485123 h 0.9091609 q 0.084405,0 0.1422825,0.060289 0.060289,0.057878 0.060289,0.1422825 0,0.086816 -0.060289,0.144694 -0.057878,0.057878 -0.1422825,0.057878 H 5.297895 q -0.081993,0 -0.1567519,0.065112 L 4.8155815,9.1960982 q -0.079582,0.067524 -0.079582,0.1808675 v 0.4943714 q 0,0.079582 0.062701,0.1350479 l 0.356912,0.303857 q 0.067524,0.06029 0.178456,0.06029 h 0.8295792 q 0.081993,0 0.1422825,0.06029 0.060289,0.05788 0.060289,0.142282 0,0.08441 -0.060289,0.144694 -0.057878,0.05788 -0.1422825,0.05788 z"
         style="font-family:OCR-A;-inkscape-font-specification:OCR-A"
         id="path1435" />
      <path
         d="M 8.2665343,10.365708 8.9490079,9.9316262 V 8.651084 q 0,-0.084405 0.057878,-0.1446941 0.060289,-0.062701 0.1446941,-0.062701 0.084405,0 0.1422825,0.062701 0.060289,0.060289 0.060289,0.1446941 v 1.922019 q 0,0.08199 -0.060289,0.142283 -0.060289,0.06029 -0.1422825,0.06029 -0.081993,0 -0.1422825,-0.06029 -0.060289,-0.06029 -0.060289,-0.142283 V 10.41394 L 8.5969191,10.643039 Q 8.3895243,10.775675 8.1773064,10.775675 H 7.9892041 q -0.2483914,0 -0.4268474,-0.173633 -0.178456,-0.173633 -0.1905138,-0.424436 L 7.3139652,8.651084 q -0.00482,-0.079582 0.055466,-0.1398709 0.062701,-0.062701 0.1471056,-0.062701 0.081993,0 0.1398709,0.060289 0.060289,0.060289 0.062701,0.1422825 l 0.053054,1.4975834 q 0.00723,0.217041 0.2483915,0.217041 z"
         style="font-family:OCR-A;-inkscape-font-specification:OCR-A"
         id="path1437" />
      <path
         d="M 10.236785,10.573103 V 8.651084 q 0,-0.084405 0.05788,-0.1422825 0.06029,-0.060289 0.144694,-0.060289 0.156752,0 0.197749,0.1543403 0.16881,-0.1591634 0.376205,-0.1591634 0.243568,0 0.40032,0.2073948 0.192925,-0.2073948 0.424436,-0.2073948 0.188102,0 0.325561,0.1350477 0.139871,0.1326362 0.149517,0.340031 l 0.05788,1.6543349 q 0,0.08199 -0.06029,0.142283 -0.06029,0.06029 -0.142283,0.06029 -0.08441,0 -0.144694,-0.06029 -0.06029,-0.06029 -0.0627,-0.142283 L 11.91283,8.9838805 q -0.0048,-0.1302247 -0.07958,-0.1302247 -0.041,0 -0.0844,0.036174 l -0.241157,0.2025717 v 1.4807025 q 0,0.08199 -0.06029,0.139871 -0.05788,0.05788 -0.142283,0.05788 -0.08199,0 -0.142282,-0.05788 -0.06029,-0.06029 -0.06029,-0.144694 V 8.957353 q 0,-0.1036974 -0.08923,-0.1036974 -0.04341,0 -0.07958,0.03135 l -0.2918,0.2459799 v 1.4421175 q 0,0.08199 -0.05788,0.142283 -0.05788,0.06029 -0.139871,0.06029 -0.0844,0 -0.147106,-0.06029 -0.06029,-0.06029 -0.06029,-0.142283 z"
         style="font-family:OCR-A;-inkscape-font-specification:OCR-A"
         id="path1439" />
      <path
         d="M 14.232752,10.365708 14.915226,9.9316262 V 8.651084 q 0,-0.084405 0.05788,-0.1446941 0.06029,-0.062701 0.144694,-0.062701 0.08441,0 0.142283,0.062701 0.06029,0.060289 0.06029,0.1446941 v 1.922019 q 0,0.08199 -0.06029,0.142283 -0.06029,0.06029 -0.142283,0.06029 -0.08199,0 -0.142282,-0.06029 -0.06029,-0.06029 -0.06029,-0.142283 V 10.41394 l -0.352089,0.229099 q -0.207395,0.132636 -0.419613,0.132636 h -0.188102 q -0.248392,0 -0.426848,-0.173633 -0.178456,-0.173633 -0.190513,-0.424436 l -0.05788,-1.526522 q -0.0048,-0.079582 0.05547,-0.1398709 0.0627,-0.062701 0.147106,-0.062701 0.08199,0 0.139871,0.060289 0.06029,0.060289 0.0627,0.1422825 l 0.05306,1.4975834 q 0.0072,0.217041 0.248391,0.217041 z"
         style="font-family:OCR-A;-inkscape-font-specification:OCR-A"
         id="path1441" />
      <path
         d="m 17.888688,10.775675 h -1.225076 q -0.08441,0 -0.144694,-0.06029 -0.05788,-0.0627 -0.05788,-0.147106 0,-0.08199 0.05788,-0.142282 0.06029,-0.06029 0.144694,-0.06029 h 0.405143 V 7.9758451 h -0.409966 q -0.08441,0 -0.144694,-0.057878 -0.05788,-0.060289 -0.05788,-0.1446941 0,-0.084405 0.05788,-0.1422824 0.06029,-0.060289 0.144694,-0.060289 h 0.617361 q 0.08199,0 0.142282,0.060289 0.06029,0.060289 0.06029,0.1422824 v 2.592435 h 0.409967 q 0.08199,0 0.142282,0.06029 0.06029,0.06029 0.06029,0.142282 0,0.08441 -0.06029,0.147106 -0.05788,0.06029 -0.142282,0.06029 z"
         style="font-family:OCR-A;-inkscape-font-specification:OCR-A"
         id="path1443" />
      <path
         d="m 20.04704,7.3922458 h 0.212218 q 0.08441,0 0.142283,0.060289 0.06029,0.057878 0.06029,0.1422825 v 0.1736328 q 0,0.084405 -0.06029,0.1471056 -0.05788,0.060289 -0.142283,0.060289 h -0.217041 q -0.08682,0 -0.147105,-0.062701 -0.05788,-0.062701 -0.05547,-0.1398709 l 0.0048,-0.1784559 q 0,-0.084405 0.05788,-0.1422825 0.06029,-0.060289 0.144694,-0.060289 z m 0.824756,3.3786062 h -1.234722 q -0.0844,0 -0.144694,-0.05788 -0.05788,-0.06029 -0.05788,-0.144694 0,-0.08199 0.05788,-0.142282 0.06029,-0.06029 0.144694,-0.06029 h 0.41479 V 8.8536556 h -0.409967 q -0.08441,0 -0.144694,-0.060289 -0.05788,-0.060289 -0.05788,-0.1422824 0,-0.084405 0.05788,-0.1446941 0.06029,-0.062701 0.144694,-0.062701 h 0.617361 q 0.08441,0 0.142283,0.062701 0.06029,0.060289 0.06029,0.1446941 v 1.7146238 h 0.405143 q 0.0844,0 0.144694,0.06029 0.0627,0.05788 0.0627,0.142282 0,0.08441 -0.06029,0.144694 -0.06029,0.05788 -0.142283,0.05788 z"
         style="font-family:OCR-A;-inkscape-font-specification:OCR-A"
         id="path1445" />
    </g>
    <g
       aria-label="out"
       id="text1419"
       style="font-size:7.05556px;line-height:1.25;font-family:OCR-A;-inkscape-font-specification:OCR-A;letter-spacing:0px;word-spacing:0px;display:inline;fill:#1a1a1a;stroke-width:0.264583"
       inkscape:label="out-text">
      <path
         d="m 11.301294,112.64544 v 0.61151 q 0,0.19464 -0.184312,0.36001 -0.18259,0.16536 -0.377237,0.16536 h -0.339341 q -0.198093,0 -0.37896,-0.16709 -0.1808671,-0.1688 -0.1808671,-0.35828 v -0.61151 q 0,-0.18948 0.1756991,-0.35656 0.177422,-0.16881 0.384128,-0.16881 h 0.339341 q 0.194647,-0.003 0.377237,0.16192 0.184312,0.16536 0.184312,0.36345 z m -1.167885,0.0121 v 0.58567 q 0,0.0792 0.05684,0.12574 l 0.108521,0.093 q 0.03617,0.031 0.10163,0.031 h 0.3359 q 0.07407,0 0.134358,-0.0534 l 0.08785,-0.0775 q 0.0534,-0.0413 0.0534,-0.11541 v -0.58566 q 0,-0.0861 -0.0534,-0.12747 l -0.10163,-0.081 q -0.05168,-0.0431 -0.120578,-0.0431 h -0.299723 q -0.09818,0 -0.151584,0.0465 l -0.09819,0.0844 q -0.0534,0.0448 -0.0534,0.11713 z"
         style="font-size:3.52777px"
         id="path1448" />
      <path
         d="m 12.662104,113.49293 0.48748,-0.31005 v -0.91467 q 0,-0.0603 0.04134,-0.10336 0.04306,-0.0448 0.103353,-0.0448 0.06029,0 0.10163,0.0448 0.04306,0.0431 0.04306,0.10336 v 1.37286 q 0,0.0586 -0.04306,0.10163 -0.04306,0.0431 -0.10163,0.0431 -0.05857,0 -0.101631,-0.0431 -0.04306,-0.0431 -0.04306,-0.10163 v -0.11368 l -0.251492,0.16364 q -0.148138,0.0947 -0.299722,0.0947 h -0.134359 q -0.177422,0 -0.30489,-0.12403 -0.127468,-0.12402 -0.136081,-0.30316 l -0.04134,-1.09037 q -0.0034,-0.0568 0.03962,-0.0999 0.04479,-0.0448 0.105075,-0.0448 0.05857,0 0.09991,0.0431 0.04306,0.0431 0.04479,0.10163 l 0.0379,1.0697 q 0.0052,0.15502 0.177422,0.15502 z"
         style="font-size:3.52777px"
         id="path1450" />
      <path
         d="m 15.121897,113.78577 h -0.289388 q -0.179144,0 -0.308335,-0.12747 -0.129191,-0.12747 -0.129191,-0.30661 v -0.93879 h -0.148139 q -0.06029,0 -0.103352,-0.0413 -0.04134,-0.0413 -0.04134,-0.10335 0,-0.0603 0.04134,-0.10163 0.04306,-0.0431 0.103352,-0.0431 h 0.151584 v -0.35484 q 0,-0.0603 0.04134,-0.10163 0.04306,-0.0431 0.103353,-0.0431 0.05684,0 0.09991,0.0431 0.04479,0.0431 0.04479,0.10163 v 0.35484 h 0.582219 q 0.05857,0 0.101631,0.0431 0.04306,0.0431 0.04306,0.10163 0,0.0603 -0.04306,0.10335 -0.04306,0.0413 -0.101631,0.0413 h -0.585664 v 0.93879 q 0,0.0586 0.04306,0.10163 0.04479,0.0431 0.105075,0.0431 h 0.282498 q 0.11541,0 0.153306,-0.12402 0.0379,-0.12575 0.146416,-0.12575 0.06373,0 0.103353,0.0431 0.04134,0.0413 0.04134,0.10508 0,0.13091 -0.124023,0.26183 -0.122301,0.12919 -0.313503,0.12919 z"
         style="font-size:3.52777px"
         id="path1452" />
    </g>
    <g
       aria-label="down"
       id="text1423"
       style="font-size:3.52778px;line-height:1.25;letter-spacing:0px;word-spacing:0px;display:inline;fill:#e5e5e5;stroke-width:0.264583"
       inkscape:label="down-text">
      <path
         d="m 9.9447501,79.101733 v -0.683852 q 0,-0.06029 0.041341,-0.10163 0.041341,-0.04306 0.099908,-0.04306 0.06029,0 0.103353,0.04306 0.04479,0.04134 0.04479,0.10163 v 1.999879 q 0,0.06029 -0.04306,0.103353 -0.04306,0.04134 -0.101631,0.04134 -0.06201,0 -0.1033527,-0.04134 -0.041341,-0.04306 -0.041341,-0.103353 V 80.35403 Q 9.7328766,80.562454 9.5485638,80.562454 H 9.3022393 q -0.1481392,0 -0.2962784,-0.127468 L 8.8853825,80.333355 q -0.041341,-0.03962 -0.079237,-0.132636 -0.036174,-0.09302 -0.036174,-0.173977 V 79.43763 q 0,-0.09819 0.041341,-0.189481 0.041341,-0.09302 0.096463,-0.139526 l 0.1188558,-0.10163 Q 9.1541001,78.896749 9.326355,78.896749 h 0.2084284 q 0.1705324,0 0.3100588,0.120579 z m -0.4203019,0.08785 H 9.3229099 q -0.063734,0 -0.1154107,0.04651 l -0.093018,0.08096 q -0.048231,0.04306 -0.048231,0.110244 v 0.613227 q 0,0.06029 0.056844,0.10852 l 0.09474,0.08096 q 0.044786,0.03962 0.09474,0.03962 h 0.2359892 q 0.046509,0 0.1102432,-0.0534 l 0.229099,-0.18948 q 0.056844,-0.04995 0.056844,-0.124024 v -0.313504 q 0,-0.105075 -0.060289,-0.155029 l -0.2359889,-0.20154 q -0.046509,-0.04306 -0.1240235,-0.04306 z"
         style="font-family:OCR-A;-inkscape-font-specification:OCR-A"
         id="path1455" />
      <path
         d="m 12.368376,79.422127 v 0.611505 q 0,0.194648 -0.184312,0.360012 -0.182591,0.165365 -0.377239,0.165365 h -0.339342 q -0.198093,0 -0.378961,-0.167087 -0.180867,-0.16881 -0.180867,-0.35829 v -0.611505 q 0,-0.18948 0.1757,-0.356568 0.177422,-0.16881 0.384128,-0.16881 h 0.339342 q 0.194648,-0.0034 0.377239,0.16192 0.184312,0.165365 0.184312,0.363458 z m -1.167888,0.01206 v 0.585666 q 0,0.07924 0.05684,0.125746 l 0.108521,0.09302 q 0.03617,0.03101 0.10163,0.03101 h 0.335897 q 0.07407,0 0.134359,-0.0534 l 0.08785,-0.07752 q 0.0534,-0.04134 0.0534,-0.115411 V 79.43763 q 0,-0.08613 -0.0534,-0.127469 l -0.10163,-0.08096 q -0.05168,-0.04306 -0.120579,-0.04306 h -0.299723 q -0.09819,0 -0.151585,0.04651 l -0.09818,0.0844 q -0.0534,0.04479 -0.0534,0.117134 z"
         style="font-family:OCR-A;-inkscape-font-specification:OCR-A"
         id="path1457" />
      <path
         d="m 13.915225,79.542705 v 0.346233 l 0.192926,0.330729 0.09991,-0.330729 0.03101,-0.844049 q 0.0034,-0.05857 0.04479,-0.101631 0.04306,-0.04306 0.09991,-0.04306 0.06029,0 0.103353,0.04306 0.04306,0.04134 0.04134,0.101631 l -0.03101,0.900893 -0.15503,0.511597 q -0.03273,0.105075 -0.134359,0.105075 h -0.155029 q -0.08096,0 -0.127469,-0.08096 l -0.158474,-0.272162 -0.158475,0.268717 q -0.0534,0.08441 -0.127468,0.08441 h -0.151585 q -0.04995,0 -0.0913,-0.02928 -0.03962,-0.02928 -0.04995,-0.0689 l -0.151584,-0.530545 -0.03273,-0.888835 q -0.0017,-0.05684 0.04306,-0.09991 0.04479,-0.04479 0.105076,-0.04479 0.05512,0 0.09646,0.04134 0.04306,0.03962 0.04479,0.103353 l 0.03273,0.847494 0.09474,0.323839 0.201538,-0.33762 v -0.335897 q 0,-0.06029 0.04306,-0.10163 0.04306,-0.04306 0.105076,-0.04306 0.05857,0 0.10163,0.04306 0.04306,0.04134 0.04306,0.10163 z"
         style="font-family:OCR-A;-inkscape-font-specification:OCR-A"
         id="path1459" />
      <path
         d="m 15.856538,79.236092 -0.394464,0.256659 v 0.925009 q 0,0.05857 -0.04306,0.101631 -0.04306,0.04306 -0.10163,0.04306 -0.05857,0 -0.10163,-0.04306 -0.04306,-0.04306 -0.04306,-0.101631 v -1.372871 q 0,-0.06029 0.04134,-0.103353 0.04306,-0.04479 0.103353,-0.04479 0.05857,0 0.10163,0.04479 0.04306,0.04306 0.04306,0.103353 v 0.09646 l 0.26355,-0.160197 q 0.132636,-0.08441 0.299724,-0.08441 h 0.134358 q 0.172255,0 0.298001,0.122301 0.125746,0.122301 0.132637,0.301446 l 0.03962,1.097264 q 0.0017,0.05857 -0.04134,0.101631 -0.04306,0.04306 -0.103353,0.04306 -0.05684,0 -0.09991,-0.0379 -0.04306,-0.03962 -0.04479,-0.106798 l -0.04306,-1.080038 q -0.0052,-0.151584 -0.158474,-0.151584 h -0.141249 q -0.06546,0 -0.141249,0.04995 z"
         style="font-family:OCR-A;-inkscape-font-specification:OCR-A"
         id="path1461" />
    </g>
    <g
       aria-label="up"
       id="text1427"
       style="font-size:3.52778px;line-height:1.25;letter-spacing:0px;word-spacing:0px;display:inline;fill:#e5e5e5;stroke-width:0.264583"
       inkscape:label="up-text">
      <path
         d="m 11.589944,37.40708 0.487482,-0.310059 v -0.914674 q 0,-0.06029 0.04134,-0.103352 0.04306,-0.04479 0.103353,-0.04479 0.06029,0 0.10163,0.04479 0.04306,0.04306 0.04306,0.103352 v 1.372872 q 0,0.05857 -0.04306,0.10163 -0.04306,0.04306 -0.10163,0.04306 -0.05857,0 -0.101631,-0.04306 -0.04306,-0.04306 -0.04306,-0.10163 v -0.113688 l -0.251493,0.163642 q -0.148139,0.09474 -0.299723,0.09474 h -0.134359 q -0.177422,0 -0.304891,-0.124023 -0.127469,-0.124024 -0.136081,-0.303169 l -0.04134,-1.090374 q -0.0034,-0.05684 0.03962,-0.09991 0.04479,-0.04479 0.105076,-0.04479 0.05857,0 0.09991,0.04306 0.04306,0.04306 0.04479,0.10163 l 0.0379,1.069703 q 0.0052,0.15503 0.177422,0.15503 z"
         style="font-family:OCR-A;-inkscape-font-specification:OCR-A"
         id="path1464" />
      <path
         d="m 13.326273,37.534548 v 0.640789 q 0,0.06201 -0.04306,0.105075 -0.04134,0.04306 -0.101631,0.04306 -0.06029,0 -0.105075,-0.04306 -0.04306,-0.04306 -0.04306,-0.105075 v -2.063614 q 0,-0.05857 0.04306,-0.10163 0.04306,-0.04306 0.105075,-0.04306 0.05857,0 0.101631,0.04306 0.04306,0.04306 0.04306,0.10163 v 0.09302 q 0.210151,-0.234267 0.415135,-0.234267 h 0.06718 q 0.153307,0 0.282498,0.113688 l 0.241157,0.208429 q 0.158474,0.137804 0.158474,0.349677 v 0.451308 q 0,0.213596 -0.170532,0.360013 l -0.235989,0.20326 q -0.117133,0.106798 -0.296278,0.106798 h -0.06373 q -0.16881,0 -0.285943,-0.117133 z m 0.408244,-0.06373 h 0.07407 q 0.0534,0 0.113688,-0.0534 l 0.225654,-0.198093 q 0.05684,-0.04479 0.05684,-0.122301 V 36.63021 q 0,-0.0689 -0.06373,-0.122301 L 13.89816,36.299481 q -0.04134,-0.03617 -0.08957,-0.03617 h -0.0844 q -0.04823,0 -0.125746,0.07924 l -0.215318,0.213596 q -0.05684,0.05684 -0.05684,0.127468 v 0.370348 q 0,0.06718 0.06373,0.130914 l 0.208428,0.208428 q 0.07752,0.07751 0.136081,0.07751 z"
         style="font-family:OCR-A;-inkscape-font-specification:OCR-A"
         id="path1466" />
    </g>
    <g
       aria-label="rst"
       id="text1431"
       style="font-size:3.52778px;line-height:1.25;letter-spacing:0px;word-spacing:0px;display:inline;fill:#e5e5e5;stroke-width:0.264583"
       inkscape:label="rst-text">
      <path
         d="m 4.0214584,56.605237 v -1.372871 q 0,-0.06029 0.041341,-0.103353 0.043064,-0.04479 0.1033529,-0.04479 0.060289,0 0.1016304,0.04306 0.043064,0.04306 0.043064,0.105076 v 0.180867 L 4.5468359,55.211688 Q 4.6932525,55.087665 4.832779,55.087665 h 0.2118735 q 0.1791451,0 0.3066137,0.127468 0.1274686,0.127469 0.1274686,0.306614 v 0.07751 q 0,0.06201 -0.043064,0.105075 -0.041341,0.04306 -0.1016304,0.04306 -0.060289,0 -0.1033529,-0.04134 -0.041341,-0.04306 -0.041341,-0.103353 v -0.08096 q 0,-0.06029 -0.043064,-0.10163 -0.041341,-0.04306 -0.1016304,-0.04306 H 4.8568946 q -0.060289,0 -0.1343588,0.06373 l -0.4116892,0.356568 v 0.807875 q 0,0.06029 -0.043064,0.103353 -0.043064,0.04134 -0.1016304,0.04134 -0.060289,0 -0.1033529,-0.04134 -0.041341,-0.04306 -0.041341,-0.103353 z"
         style="font-family:OCR-A;-inkscape-font-specification:OCR-A"
         id="path1469" />
      <path
         d="m 6.5570502,55.087672 h 0.6631813 q 0.1550294,0 0.2738853,0.09302 0.1188559,0.0913 0.1188559,0.179145 0,0.06201 -0.044786,0.101631 -0.043064,0.03962 -0.096463,0.03962 -0.068902,0 -0.1257461,-0.06201 -0.056844,-0.06201 -0.1188559,-0.06201 H 6.5725532 q -0.096463,0 -0.096463,0.08096 0,0.05684 0.063734,0.08613 l 0.7699794,0.341065 q 0.1171333,0.05168 0.1912029,0.167087 0.075792,0.113688 0.075792,0.253215 0,0.186035 -0.1326362,0.315226 -0.1309137,0.129191 -0.298001,0.129191 h -0.585666 q -0.1515843,0 -0.282498,-0.09129 -0.1291912,-0.0913 -0.1291912,-0.177422 0,-0.05684 0.041341,-0.09991 0.043064,-0.04479 0.1102431,-0.04479 0.055122,0 0.1171334,0.06201 0.063734,0.06201 0.1825901,0.06201 h 0.5391578 q 0.063734,0 0.1067981,-0.04823 0.043064,-0.04995 0.043064,-0.113688 0,-0.09819 -0.096463,-0.141249 L 6.4158012,55.807697 q -0.1119657,-0.04995 -0.1722549,-0.144694 -0.060289,-0.09474 -0.060289,-0.192925 0,-0.15503 0.106798,-0.268718 0.1085206,-0.113688 0.2669949,-0.113688 z"
         style="font-family:OCR-A;-inkscape-font-specification:OCR-A"
         id="path1471" />
      <path
         d="M 9.2993479,56.749931 H 9.0099597 q -0.1791451,0 -0.3083362,-0.127468 Q 8.5724323,56.494994 8.5724323,56.315849 V 55.37706 H 8.4242931 q -0.060289,0 -0.1033529,-0.04134 -0.041341,-0.04134 -0.041341,-0.103353 0,-0.06029 0.041341,-0.101631 0.043064,-0.04306 0.1033529,-0.04306 h 0.1515843 v -0.354845 q 0,-0.06029 0.041341,-0.101631 0.043064,-0.04306 0.1033529,-0.04306 0.056844,0 0.099908,0.04306 0.044786,0.04306 0.044786,0.101631 v 0.354845 h 0.5822215 q 0.058567,0 0.1016304,0.04306 0.043064,0.04306 0.043064,0.101631 0,0.06029 -0.043064,0.103353 -0.043064,0.04134 -0.1016304,0.04134 H 8.8618205 v 0.938789 q 0,0.05857 0.043064,0.10163 0.044786,0.04306 0.1050755,0.04306 h 0.282498 q 0.1154108,0 0.1533069,-0.124023 0.037896,-0.125746 0.1464166,-0.125746 0.063734,0 0.103353,0.04306 0.041341,0.04134 0.041341,0.105076 0,0.130913 -0.1240235,0.261827 -0.122301,0.129191 -0.3135039,0.129191 z"
         style="font-family:OCR-A;-inkscape-font-specification:OCR-A"
         id="path1473" />
    </g>
  </g>
  <g
     inkscape:groupmode="layer"
     id="layer4"
     inkscape:label="components"
     style="display:none"
     sodipodi:insensitive="true">
    <circle
       style="display:inline;fill:#0000ff;fill-opacity:1;stroke:none;stroke-width:1;stroke-miterlimit:4;stroke-dasharray:none"
       id="circle3867"
       cx="12.7"
       cy="106.33155"
       r="4.1775002"
       inkscape:label="OUT" />
    <circle
       r="6.3499999"
       cy="89.596176"
       cx="12.7"
       id="circle1373"
       style="display:inline;fill:#ff0000;fill-opacity:1;stroke:none;stroke-width:1;stroke-miterlimit:4;stroke-dasharray:none"
       inkscape:label="DOWNRATE#Rogan2PWhite" />
    <circle
       r="4.1775002"
       cy="73.495132"
       cx="17.991667"
       id="circle1202"
       style="display:inline;fill:#00ff00;fill-opacity:1;stroke:none;stroke-width:1;stroke-miterlimit:4;stroke-dasharray:none"
       inkscape:label="DOWN" />
    <circle
       cy="73.495132"
       cx="7.7916684"
       id="circle223"
       style="display:inline;fill:#ff0000;fill-opacity:1;stroke:none;stroke-width:1;stroke-miterlimit:4;stroke-dasharray:none"
       inkscape:label="DOWNGATE#TL1105"
       r="2.5" />
    <circle
       cy="61.075001"
       cx="10.4375"
       id="circle221"
       style="display:inline;fill:#ff0000;fill-opacity:1;stroke:none;stroke-width:1;stroke-miterlimit:4;stroke-dasharray:none"
       inkscape:label="RESETGATE#TL1105"
       r="2.5" />
    <circle
       r="4.1775002"
       cy="58.429165"
       cx="17.991667"
       id="circle217"
       style="display:inline;fill:#00ff00;fill-opacity:1;stroke:none;stroke-width:1;stroke-miterlimit:4;stroke-dasharray:none"
       inkscape:label="RESET" />
    <circle
       r="4.1775002"
       cy="42.803436"
       cx="17.991667"
       id="circle903"
       style="display:inline;fill:#00ff00;fill-opacity:1;stroke:none;stroke-width:1;stroke-miterlimit:4;stroke-dasharray:none"
       inkscape:label="UP" />
    <circle
       cy="42.803436"
       cx="7.7916684"
       id="circle219"
       style="display:inline;fill:#ff0000;fill-opacity:1;stroke:none;stroke-width:1;stroke-miterlimit:4;stroke-dasharray:none"
       inkscape:label="UPGATE#TL1105"
       r="2.5" />
    <circle
       r="6.3499999"
       cy="27.154449"
       cx="12.7"
       id="circle1219"
       style="display:inline;fill:#ff0000;fill-opacity:1;stroke:none;stroke-width:1;stroke-miterlimit:4;stroke-dasharray:none"
       inkscape:label="UPRATE#Rogan2PWhite" />
  </g>
</svg>
