<?xml version="1.0" encoding="UTF-8" standalone="no"?>
<svg
   sodipodi:docname="cumuli.svg"
   inkscape:version="1.2.2 (b0a8486541, 2022-12-01)"
   id="svg55291"
   version="1.1"
   viewBox="0 0 25.400001 128.5007"
   height="128.5007mm"
   width="25.4mm"
   xmlns:inkscape="http://www.inkscape.org/namespaces/inkscape"
   xmlns:sodipodi="http://sodipodi.sourceforge.net/DTD/sodipodi-0.dtd"
   xmlns="http://www.w3.org/2000/svg"
   xmlns:svg="http://www.w3.org/2000/svg"
   xmlns:rdf="http://www.w3.org/1999/02/22-rdf-syntax-ns#"
   xmlns:cc="http://creativecommons.org/ns#"
   xmlns:dc="http://purl.org/dc/elements/1.1/">
  <defs
     id="defs55285" />
  <sodipodi:namedview
     inkscape:document-rotation="0"
     inkscape:window-maximized="1"
     inkscape:window-y="18"
     inkscape:window-x="0"
     inkscape:window-height="761"
     inkscape:window-width="1276"
     inkscape:snap-nodes="false"
     inkscape:snap-bbox-midpoints="true"
     inkscape:snap-bbox="true"
     fit-margin-bottom="0"
     fit-margin-right="0"
     fit-margin-left="0"
     fit-margin-top="0"
     showgrid="false"
     inkscape:current-layer="g949"
     inkscape:document-units="mm"
     inkscape:cy="164.04877"
     inkscape:cx="-45.96194"
     inkscape:zoom="1.4142136"
     inkscape:pageshadow="2"
     inkscape:pageopacity="0.0"
     borderopacity="1.0"
     bordercolor="#666666"
     pagecolor="#ffffff"
     id="base"
     inkscape:showpageshadow="2"
     inkscape:pagecheckerboard="0"
     inkscape:deskcolor="#d1d1d1" />
  <metadata
     id="metadata55288">
    <rdf:RDF>
      <cc:Work
         rdf:about="">
        <dc:format>image/svg+xml</dc:format>
        <dc:type
           rdf:resource="http://purl.org/dc/dcmitype/StillImage" />
        <dc:title />
      </cc:Work>
    </rdf:RDF>
  </metadata>
  <g
     style="display:inline"
     transform="translate(-8.01071,-5.675522)"
     id="layer1"
     inkscape:groupmode="layer"
     inkscape:label="graphics"
     sodipodi:insensitive="true">
    <rect
       style="fill:#1a1a1a;stroke:none;stroke-width:0.265;stroke-linecap:round;stroke-miterlimit:4;stroke-dasharray:none"
       id="rect73"
       width="25.4"
       height="128.5"
       x="8.0107098"
       y="5.6755219"
       inkscape:label="background" />
    <rect
       style="display:inline;fill:#e4e4e4;fill-opacity:1;stroke:none;stroke-width:0.999999;stroke-miterlimit:4;stroke-dasharray:none"
       id="rect1684"
       width="13"
       height="15"
       x="9.9773798"
       y="106.87552"
       rx="2"
       ry="2"
       inkscape:label="outline" />
    <path
       style="display:inline;fill:#e4e4e4;fill-opacity:1;stroke:#e4e4e4;stroke-width:0.264583px;stroke-linecap:butt;stroke-linejoin:miter;stroke-opacity:1"
       d="M 12.0323,53.736523 H 29.369044"
       id="path385"
       inkscape:label="hi-separator" />
    <path
       style="display:inline;fill:#e4e4e4;fill-opacity:1;stroke:#e4e4e4;stroke-width:0.264583px;stroke-linecap:butt;stroke-linejoin:miter;stroke-opacity:1"
       d="M 12.0323,72.070279 H 29.369044"
       id="path1409"
       inkscape:label="low-separator" />
  </g>
  <g
     style="display:inline"
     inkscape:label="logo"
     id="layer2"
     inkscape:groupmode="layer"
     sodipodi:insensitive="true">
    <g
       style="display:inline"
       id="g2756"
       transform="rotate(180,22.142544,137.90457)">
      <rect
         ry="1.2"
         rx="1.1818184"
         y="150.05914"
         x="25.335091"
         height="5.5"
         width="12.5"
         id="rect3959-3"
         style="display:inline;fill:none;stroke:#ffd500;stroke-width:0.5;stroke-miterlimit:4;stroke-dasharray:none;stroke-opacity:1" />
      <rect
         style="fill:#ffd500;fill-opacity:1;stroke:none;stroke-width:0;stroke-linecap:round;stroke-miterlimit:4;stroke-dasharray:none;stroke-opacity:1"
         id="rect2659"
         width="0.25"
         height="4.5"
         x="31.460091"
         y="150.55914" />
      <circle
         cy="154.16956"
         cx="29.522081"
         id="circle2671"
         style="fill:#ffd500;fill-opacity:1;stroke:none;stroke-width:0;stroke-linecap:round;stroke-miterlimit:4;stroke-dasharray:none;stroke-opacity:1"
         r="0.625" />
      <circle
         r="0.625"
         style="fill:#ffd500;fill-opacity:1;stroke:none;stroke-width:0;stroke-linecap:round;stroke-miterlimit:4;stroke-dasharray:none;stroke-opacity:1"
         id="circle2683"
         cx="27.405416"
         cy="151.52373" />
      <circle
         r="0.625"
         style="fill:#ffd500;fill-opacity:1;stroke:none;stroke-width:0;stroke-linecap:round;stroke-miterlimit:4;stroke-dasharray:none;stroke-opacity:1"
         id="circle2685"
         cx="35.650894"
         cy="154.16956" />
      <circle
         cy="151.52373"
         cx="33.534229"
         id="circle2687"
         style="fill:#ffd500;fill-opacity:1;stroke:none;stroke-width:0;stroke-linecap:round;stroke-miterlimit:4;stroke-dasharray:none;stroke-opacity:1"
         r="0.625" />
    </g>
  </g>
  <g
     style="display:none"
     inkscape:label="text"
     id="layer3"
     inkscape:groupmode="layer"
     sodipodi:insensitive="true">
    <text
       id="text1545"
       y="10.775675"
       x="3.8220158"
       style="font-size:4.93889px;line-height:1.25;font-family:sans-serif;letter-spacing:0px;word-spacing:0px;fill:#f9f9f9;stroke-width:0.264583"
       xml:space="preserve"
       inkscape:label="cumuli-text"><tspan
         style="font-style:normal;font-variant:normal;font-weight:normal;font-stretch:normal;font-size:4.93889px;font-family:OCR-A;-inkscape-font-specification:OCR-A;fill:#f9f9f9;stroke-width:0.264583"
         y="10.775675"
         x="3.8220158"
         id="tspan1543"
         sodipodi:role="line">cumuli</tspan></text>
    <text
       xml:space="preserve"
       style="font-style:normal;font-variant:normal;font-weight:normal;font-stretch:normal;font-size:7.05556px;line-height:1.25;font-family:OCR-A;-inkscape-font-specification:OCR-A;letter-spacing:0px;word-spacing:0px;display:inline;fill:#1a1a1a;fill-opacity:1;stroke:none;stroke-width:0.264583"
       x="5.2541227"
       y="113.78577"
       id="text282"
       inkscape:label="out-text"><tspan
         sodipodi:role="line"
         id="tspan280"
         x="5.2541227"
         y="113.78577"
         style="font-style:normal;font-variant:normal;font-weight:normal;font-stretch:normal;font-size:3.52777px;font-family:OCR-A;-inkscape-font-specification:OCR-A;fill:#1a1a1a;fill-opacity:1;stroke-width:0.264583">out</tspan></text>
    <text
       id="text1359"
       y="80.562454"
       x="8.4237394"
       style="font-style:normal;font-weight:normal;font-size:3.52778px;line-height:1.25;font-family:sans-serif;letter-spacing:0px;word-spacing:0px;display:inline;fill:#e5e5e5;fill-opacity:1;stroke:none;stroke-width:0.264583"
       xml:space="preserve"
       inkscape:label="down-text"><tspan
         style="font-style:normal;font-variant:normal;font-weight:normal;font-stretch:normal;font-size:3.52778px;font-family:OCR-A;-inkscape-font-specification:OCR-A;fill:#e5e5e5;fill-opacity:1;stroke-width:0.264583"
         y="80.562454"
         x="8.4237394"
         id="tspan1357"
         sodipodi:role="line">down</tspan></text>
    <text
       id="text1241"
       y="35.583244"
       x="10.54608"
       style="font-style:normal;font-weight:normal;font-size:3.52778px;line-height:1.25;font-family:sans-serif;letter-spacing:0px;word-spacing:0px;display:inline;fill:#e5e5e5;fill-opacity:1;stroke:none;stroke-width:0.264583"
       xml:space="preserve"
       inkscape:label="up-text"><tspan
         style="font-style:normal;font-variant:normal;font-weight:normal;font-stretch:normal;font-size:3.52778px;font-family:OCR-A;-inkscape-font-specification:OCR-A;fill:#e5e5e5;fill-opacity:1;stroke-width:0.264583"
         y="35.583244"
         x="10.54608"
         id="tspan1239"
         sodipodi:role="line">up</tspan></text>
    <text
       id="text227"
       y="51.987427"
       x="9.4857235"
       style="font-style:normal;font-weight:normal;font-size:3.52778px;line-height:1.25;font-family:sans-serif;letter-spacing:0px;word-spacing:0px;display:inline;fill:#e5e5e5;fill-opacity:1;stroke:none;stroke-width:0.264583"
       xml:space="preserve"
       inkscape:label="rst-text"><tspan
         style="font-style:normal;font-variant:normal;font-weight:normal;font-stretch:normal;font-size:3.52778px;font-family:OCR-A;-inkscape-font-specification:OCR-A;fill:#e5e5e5;fill-opacity:1;stroke-width:0.264583"
         y="51.987427"
         x="9.4857235"
         id="tspan225"
         sodipodi:role="line">rst</tspan></text>
    <text
       id="text4384"
       y="114.86621"
       x="16.013641"
       style="font-style:normal;font-weight:normal;font-size:2.82222px;line-height:1.25;font-family:sans-serif;letter-spacing:0px;word-spacing:0px;display:inline;fill:#e5e5e5;fill-opacity:1;stroke:none;stroke-width:0.264583"
       xml:space="preserve"
       inkscape:label="mono-text"><tspan
         style="font-style:normal;font-variant:normal;font-weight:normal;font-stretch:normal;font-size:2.82222px;font-family:OCR-A;-inkscape-font-specification:OCR-A;fill:#e5e5e5;fill-opacity:1;stroke-width:0.264583"
         y="114.86621"
         x="16.013641"
         id="tspan4382"
         sodipodi:role="line">0-10V</tspan></text>
    <text
       id="text4490"
       y="104.28288"
       x="17.83275"
       style="font-style:normal;font-weight:normal;font-size:2.82222px;line-height:1.25;font-family:sans-serif;letter-spacing:0px;word-spacing:0px;display:inline;fill:#e5e5e5;fill-opacity:1;stroke:none;stroke-width:0.264583"
       xml:space="preserve"
       inkscape:label="bipolar-text"><tspan
         style="font-style:normal;font-variant:normal;font-weight:normal;font-stretch:normal;font-size:2.82222px;font-family:OCR-A;-inkscape-font-specification:OCR-A;fill:#e5e5e5;fill-opacity:1;stroke-width:0.264583"
         y="104.28288"
         x="17.83275"
         id="tspan4488"
         sodipodi:role="line">±5V</tspan></text>
  </g>
  <g
     style="display:inline"
     inkscape:label="text as path"
     id="g949"
     inkscape:groupmode="layer"
     sodipodi:insensitive="true">
    <g
       aria-label="cumuli"
       id="text923"
       style="font-size:4.93889px;line-height:1.25;letter-spacing:0px;word-spacing:0px;fill:#f9f9f9;stroke-width:0.264583"
       inkscape:label="cumuli-text">
      <path
         d="M 6.1636477,10.775675 H 5.297895 q -0.2290989,0 -0.3906739,-0.13746 L 4.5141356,10.295773 Q 4.3260333,10.139021 4.3260333,9.8713371 V 9.3432038 Q 4.3163871,9.0851661 4.5382513,8.8946523 L 4.8927517,8.5883832 Q 5.063973,8.4485123 5.2593099,8.4485123 h 0.9091609 q 0.084405,0 0.1422825,0.060289 0.060289,0.057878 0.060289,0.1422825 0,0.086816 -0.060289,0.144694 -0.057878,0.057878 -0.1422825,0.057878 H 5.297895 q -0.081993,0 -0.1567519,0.065112 L 4.8155815,9.1960982 q -0.079582,0.067524 -0.079582,0.1808675 v 0.4943714 q 0,0.079582 0.062701,0.1350479 l 0.356912,0.303857 q 0.067524,0.06029 0.178456,0.06029 h 0.8295792 q 0.081993,0 0.1422825,0.06029 0.060289,0.05788 0.060289,0.142282 0,0.08441 -0.060289,0.144694 -0.057878,0.05788 -0.1422825,0.05788 z"
         style="font-family:OCR-A;-inkscape-font-specification:OCR-A"
         id="path951" />
      <path
         d="M 8.2665343,10.365708 8.9490079,9.9316262 V 8.651084 q 0,-0.084405 0.057878,-0.1446941 0.060289,-0.062701 0.1446941,-0.062701 0.084405,0 0.1422825,0.062701 0.060289,0.060289 0.060289,0.1446941 v 1.922019 q 0,0.08199 -0.060289,0.142283 -0.060289,0.06029 -0.1422825,0.06029 -0.081993,0 -0.1422825,-0.06029 -0.060289,-0.06029 -0.060289,-0.142283 V 10.41394 L 8.5969191,10.643039 Q 8.3895243,10.775675 8.1773064,10.775675 H 7.9892041 q -0.2483914,0 -0.4268474,-0.173633 -0.178456,-0.173633 -0.1905138,-0.424436 L 7.3139652,8.651084 q -0.00482,-0.079582 0.055466,-0.1398709 0.062701,-0.062701 0.1471056,-0.062701 0.081993,0 0.1398709,0.060289 0.060289,0.060289 0.062701,0.1422825 l 0.053054,1.497583 q 0.00723,0.217041 0.2483915,0.217041 z"
         style="font-family:OCR-A;-inkscape-font-specification:OCR-A"
         id="path953" />
      <path
         d="M 10.236785,10.573103 V 8.651084 q 0,-0.084405 0.05788,-0.1422825 0.06029,-0.060289 0.144694,-0.060289 0.156752,0 0.197749,0.1543403 0.16881,-0.1591634 0.376205,-0.1591634 0.243568,0 0.40032,0.2073948 0.192925,-0.2073948 0.424436,-0.2073948 0.188102,0 0.325561,0.1350477 0.139871,0.1326362 0.149517,0.340031 l 0.05788,1.6543351 q 0,0.08199 -0.06029,0.142283 -0.06029,0.06029 -0.142283,0.06029 -0.08441,0 -0.144694,-0.06029 -0.06029,-0.06029 -0.0627,-0.142283 l -0.04823,-1.5892227 q -0.0048,-0.1302247 -0.07958,-0.1302247 -0.041,0 -0.0844,0.036174 l -0.241157,0.2025717 v 1.4807022 q 0,0.08199 -0.06029,0.139871 -0.05788,0.05788 -0.142283,0.05788 -0.08199,0 -0.142282,-0.05788 -0.06029,-0.06029 -0.06029,-0.144694 V 8.957353 q 0,-0.1036974 -0.08923,-0.1036974 -0.04341,0 -0.07958,0.03135 l -0.2918,0.2459799 v 1.4421171 q 0,0.08199 -0.05788,0.142283 -0.05788,0.06029 -0.139871,0.06029 -0.0844,0 -0.147106,-0.06029 -0.06029,-0.06029 -0.06029,-0.142283 z"
         style="font-family:OCR-A;-inkscape-font-specification:OCR-A"
         id="path955" />
      <path
         d="M 14.232752,10.365708 14.915226,9.9316262 V 8.651084 q 0,-0.084405 0.05788,-0.1446941 0.06029,-0.062701 0.144694,-0.062701 0.08441,0 0.142283,0.062701 0.06029,0.060289 0.06029,0.1446941 v 1.922019 q 0,0.08199 -0.06029,0.142283 -0.06029,0.06029 -0.142283,0.06029 -0.08199,0 -0.142282,-0.06029 -0.06029,-0.06029 -0.06029,-0.142283 V 10.41394 l -0.352089,0.229099 q -0.207395,0.132636 -0.419613,0.132636 h -0.188102 q -0.248392,0 -0.426848,-0.173633 -0.178456,-0.173633 -0.190513,-0.424436 l -0.05788,-1.526522 q -0.0048,-0.079582 0.05547,-0.1398709 0.0627,-0.062701 0.147106,-0.062701 0.08199,0 0.139871,0.060289 0.06029,0.060289 0.0627,0.1422825 l 0.05306,1.497583 q 0.0072,0.217041 0.248391,0.217041 z"
         style="font-family:OCR-A;-inkscape-font-specification:OCR-A"
         id="path957" />
      <path
         d="m 17.888688,10.775675 h -1.225076 q -0.08441,0 -0.144694,-0.06029 -0.05788,-0.0627 -0.05788,-0.147106 0,-0.08199 0.05788,-0.142282 0.06029,-0.06029 0.144694,-0.06029 h 0.405143 V 7.9758451 h -0.409966 q -0.08441,0 -0.144694,-0.057878 -0.05788,-0.060289 -0.05788,-0.1446941 0,-0.084405 0.05788,-0.1422824 0.06029,-0.060289 0.144694,-0.060289 h 0.617361 q 0.08199,0 0.142282,0.060289 0.06029,0.060289 0.06029,0.1422824 v 2.5924346 h 0.409967 q 0.08199,0 0.142282,0.06029 0.06029,0.06029 0.06029,0.142282 0,0.08441 -0.06029,0.147106 -0.05788,0.06029 -0.142282,0.06029 z"
         style="font-family:OCR-A;-inkscape-font-specification:OCR-A"
         id="path959" />
      <path
         d="m 20.04704,7.3922458 h 0.212218 q 0.08441,0 0.142283,0.060289 0.06029,0.057878 0.06029,0.1422825 v 0.1736328 q 0,0.084405 -0.06029,0.1471056 -0.05788,0.060289 -0.142283,0.060289 h -0.217041 q -0.08682,0 -0.147105,-0.062701 -0.05788,-0.062701 -0.05547,-0.1398709 l 0.0048,-0.1784559 q 0,-0.084405 0.05788,-0.1422825 0.06029,-0.060289 0.144694,-0.060289 z m 0.824756,3.3786062 h -1.234722 q -0.0844,0 -0.144694,-0.05788 -0.05788,-0.06029 -0.05788,-0.144694 0,-0.08199 0.05788,-0.142282 0.06029,-0.06029 0.144694,-0.06029 h 0.41479 V 8.8536556 h -0.409967 q -0.08441,0 -0.144694,-0.060289 -0.05788,-0.060289 -0.05788,-0.1422824 0,-0.084405 0.05788,-0.1446941 0.06029,-0.062701 0.144694,-0.062701 h 0.617361 q 0.08441,0 0.142283,0.062701 0.06029,0.060289 0.06029,0.1446941 v 1.714624 h 0.405143 q 0.0844,0 0.144694,0.06029 0.0627,0.05788 0.0627,0.142282 0,0.08441 -0.06029,0.144694 -0.06029,0.05788 -0.142283,0.05788 z"
         style="font-family:OCR-A;-inkscape-font-specification:OCR-A"
         id="path961" />
    </g>
    <g
       aria-label="out"
       id="text927"
       style="font-size:7.05556px;line-height:1.25;font-family:OCR-A;-inkscape-font-specification:OCR-A;letter-spacing:0px;word-spacing:0px;display:inline;fill:#1a1a1a;stroke-width:0.264583"
       inkscape:label="out-text">
      <path
         d="m 7.0679615,112.64544 v 0.61151 q 0,0.19464 -0.1843122,0.36001 -0.1825896,0.16536 -0.3772371,0.16536 H 6.167071 q -0.1980925,0 -0.3789596,-0.16709 -0.1808672,-0.1688 -0.1808672,-0.35828 v -0.61151 q 0,-0.18948 0.1756995,-0.35656 0.1774221,-0.16881 0.3841273,-0.16881 h 0.3393412 q 0.1946475,-0.003 0.3772371,0.16192 0.1843122,0.16536 0.1843122,0.36345 z m -1.1678848,0.0121 v 0.58567 q 0,0.0792 0.056844,0.12574 l 0.1085202,0.093 q 0.036174,0.031 0.1016301,0.031 h 0.3358961 q 0.074069,0 0.1343584,-0.0534 l 0.08785,-0.0775 q 0.053399,-0.0413 0.053399,-0.11541 v -0.58566 q 0,-0.0861 -0.053399,-0.12747 l -0.1016301,-0.081 q -0.051676,-0.0431 -0.1205781,-0.0431 H 6.2032445 q -0.098185,0 -0.1515839,0.0465 l -0.098185,0.0844 q -0.053399,0.0448 -0.053399,0.11713 z"
         style="font-size:3.52777px"
         id="path964" />
      <path
         d="m 8.4287713,113.49293 0.4874799,-0.31005 v -0.91467 q 0,-0.0603 0.041341,-0.10336 0.043064,-0.0448 0.1033526,-0.0448 0.060289,0 0.1016301,0.0448 0.043064,0.0431 0.043064,0.10336 v 1.37286 q 0,0.0586 -0.043064,0.10163 -0.043064,0.0431 -0.1016301,0.0431 -0.058567,0 -0.1016301,-0.0431 -0.043064,-0.0431 -0.043064,-0.10163 v -0.11368 l -0.2514914,0.16364 q -0.1481388,0.0947 -0.2997227,0.0947 H 8.2306787 q -0.177422,0 -0.3048903,-0.12403 -0.1274682,-0.12402 -0.1360809,-0.30316 l -0.041341,-1.09037 q -0.00345,-0.0568 0.039618,-0.0999 0.044786,-0.0448 0.1050752,-0.0448 0.058567,0 0.099908,0.0431 0.043064,0.0431 0.044786,0.10163 l 0.037896,1.0697 q 0.00517,0.15502 0.177422,0.15502 z"
         style="font-size:3.52777px"
         id="path966" />
      <path
         d="m 10.888564,113.78577 h -0.289387 q -0.179145,0 -0.308336,-0.12747 -0.12919,-0.12747 -0.12919,-0.30661 v -0.93879 h -0.148139 q -0.060289,0 -0.1033529,-0.0413 -0.041341,-0.0413 -0.041341,-0.10335 0,-0.0603 0.041341,-0.10163 0.043064,-0.0431 0.1033529,-0.0431 h 0.151584 v -0.35484 q 0,-0.0603 0.04134,-0.10163 0.04306,-0.0431 0.103352,-0.0431 0.05684,0 0.09991,0.0431 0.04479,0.0431 0.04479,0.10163 v 0.35484 h 0.58222 q 0.05857,0 0.10163,0.0431 0.04306,0.0431 0.04306,0.10163 0,0.0603 -0.04306,0.10335 -0.04306,0.0413 -0.10163,0.0413 h -0.585665 v 0.93879 q 0,0.0586 0.04306,0.10163 0.04479,0.0431 0.105076,0.0431 h 0.282497 q 0.11541,0 0.153306,-0.12402 0.0379,-0.12575 0.146417,-0.12575 0.06373,0 0.103352,0.0431 0.04134,0.0413 0.04134,0.10508 0,0.13091 -0.124023,0.26183 -0.122301,0.12919 -0.313503,0.12919 z"
         style="font-size:3.52777px"
         id="path968" />
    </g>
    <g
       aria-label="down"
       id="text931"
       style="font-size:3.52778px;line-height:1.25;letter-spacing:0px;word-spacing:0px;display:inline;fill:#e5e5e5;stroke-width:0.264583"
       inkscape:label="down-text">
      <path
         d="m 9.9447501,79.101733 v -0.683852 q 0,-0.06029 0.041341,-0.10163 0.041341,-0.04306 0.099908,-0.04306 0.06029,0 0.103353,0.04306 0.04479,0.04134 0.04479,0.10163 v 1.999879 q 0,0.06029 -0.04306,0.103353 -0.04306,0.04134 -0.101631,0.04134 -0.06201,0 -0.1033528,-0.04134 -0.041341,-0.04306 -0.041341,-0.103353 v -0.06373 Q 9.7328766,80.562454 9.5485638,80.562454 H 9.3022393 q -0.1481392,0 -0.2962784,-0.127468 L 8.8853825,80.333355 q -0.041341,-0.03962 -0.079237,-0.132636 -0.036174,-0.09302 -0.036174,-0.173977 V 79.43763 q 0,-0.09819 0.041341,-0.189481 0.041341,-0.09302 0.096463,-0.139526 l 0.1188558,-0.10163 Q 9.1541001,78.896749 9.326355,78.896749 h 0.2084284 q 0.1705324,0 0.3100588,0.120579 z m -0.4203019,0.08785 H 9.3229099 q -0.063734,0 -0.1154107,0.04651 l -0.093018,0.08096 q -0.048231,0.04306 -0.048231,0.110244 v 0.613227 q 0,0.06029 0.056844,0.10852 l 0.09474,0.08096 q 0.044786,0.03962 0.09474,0.03962 h 0.2359892 q 0.046509,0 0.1102432,-0.0534 l 0.229099,-0.18948 q 0.056844,-0.04995 0.056844,-0.124024 v -0.313504 q 0,-0.105075 -0.060289,-0.155029 L 9.6484717,79.232647 q -0.046509,-0.04306 -0.1240235,-0.04306 z"
         style="font-family:OCR-A;-inkscape-font-specification:OCR-A"
         id="path971" />
      <path
         d="m 12.368376,79.422127 v 0.611505 q 0,0.194648 -0.184312,0.360012 -0.182591,0.165365 -0.377239,0.165365 h -0.339342 q -0.198093,0 -0.378961,-0.167087 -0.180867,-0.16881 -0.180867,-0.35829 v -0.611505 q 0,-0.18948 0.1757,-0.356568 0.177422,-0.16881 0.384128,-0.16881 h 0.339342 q 0.194648,-0.0034 0.377239,0.16192 0.184312,0.165365 0.184312,0.363458 z m -1.167888,0.01206 v 0.585666 q 0,0.07924 0.05684,0.125746 l 0.108521,0.09302 q 0.03617,0.03101 0.10163,0.03101 h 0.335897 q 0.07407,0 0.134359,-0.0534 l 0.08785,-0.07752 q 0.0534,-0.04134 0.0534,-0.115411 V 79.43763 q 0,-0.08613 -0.0534,-0.127469 l -0.10163,-0.08096 q -0.05168,-0.04306 -0.120579,-0.04306 h -0.299723 q -0.09819,0 -0.151585,0.04651 l -0.09818,0.0844 q -0.0534,0.04479 -0.0534,0.117134 z"
         style="font-family:OCR-A;-inkscape-font-specification:OCR-A"
         id="path973" />
      <path
         d="m 13.915225,79.542705 v 0.346233 l 0.192926,0.330729 0.09991,-0.330729 0.03101,-0.844049 q 0.0034,-0.05857 0.04479,-0.101631 0.04306,-0.04306 0.09991,-0.04306 0.06029,0 0.103353,0.04306 0.04306,0.04134 0.04134,0.101631 l -0.03101,0.900893 -0.15503,0.511597 q -0.03273,0.105075 -0.134359,0.105075 h -0.155029 q -0.08096,0 -0.127469,-0.08096 l -0.158474,-0.272162 -0.158475,0.268717 q -0.0534,0.08441 -0.127468,0.08441 h -0.151585 q -0.04995,0 -0.0913,-0.02928 -0.03962,-0.02928 -0.04995,-0.0689 l -0.151584,-0.530545 -0.03273,-0.888835 q -0.0017,-0.05684 0.04306,-0.09991 0.04479,-0.04479 0.105076,-0.04479 0.05512,0 0.09646,0.04134 0.04306,0.03962 0.04479,0.103353 l 0.03273,0.847494 0.09474,0.323839 0.201538,-0.33762 v -0.335897 q 0,-0.06029 0.04306,-0.10163 0.04306,-0.04306 0.105076,-0.04306 0.05857,0 0.10163,0.04306 0.04306,0.04134 0.04306,0.10163 z"
         style="font-family:OCR-A;-inkscape-font-specification:OCR-A"
         id="path975" />
      <path
         d="m 15.856538,79.236092 -0.394464,0.256659 v 0.925009 q 0,0.05857 -0.04306,0.101631 -0.04306,0.04306 -0.10163,0.04306 -0.05857,0 -0.10163,-0.04306 -0.04306,-0.04306 -0.04306,-0.101631 v -1.372871 q 0,-0.06029 0.04134,-0.103353 0.04306,-0.04479 0.103353,-0.04479 0.05857,0 0.10163,0.04479 0.04306,0.04306 0.04306,0.103353 v 0.09646 l 0.26355,-0.160197 q 0.132636,-0.08441 0.299724,-0.08441 h 0.134358 q 0.172255,0 0.298001,0.122301 0.125746,0.122301 0.132637,0.301446 l 0.03962,1.097264 q 0.0017,0.05857 -0.04134,0.101631 -0.04306,0.04306 -0.103353,0.04306 -0.05684,0 -0.09991,-0.0379 -0.04306,-0.03962 -0.04479,-0.106798 l -0.04306,-1.080038 q -0.0052,-0.151584 -0.158474,-0.151584 h -0.141249 q -0.06546,0 -0.141249,0.04995 z"
         style="font-family:OCR-A;-inkscape-font-specification:OCR-A"
         id="path977" />
    </g>
    <g
       aria-label="up"
       id="text935"
       style="font-size:3.52778px;line-height:1.25;letter-spacing:0px;word-spacing:0px;display:inline;fill:#e5e5e5;stroke-width:0.264583"
       inkscape:label="up-text">
      <path
         d="m 11.589944,35.290411 0.487482,-0.310059 v -0.914673 q 0,-0.06029 0.04134,-0.103353 0.04306,-0.04479 0.103353,-0.04479 0.06029,0 0.10163,0.04479 0.04306,0.04306 0.04306,0.103353 v 1.372871 q 0,0.05857 -0.04306,0.101631 -0.04306,0.04306 -0.10163,0.04306 -0.05857,0 -0.101631,-0.04306 -0.04306,-0.04306 -0.04306,-0.101631 v -0.113688 l -0.251493,0.163642 q -0.148139,0.09474 -0.299723,0.09474 h -0.134359 q -0.177422,0 -0.304891,-0.124023 -0.127469,-0.124024 -0.136081,-0.303169 l -0.04134,-1.090373 q -0.0034,-0.05684 0.03962,-0.09991 0.04479,-0.04479 0.105076,-0.04479 0.05857,0 0.09991,0.04306 0.04306,0.04306 0.04479,0.101631 l 0.0379,1.069703 q 0.0052,0.155029 0.177422,0.155029 z"
         style="font-family:OCR-A;-inkscape-font-specification:OCR-A"
         id="path980" />
      <path
         d="m 13.326273,35.41788 v 0.640788 q 0,0.06201 -0.04306,0.105075 -0.04134,0.04306 -0.101631,0.04306 -0.06029,0 -0.105075,-0.04306 -0.04306,-0.04306 -0.04306,-0.105075 v -2.063614 q 0,-0.05857 0.04306,-0.10163 0.04306,-0.04306 0.105075,-0.04306 0.05857,0 0.101631,0.04306 0.04306,0.04306 0.04306,0.10163 v 0.09302 q 0.210151,-0.234267 0.415135,-0.234267 h 0.06718 q 0.153307,0 0.282498,0.113688 l 0.241157,0.208429 q 0.158474,0.137804 0.158474,0.349677 v 0.451308 q 0,0.213596 -0.170532,0.360013 l -0.235989,0.203261 q -0.117133,0.106798 -0.296278,0.106798 h -0.06373 q -0.16881,0 -0.285943,-0.117134 z m 0.408244,-0.06373 h 0.07407 q 0.0534,0 0.113688,-0.0534 l 0.225654,-0.198093 q 0.05684,-0.04479 0.05684,-0.122301 v -0.466811 q 0,-0.0689 -0.06373,-0.1223 L 13.89816,34.182812 q -0.04134,-0.03617 -0.08957,-0.03617 h -0.0844 q -0.04823,0 -0.125746,0.07924 l -0.215318,0.213596 q -0.05684,0.05684 -0.05684,0.127468 v 0.370349 q 0,0.06718 0.06373,0.130913 l 0.208428,0.208429 q 0.07752,0.07751 0.136081,0.07751 z"
         style="font-family:OCR-A;-inkscape-font-specification:OCR-A"
         id="path982" />
    </g>
    <g
       aria-label="rst"
       id="text939"
       style="font-size:3.52778px;line-height:1.25;letter-spacing:0px;word-spacing:0px;display:inline;fill:#e5e5e5;stroke-width:0.264583"
       inkscape:label="rst-text">
      <path
         d="m 9.8422911,51.842733 v -1.372872 q 0,-0.06029 0.041341,-0.103353 0.043064,-0.04479 0.1033529,-0.04479 0.060289,0 0.1016308,0.04306 0.04306,0.04306 0.04306,0.105075 v 0.180868 l 0.23599,-0.201538 q 0.146416,-0.124024 0.285943,-0.124024 h 0.211873 q 0.179145,0 0.306614,0.127469 0.127468,0.127468 0.127468,0.306613 v 0.07752 q 0,0.06201 -0.04306,0.105076 -0.04134,0.04306 -0.101631,0.04306 -0.06029,0 -0.103353,-0.04134 -0.04134,-0.04306 -0.04134,-0.103353 v -0.08096 q 0,-0.06029 -0.04306,-0.10163 -0.04134,-0.04306 -0.101631,-0.04306 h -0.187758 q -0.06029,0 -0.134359,0.06373 l -0.411689,0.356567 v 0.807876 q 0,0.06029 -0.04306,0.103353 -0.04306,0.04134 -0.1016308,0.04134 -0.060289,0 -0.1033529,-0.04134 -0.041341,-0.04306 -0.041341,-0.103353 z"
         style="font-family:OCR-A;-inkscape-font-specification:OCR-A"
         id="path985" />
      <path
         d="m 12.377883,50.325167 h 0.663181 q 0.15503,0 0.273886,0.09302 0.118855,0.0913 0.118855,0.179145 0,0.06201 -0.04479,0.10163 -0.04306,0.03962 -0.09646,0.03962 -0.0689,0 -0.125746,-0.06201 -0.05684,-0.06201 -0.118856,-0.06201 h -0.654568 q -0.09646,0 -0.09646,0.08096 0,0.05684 0.06373,0.08613 l 0.76998,0.341064 q 0.117133,0.05168 0.191203,0.167087 0.07579,0.113689 0.07579,0.253215 0,0.186035 -0.132636,0.315227 -0.130914,0.129191 -0.298001,0.129191 h -0.585667 q -0.151584,0 -0.282498,-0.09129 -0.129191,-0.0913 -0.129191,-0.177423 0,-0.05684 0.04134,-0.09991 0.04306,-0.04479 0.110243,-0.04479 0.05512,0 0.117133,0.06201 0.06374,0.06201 0.182591,0.06201 h 0.539157 q 0.06374,0 0.106798,-0.04823 0.04306,-0.04995 0.04306,-0.113688 0,-0.09819 -0.09646,-0.141249 l -0.776869,-0.349677 q -0.111966,-0.04995 -0.172255,-0.144695 -0.06029,-0.09474 -0.06029,-0.192925 0,-0.155029 0.106798,-0.268718 0.10852,-0.113688 0.266995,-0.113688 z"
         style="font-family:OCR-A;-inkscape-font-specification:OCR-A"
         id="path987" />
      <path
         d="m 15.120181,51.987427 h -0.289389 q -0.179145,0 -0.308336,-0.127469 -0.129191,-0.127468 -0.129191,-0.306614 v -0.938789 h -0.148139 q -0.06029,0 -0.103353,-0.04134 -0.04134,-0.04134 -0.04134,-0.103353 0,-0.06029 0.04134,-0.10163 0.04306,-0.04306 0.103353,-0.04306 h 0.151584 v -0.354845 q 0,-0.06029 0.04134,-0.10163 0.04306,-0.04306 0.103353,-0.04306 0.05684,0 0.09991,0.04306 0.04479,0.04306 0.04479,0.10163 v 0.354845 h 0.582222 q 0.05857,0 0.10163,0.04306 0.04306,0.04306 0.04306,0.10163 0,0.06029 -0.04306,0.103353 -0.04306,0.04134 -0.10163,0.04134 h -0.585667 v 0.938789 q 0,0.05857 0.04306,0.101631 0.04479,0.04306 0.105075,0.04306 h 0.282498 q 0.115411,0 0.153307,-0.124024 0.0379,-0.125746 0.146417,-0.125746 0.06373,0 0.103353,0.04306 0.04134,0.04134 0.04134,0.105075 0,0.130914 -0.124023,0.261828 -0.122301,0.129191 -0.313504,0.129191 z"
         style="font-family:OCR-A;-inkscape-font-specification:OCR-A"
         id="path989" />
    </g>
    <g
       aria-label="0-10V"
       id="text943"
       style="font-size:2.82222px;line-height:1.25;letter-spacing:0px;word-spacing:0px;display:inline;fill:#e5e5e5;stroke-width:0.264583"
       inkscape:label="mono-text">
      <path
         d="m 16.293383,114.64021 v -1.38492 q 0,-0.091 0.06615,-0.1571 0.06615,-0.0662 0.157096,-0.0662 h 0.722091 q 0.08957,0 0.154341,0.0662 0.06615,0.0661 0.06615,0.1571 v 1.38492 q 0,0.0923 -0.06615,0.15848 -0.06477,0.0648 -0.157097,0.0648 h -0.719335 q -0.09371,0 -0.158474,-0.0648 -0.06477,-0.0661 -0.06477,-0.15848 z m 0.937065,-0.008 v -1.36563 h -0.705555 v 1.36563 z"
         style="font-family:OCR-A;-inkscape-font-specification:OCR-A"
         id="path992" />
      <path
         d="m 19.169346,113.94293 v 0.10197 q 0,0.0482 -0.03445,0.0841 -0.03307,0.0344 -0.0813,0.0344 h -0.934309 q -0.04823,0 -0.08268,-0.0344 -0.03307,-0.0358 -0.03307,-0.0841 v -0.10197 q 0,-0.0482 0.03307,-0.0813 0.03445,-0.0345 0.08268,-0.0345 h 0.934309 q 0.0441,0 0.07993,0.0331 0.03583,0.0317 0.03583,0.0827 z"
         style="font-family:OCR-A;-inkscape-font-specification:OCR-A"
         id="path994" />
      <path
         d="m 19.815646,114.63194 h 0.355533 v -1.36563 h -0.350021 q -0.04823,0 -0.08268,-0.0331 -0.03307,-0.0344 -0.03307,-0.0827 0,-0.0482 0.03307,-0.0813 0.03445,-0.0344 0.08268,-0.0344 h 0.581532 v 1.59714 h 0.23151 v -0.48231 q 0,-0.0469 0.03307,-0.0813 0.03445,-0.0345 0.08268,-0.0345 0.04823,0 0.0813,0.0345 0.03445,0.0331 0.03445,0.0813 v 0.59807 q 0,0.0482 -0.03445,0.0827 -0.03307,0.0331 -0.0813,0.0331 h -0.934309 q -0.04823,0 -0.08268,-0.0345 -0.03307,-0.0358 -0.03307,-0.0841 0,-0.0469 0.03307,-0.0799 0.03445,-0.0331 0.08268,-0.0331 z"
         style="font-family:OCR-A;-inkscape-font-specification:OCR-A"
         id="path996" />
      <path
         d="m 21.407279,114.64021 v -1.38492 q 0,-0.091 0.06615,-0.1571 0.06615,-0.0662 0.157096,-0.0662 h 0.722091 q 0.08957,0 0.15434,0.0662 0.06615,0.0661 0.06615,0.1571 v 1.38492 q 0,0.0923 -0.06615,0.15848 -0.06477,0.0648 -0.157096,0.0648 h -0.719335 q -0.09371,0 -0.158474,-0.0648 -0.06477,-0.0661 -0.06477,-0.15848 z m 0.937065,-0.008 v -1.36563 h -0.705555 v 1.36563 z"
         style="font-family:OCR-A;-inkscape-font-specification:OCR-A"
         id="path998" />
      <path
         d="m 24.288754,113.15331 v 0.42581 l -0.471288,1.20027 q -0.03583,0.0868 -0.112999,0.0868 -0.08131,0 -0.115756,-0.0868 l -0.468532,-1.20027 v -0.42581 q 0,-0.0496 0.03307,-0.0841 0.03445,-0.0344 0.08268,-0.0344 0.04823,0 0.0813,0.0344 0.03445,0.0345 0.03445,0.0841 v 0.37758 l 0.352778,0.89848 0.352777,-0.89572 v -0.38034 q 0,-0.0496 0.03307,-0.0841 0.03445,-0.0344 0.08268,-0.0344 0.04823,0 0.0813,0.0344 0.03445,0.0345 0.03445,0.0841 z"
         style="font-family:OCR-A;-inkscape-font-specification:OCR-A"
         id="path1000" />
    </g>
    <g
       aria-label="±5V"
       id="text947"
       style="font-size:2.82222px;line-height:1.25;letter-spacing:0px;word-spacing:0px;display:inline;fill:#e5e5e5;stroke-width:0.264583"
       inkscape:label="bipolar-text">
      <path
         d="m 18.738683,103.17939 h 0.561622 v 0.20038 h -0.561622 v 0.58138 h -0.2032 v -0.58138 h -0.561622 v -0.20038 h 0.561622 v -0.58419 h 0.2032 z m -0.764822,1.10349 v -0.20037 h 1.329266 v 0.20037 z"
         style="font-family:OCR-A;-inkscape-font-specification:OCR-A"
         id="path1003" />
      <path
         d="m 20.155373,104.04862 h 0.536056 v -0.56775 h -0.700043 v -1.0294 h 0.815798 q 0.04685,0 0.08131,0.0344 0.03445,0.0345 0.03445,0.0813 0,0.0482 -0.03445,0.0827 -0.03307,0.0331 -0.08131,0.0331 h -0.581531 v 0.56637 h 0.465776 q 0.09371,0 0.162609,0.0689 0.0689,0.0689 0.0689,0.16261 v 0.56775 q 0,0.0951 -0.0689,0.16398 -0.06752,0.0675 -0.162609,0.0675 h -0.536056 q -0.07166,0 -0.152962,-0.0345 l -0.175011,-0.073 q -0.07028,-0.0289 -0.07028,-0.11024 0,-0.0482 0.03169,-0.0813 0.03169,-0.0344 0.07717,-0.0344 0.03445,0 0.07993,0.0207 l 0.152962,0.0648 q 0.02756,0.0165 0.0565,0.0165 z"
         style="font-family:OCR-A;-inkscape-font-specification:OCR-A"
         id="path1005" />
      <path
         d="m 22.608279,102.56998 v 0.42582 l -0.471289,1.20027 q -0.03583,0.0868 -0.112999,0.0868 -0.0813,0 -0.115755,-0.0868 l -0.468533,-1.20027 v -0.42582 q 0,-0.0496 0.03307,-0.0841 0.03445,-0.0344 0.08268,-0.0344 0.04823,0 0.0813,0.0344 0.03445,0.0345 0.03445,0.0841 v 0.37758 l 0.352777,0.89848 0.352778,-0.89572 v -0.38034 q 0,-0.0496 0.03307,-0.0841 0.03445,-0.0344 0.08268,-0.0344 0.04823,0 0.0813,0.0344 0.03445,0.0345 0.03445,0.0841 z"
         style="font-family:OCR-A;-inkscape-font-specification:OCR-A"
         id="path1007" />
    </g>
  </g>
  <g
     inkscape:groupmode="layer"
     id="layer4"
     inkscape:label="components"
     style="display:none"
     sodipodi:insensitive="true">
    <circle
       style="display:inline;fill:#0000ff;fill-opacity:1;stroke:none;stroke-width:1;stroke-miterlimit:4;stroke-dasharray:none"
       id="circle3867"
       cx="8.46667"
       cy="106.33155"
       r="4.1775002"
       inkscape:label="OUT" />
    <circle
       r="6.3499999"
       cy="89.596176"
       cx="12.7"
       id="circle1373"
       style="display:inline;fill:#ff0000;fill-opacity:1;stroke:none;stroke-width:1;stroke-miterlimit:4;stroke-dasharray:none"
       inkscape:label="DOWNRATE#Rogan2PWhite" />
    <circle
       r="4.1775002"
       cy="73.495132"
       cx="17.991667"
       id="circle1202"
       style="display:inline;fill:#00ff00;fill-opacity:1;stroke:none;stroke-width:1;stroke-miterlimit:4;stroke-dasharray:none"
       inkscape:label="DOWN" />
    <circle
       cy="73.495132"
       cx="7.7916684"
       id="circle223"
       style="display:inline;fill:#ff0000;fill-opacity:1;stroke:none;stroke-width:1;stroke-miterlimit:4;stroke-dasharray:none"
       inkscape:label="DOWNGATE#TL1105"
       r="2.5" />
    <circle
       cy="57.899994"
       cx="7.7916684"
       id="circle221"
       style="display:inline;fill:#ff0000;fill-opacity:1;stroke:none;stroke-width:1;stroke-miterlimit:4;stroke-dasharray:none"
       inkscape:label="RESETGATE#TL1105"
       r="2.5" />
    <circle
       r="4.1775002"
       cy="57.899998"
       cx="17.991667"
       id="circle217"
       style="display:inline;fill:#00ff00;fill-opacity:1;stroke:none;stroke-width:1;stroke-miterlimit:4;stroke-dasharray:none"
       inkscape:label="RESET" />
    <circle
       r="4.1775002"
       cy="40.686768"
       cx="17.991667"
       id="circle903"
       style="display:inline;fill:#00ff00;fill-opacity:1;stroke:none;stroke-width:1;stroke-miterlimit:4;stroke-dasharray:none"
       inkscape:label="UP" />
    <circle
       cy="40.686768"
       cx="7.7916684"
       id="circle219"
       style="display:inline;fill:#ff0000;fill-opacity:1;stroke:none;stroke-width:1;stroke-miterlimit:4;stroke-dasharray:none"
       inkscape:label="UPGATE#TL1105"
       r="2.5" />
    <circle
       r="6.3499999"
       cy="25.037781"
       cx="12.7"
       id="circle1219"
       style="display:inline;fill:#ff0000;fill-opacity:1;stroke:none;stroke-width:1;stroke-miterlimit:4;stroke-dasharray:none"
       inkscape:label="UPRATE#Rogan2PWhite" />
    <rect
       style="fill:#ff0000;fill-opacity:1;stroke:none;stroke-width:0.25;stroke-linecap:round"
       id="rect3862"
       width="4.4833112"
       height="6.3184958"
       x="18.049414"
       y="105.43518"
       inkscape:label="BIPOLAR#CKSS" />
  </g>
</svg>
