<?xml version="1.0" encoding="UTF-8" standalone="no"?>
<svg xmlns="http://www.w3.org/2000/svg" version="1.1"
     viewBox="0 0 60.96 128.5" height="128.5mm" width="60.96mm">

  <!-- background -->
  <rect width="60.96" height="128.5" x="0" y="0" style="fill:#1a1a1a;stroke:none"/>

  <!-- divider lines -->
  <line x1="3" y1="52"  x2="57.96" y2="52"  style="stroke:#333333;stroke-width:0.3"/>
  <line x1="3" y1="75"  x2="57.96" y2="75"  style="stroke:#333333;stroke-width:0.3"/>
  <line x1="3" y1="90"  x2="57.96" y2="90"  style="stroke:#333333;stroke-width:0.3"/>
  <line x1="3" y1="105" x2="57.96" y2="105" style="stroke:#333333;stroke-width:0.3"/>

  <!-- forsitan logo -->
  <g transform="rotate(180,31.0325,137.90457)">
    <rect ry="1.2" rx="1.18" y="150.059" x="25.335" height="5.5" width="12.5"
          style="fill:none;stroke:#ffd500;stroke-width:0.5;stroke-miterlimit:4"/>
    <rect style="fill:#ffd500;stroke:none" width="0.25" height="4.5" x="31.460" y="150.559"/>
    <circle cx="29.522" cy="154.170" r="0.625" style="fill:#ffd500;stroke:none"/>
    <circle cx="27.405" cy="151.524" r="0.625" style="fill:#ffd500;stroke:none"/>
    <circle cx="35.651" cy="154.170" r="0.625" style="fill:#ffd500;stroke:none"/>
    <circle cx="33.534" cy="151.524" r="0.625" style="fill:#ffd500;stroke:none"/>
  </g>

  <!-- text as paths (OCR-A Regular) -->
  <g id="text-paths">
  <g aria-label="fracta" style="fill:#f0f0f0;stroke:none"><path d="M23.056683 6.703483C22.666502 6.703483 22.330650000000002 7.0245180000000005 22.330650000000002 7.429516V7.572747H22.157785C22.019493 7.572747 21.925652 7.661649000000001 21.925652 7.780185C21.925652 7.898721 22.009615 7.987623 22.157785 7.987623H22.330650000000002V9.671822C22.330650000000002 9.810114 22.419552 9.903955 22.538088000000002 9.903955C22.656624 9.903955 22.745526 9.815053 22.745526 9.671822V7.987623H23.130768C23.26906 7.987623 23.362901 7.898721 23.362901 7.780185C23.362901 7.661649000000001 23.273999 7.572747 23.130768 7.572747H22.745526V7.429516C22.745526 7.266529 22.888757000000002 7.118359 23.056683 7.118359H23.535766000000002C23.674058000000002 7.118359 23.767899 7.029457000000001 23.767899 6.910921C23.767899 6.792385 23.678997000000003 6.703483 23.535766000000002 6.703483Z"/><path d="M25.294050000000002 7.7999410000000005C25.294050000000002 7.661649000000001 25.205148 7.572747 25.086612000000002 7.572747C24.968076000000003 7.572747 24.879174000000003 7.651771 24.879174000000003 7.7999410000000005V9.671822C24.879174000000003 9.810114 24.968076000000003 9.903955 25.086612000000002 9.903955C25.205148 9.903955 25.294050000000002 9.815053 25.294050000000002 9.671822V8.565486L25.886730000000004 8.041952C25.921303 8.007379 25.995388000000002 7.982684 26.0349 7.982684H26.306545000000003C26.415203 7.982684 26.509044000000003 8.076525 26.509044000000003 8.185183V8.279024C26.509044000000003 8.417316 26.597946 8.511157 26.716482000000003 8.511157C26.835018 8.511157 26.923920000000003 8.422255 26.923920000000003 8.279024V8.185183C26.923920000000003 7.85427 26.647336000000003 7.572747 26.306545000000003 7.572747H26.0349C25.896608 7.572747 25.743499000000003 7.627076000000001 25.639780000000002 7.715978L25.294050000000002 8.017257Z"/><path d="M28.568607000000004 7.572747C28.430315000000004 7.572747 28.341413000000003 7.661649000000001 28.341413000000003 7.780185C28.341413000000003 7.898721 28.420437000000003 7.987623 28.568607000000004 7.987623H29.304518C29.418115000000004 7.987623 29.502078000000004 8.066647 29.507017000000005 8.185183L29.521834000000002 8.476584C29.462566000000002 8.451889 29.403298000000003 8.442011 29.339091000000003 8.442011H28.548851000000003C28.217938000000004 8.442011 27.931476000000004 8.718595 27.931476000000004 9.059386V9.291519000000001C27.931476000000004 9.627371 28.208060000000003 9.903955 28.548851000000003 9.903955H29.136592000000004C29.200799000000004 9.903955 29.279823000000004 9.874321 29.319335000000002 9.849626L29.561346000000004 9.696517C29.581102 9.82987 29.660126 9.903955 29.773723000000004 9.903955C29.882381000000002 9.903955 29.976222000000003 9.810114 29.976222000000003 9.676761V9.666883L29.921893000000004 8.185183C29.907076000000004 7.814758 29.620614000000003 7.572747 29.304518 7.572747ZM28.543912000000002 8.856887H29.339091000000003C29.447749 8.856887 29.541590000000003 8.94085 29.541590000000003 9.054447L29.546529000000003 9.23719L29.102019000000002 9.489079H28.548851000000003C28.435254000000004 9.489079 28.346352000000003 9.395238 28.346352000000003 9.291519000000001V9.059386C28.346352000000003 8.945789 28.445132000000005 8.856887 28.543912000000002 8.856887Z"/><path d="M31.971578000000004 7.572747C31.828347000000004 7.572747 31.670299000000004 7.632015 31.571519000000002 7.715978L31.201094000000005 8.041952C31.057863000000005 8.170366 30.983778000000004 8.338292 30.983778000000004 8.511157V8.965545C30.983778000000004 9.13841 31.057863000000005 9.306336 31.201094000000005 9.43475L31.571519000000002 9.760724C31.670299000000004 9.844687 31.828347000000004 9.903955 31.971578000000004 9.903955H32.79639100000001C32.93468300000001 9.903955 33.028524000000004 9.815053 33.028524000000004 9.696517C33.028524000000004 9.577981 32.93962200000001 9.489079 32.79639100000001 9.489079H31.971578000000004C31.907371000000005 9.489079 31.872798000000003 9.464384 31.828347000000004 9.429811L31.457922000000003 9.108776C31.423349000000005 9.079142000000001 31.398654000000004 9.019874 31.398654000000004 8.965545V8.506218C31.398654000000004 8.451889 31.423349000000005 8.39756 31.457922000000003 8.367926L31.828347000000004 8.046891C31.872798000000003 8.007379 31.917249000000005 7.982684 31.971578000000004 7.982684H32.79639100000001C32.9495 7.982684 33.028524000000004 7.898721 33.028524000000004 7.780185C33.028524000000004 7.661649000000001 32.93468300000001 7.572747 32.79639100000001 7.572747Z"/><path d="M34.860893000000004 7.103542C34.860893000000004 6.96525 34.767052 6.876348 34.648516 6.876348C34.52998 6.876348 34.441078000000005 6.9553720000000006 34.441078000000005 7.103542V7.572747H34.268213C34.129921 7.572747 34.03608 7.661649000000001 34.03608 7.780185C34.03608 7.898721 34.120043 7.987623 34.268213 7.987623H34.441078000000005V9.28658C34.441078000000005 9.622432 34.717662000000004 9.903955 35.058453 9.903955H35.463451C35.823998 9.903955 36.075887 9.587859 36.075887 9.33597C36.075887 9.23719 35.991924000000004 9.13841 35.873388 9.13841C35.705462000000004 9.13841 35.690645 9.271763 35.661011 9.345848C35.626438 9.439689 35.552353000000004 9.489079 35.46839 9.489079H35.058453C34.944856 9.489079 34.860893000000004 9.400177 34.860893000000004 9.291519000000001V7.987623H35.646194C35.784486 7.987623 35.878327 7.898721 35.878327 7.780185C35.878327 7.661649000000001 35.789425 7.572747 35.646194 7.572747H34.860893000000004Z"/><path d="M37.725513 7.572747C37.587221 7.572747 37.498319 7.661649000000001 37.498319 7.780185C37.498319 7.898721 37.577343 7.987623 37.725513 7.987623H38.461424C38.575021 7.987623 38.658984 8.066647 38.663923 8.185183L38.67874 8.476584C38.619472 8.451889 38.560204 8.442011 38.495996999999996 8.442011H37.705757C37.374843999999996 8.442011 37.088381999999996 8.718595 37.088381999999996 9.059386V9.291519000000001C37.088381999999996 9.627371 37.364965999999995 9.903955 37.705757 9.903955H38.293498C38.357704999999996 9.903955 38.436729 9.874321 38.476241 9.849626L38.718252 9.696517C38.738008 9.82987 38.817032 9.903955 38.930628999999996 9.903955C39.039287 9.903955 39.133128 9.810114 39.133128 9.676761V9.666883L39.078799 8.185183C39.063981999999996 7.814758 38.777519999999996 7.572747 38.461424 7.572747ZM37.700818 8.856887H38.495996999999996C38.604655 8.856887 38.698496 8.94085 38.698496 9.054447L38.703435 9.23719L38.258925 9.489079H37.705757C37.59216 9.489079 37.503257999999995 9.395238 37.503257999999995 9.291519000000001V9.059386C37.503257999999995 8.945789 37.602038 8.856887 37.700818 8.856887Z"/></g>
  <g aria-label="core" style="fill:#888888;stroke:none"><path d="M8.704848 15.351944000000001C8.602536 15.351944000000001 8.48964 15.394280000000002 8.41908 15.454256L8.15448 15.687104000000001C8.052168 15.778832000000001 7.999248 15.898784000000001 7.999248 16.022264V16.34684C7.999248 16.47032 8.052168 16.590272000000002 8.15448 16.682000000000002L8.41908 16.914848000000003C8.48964 16.974824 8.602536 17.01716 8.704848 17.01716H9.294024C9.392808 17.01716 9.45984 16.953656000000002 9.45984 16.868984C9.45984 16.784312 9.396336 16.720808 9.294024 16.720808H8.704848C8.658984 16.720808 8.634288 16.703168 8.602536 16.678472000000003L8.337936 16.449152C8.31324 16.427984000000002 8.2956 16.385648 8.2956 16.34684V16.018736C8.2956 15.979928000000001 8.31324 15.941120000000002 8.337936 15.919952L8.602536 15.690632C8.634288 15.662408000000001 8.66604 15.644768000000001 8.704848 15.644768000000001H9.294024C9.403392 15.644768000000001 9.45984 15.584792 9.45984 15.50012C9.45984 15.415448000000001 9.392808 15.351944000000001 9.294024 15.351944000000001Z"/><path d="M10.744032 15.351944000000001C10.645248 15.351944000000001 10.549992 15.387224000000002 10.46532 15.454256L10.338312 15.556568C10.239528 15.637712 10.179552000000001 15.768248000000002 10.179552000000001 15.895256000000002V16.473848C10.179552000000001 16.600856 10.239528 16.727864 10.338312 16.809008000000002L10.46532 16.914848000000003C10.549992 16.98188 10.645248 17.01716 10.744032 17.01716H11.072136C11.167392 17.01716 11.269704 16.98188 11.354376 16.914848000000003L11.481384 16.809008000000002C11.580168 16.727864 11.640144 16.600856 11.640144 16.473848V15.895256000000002C11.640144 15.768248000000002 11.580168 15.637712 11.481384 15.556568L11.354376 15.454256C11.269704 15.387224000000002 11.167392 15.351944000000001 11.072136 15.351944000000001ZM10.74756 15.644768000000001H11.072136C11.103888000000001 15.644768000000001 11.13564 15.658880000000002 11.163864 15.680048000000001L11.290872 15.785888000000002C11.322624000000001 15.810584 11.343792 15.856448 11.343792 15.895256000000002V16.473848C11.343792 16.512656 11.322624000000001 16.55852 11.290872 16.583216L11.163864 16.689056C11.13564 16.710224 11.103888000000001 16.720808 11.072136 16.720808H10.74756C10.715808 16.720808 10.684056 16.710224 10.655832 16.689056L10.528824 16.583216C10.497072000000001 16.55852 10.475904 16.516184000000003 10.475904 16.473848V15.895256000000002C10.475904 15.852920000000001 10.497072000000001 15.810584 10.528824 15.785888000000002L10.655832 15.680048000000001C10.684056 15.658880000000002 10.715808 15.644768000000001 10.74756 15.644768000000001Z"/><path d="M12.656208 15.514232000000002C12.656208 15.415448000000001 12.592704 15.351944000000001 12.508032 15.351944000000001C12.42336 15.351944000000001 12.359856 15.408392000000001 12.359856 15.514232000000002V16.851344C12.359856 16.950128 12.42336 17.01716 12.508032 17.01716C12.592704 17.01716 12.656208 16.953656000000002 12.656208 16.851344V16.061072000000003L13.079568 15.687104000000001C13.104264 15.662408000000001 13.157184 15.644768000000001 13.185408 15.644768000000001H13.379448C13.457063999999999 15.644768000000001 13.524096 15.7118 13.524096 15.789416000000001V15.856448C13.524096 15.955232 13.5876 16.022264 13.672272 16.022264C13.756944 16.022264 13.820447999999999 15.958760000000002 13.820447999999999 15.856448V15.789416000000001C13.820447999999999 15.553040000000001 13.62288 15.351944000000001 13.379448 15.351944000000001H13.185408C13.086624 15.351944000000001 12.977256 15.390752 12.903168 15.454256L12.656208 15.669464000000001Z"/><path d="M15.10464 15.351944000000001C15.005856 15.351944000000001 14.910599999999999 15.387224000000002 14.825928 15.454256L14.69892 15.556568C14.600136 15.637712 14.54016 15.768248000000002 14.54016 15.895256000000002V16.473848C14.54016 16.600856 14.600136 16.727864 14.69892 16.809008000000002L14.825928 16.914848000000003C14.910599999999999 16.98188 15.005856 17.01716 15.10464 17.01716H15.834935999999999C15.93372 17.01716 16.000752 16.953656000000002 16.000752 16.868984C16.000752 16.784312 15.937248 16.720808 15.834935999999999 16.720808H15.108168C15.079944 16.720808 15.05172 16.717280000000002 15.01644 16.689056L14.889432 16.583216C14.85768 16.55852 14.836511999999999 16.516184000000003 14.836511999999999 16.473848V16.396232H15.834935999999999C15.93372 16.396232 16.000752 16.332728 16.000752 16.248056000000002V15.895256000000002C16.000752 15.768248000000002 15.940776 15.637712 15.841992 15.556568L15.714984 15.454256C15.630312 15.387224000000002 15.527999999999999 15.351944000000001 15.432744 15.351944000000001ZM15.108168 15.644768000000001H15.432744C15.464496 15.644768000000001 15.496248 15.658880000000002 15.524472 15.680048000000001L15.65148 15.785888000000002C15.683232 15.810584 15.7044 15.856448 15.7044 15.895256000000002V16.096352H14.836511999999999V15.895256000000002C14.836511999999999 15.852920000000001 14.85768 15.810584 14.889432 15.785888000000002L15.01644 15.680048000000001C15.044664 15.658880000000002 15.076416 15.644768000000001 15.108168 15.644768000000001Z"/></g>
  <g aria-label="iter" transform="translate(0,-3.0)" style="fill:#888888;stroke:none"><path d="M27.099008 14.607536000000001C26.996696 14.607536000000001 26.933192000000002 14.671040000000001 26.933192000000002 14.755712V14.879192000000002C26.933192000000002 14.963864000000001 26.993168 15.027368000000001 27.099008 15.027368000000001H27.211904C27.310688 15.027368000000001 27.37772 14.963864000000001 27.37772 14.879192000000002V14.755712C27.37772 14.671040000000001 27.303632 14.607536000000001 27.243656 14.607536000000001ZM26.809712 15.351944000000001C26.710928 15.351944000000001 26.643896 15.415448000000001 26.643896 15.50012C26.643896 15.584792 26.703872 15.648296000000002 26.809712 15.648296000000002H27.077840000000002V16.720808H26.809712C26.710928 16.720808 26.643896 16.784312 26.643896 16.868984C26.643896 16.953656000000002 26.7074 17.01716 26.809712 17.01716H27.649376C27.748160000000002 17.01716 27.815192 16.953656000000002 27.815192 16.868984C27.815192 16.784312 27.751688 16.720808 27.649376 16.720808H27.37772V15.50012C27.37772 15.415448000000001 27.314216000000002 15.351944000000001 27.211904 15.351944000000001Z"/><path d="M29.268728 15.016784000000001C29.268728 14.918000000000001 29.201696000000002 14.854496000000001 29.117024 14.854496000000001C29.032352 14.854496000000001 28.968848 14.910944 28.968848 15.016784000000001V15.351944000000001H28.845368C28.746584000000002 15.351944000000001 28.679552 15.415448000000001 28.679552 15.50012C28.679552 15.584792 28.739528 15.648296000000002 28.845368 15.648296000000002H28.968848V16.57616C28.968848 16.816064 29.166416 17.01716 29.409848 17.01716H29.699144C29.956688 17.01716 30.136616 16.791368000000002 30.136616 16.61144C30.136616 16.54088 30.07664 16.47032 29.991968 16.47032C29.872016000000002 16.47032 29.861432 16.565576 29.840264 16.618496C29.815568 16.685528 29.762648 16.720808 29.702672 16.720808H29.409848C29.328704000000002 16.720808 29.268728 16.657304 29.268728 16.579688V15.648296000000002H29.82968C29.928464 15.648296000000002 29.995496 15.584792 29.995496 15.50012C29.995496 15.415448000000001 29.931992 15.351944000000001 29.82968 15.351944000000001H29.268728Z"/><path d="M31.424336 15.351944000000001C31.325552 15.351944000000001 31.230296 15.387224000000002 31.145624 15.454256L31.018616 15.556568C30.919832 15.637712 30.859856 15.768248000000002 30.859856 15.895256000000002V16.473848C30.859856 16.600856 30.919832 16.727864 31.018616 16.809008000000002L31.145624 16.914848000000003C31.230296 16.98188 31.325552 17.01716 31.424336 17.01716H32.154632C32.253416 17.01716 32.320448 16.953656000000002 32.320448 16.868984C32.320448 16.784312 32.256944 16.720808 32.154632 16.720808H31.427864C31.39964 16.720808 31.371416 16.717280000000002 31.336136 16.689056L31.209128 16.583216C31.177376 16.55852 31.156208 16.516184000000003 31.156208 16.473848V16.396232H32.154632C32.253416 16.396232 32.320448 16.332728 32.320448 16.248056000000002V15.895256000000002C32.320448 15.768248000000002 32.260472 15.637712 32.161688 15.556568L32.03468 15.454256C31.950008 15.387224000000002 31.847696 15.351944000000001 31.75244 15.351944000000001ZM31.427864 15.644768000000001H31.75244C31.784192 15.644768000000001 31.815944000000002 15.658880000000002 31.844168 15.680048000000001L31.971176 15.785888000000002C32.002928 15.810584 32.024096 15.856448 32.024096 15.895256000000002V16.096352H31.156208V15.895256000000002C31.156208 15.852920000000001 31.177376 15.810584 31.209128 15.785888000000002L31.336136 15.680048000000001C31.36436 15.658880000000002 31.396112 15.644768000000001 31.427864 15.644768000000001Z"/><path d="M33.336512 15.514232000000002C33.336512 15.415448000000001 33.273008 15.351944000000001 33.188336 15.351944000000001C33.103664 15.351944000000001 33.04016 15.408392000000001 33.04016 15.514232000000002V16.851344C33.04016 16.950128 33.103664 17.01716 33.188336 17.01716C33.273008 17.01716 33.336512 16.953656000000002 33.336512 16.851344V16.061072000000003L33.759872 15.687104000000001C33.784568 15.662408000000001 33.837488 15.644768000000001 33.865712 15.644768000000001H34.059752C34.137368 15.644768000000001 34.2044 15.7118 34.2044 15.789416000000001V15.856448C34.2044 15.955232 34.267904 16.022264 34.352576 16.022264C34.437248 16.022264 34.500752 15.958760000000002 34.500752 15.856448V15.789416000000001C34.500752 15.553040000000001 34.303184 15.351944000000001 34.059752 15.351944000000001H33.865712C33.766928 15.351944000000001 33.65756 15.390752 33.583472 15.454256L33.336512 15.669464000000001Z"/></g>
  <g aria-label="warp" transform="translate(0,-3.0)" style="fill:#888888;stroke:none"><path d="M45.267376 15.510704C45.263848 15.411920000000002 45.200344 15.351944000000001 45.112144 15.351944000000001C45.034528 15.351944000000001 44.971024 15.415448000000001 44.971024 15.510704V15.51776L44.999248 16.392704000000002L45.150952000000004 16.897208000000003C45.175648 16.985408 45.235624 17.01716 45.334408 17.01716H45.447304C45.500224 17.01716 45.546088 16.988936000000002 45.581368 16.92896L45.729544000000004 16.678472000000003L45.877720000000004 16.92896C45.913000000000004 16.988936000000002 45.955336 17.01716 46.008256 17.01716H46.12468C46.223464 17.01716 46.28344 16.985408 46.308136 16.897208000000003L46.45984 16.392704000000002L46.488064 15.51776V15.510704C46.488064 15.415448000000001 46.421032000000004 15.351944000000001 46.343416 15.351944000000001C46.255216000000004 15.351944000000001 46.19524 15.411920000000002 46.191712 15.510704L46.163488 16.353896000000002L46.064704 16.671416L45.874192 16.332728V16.011680000000002C45.874192 15.919952 45.814216 15.849392000000002 45.729544000000004 15.849392000000002C45.644872 15.849392000000002 45.581368 15.912896000000002 45.581368 16.011680000000002V16.332728L45.390856 16.671416L45.292072 16.353896000000002Z"/><path d="M47.634664 15.351944000000001C47.53588 15.351944000000001 47.472376 15.415448000000001 47.472376 15.50012C47.472376 15.584792 47.528824 15.648296000000002 47.634664 15.648296000000002H48.160336C48.24148 15.648296000000002 48.301456 15.704744000000002 48.304984 15.789416000000001L48.315568 15.997568000000001C48.273232 15.979928000000001 48.230896 15.972872 48.185032 15.972872H47.620552C47.384176000000004 15.972872 47.179552 16.170440000000003 47.179552 16.413872V16.579688C47.179552 16.819592 47.37712 17.01716 47.620552 17.01716H48.040384C48.086248 17.01716 48.142696 16.995992 48.17092 16.978352L48.343792 16.868984C48.357904 16.96424 48.414352 17.01716 48.495496 17.01716C48.573112 17.01716 48.640144 16.950128 48.640144 16.854872V16.847816L48.601336 15.789416000000001C48.590752 15.524816000000001 48.386128 15.351944000000001 48.160336 15.351944000000001ZM47.617024 16.269224H48.185032C48.262648 16.269224 48.32968 16.3292 48.32968 16.410344000000002L48.333208 16.54088L48.015688 16.720808H47.620552C47.539408 16.720808 47.475904 16.653776 47.475904 16.579688V16.413872C47.475904 16.332728 47.546464 16.269224 47.617024 16.269224Z"/><path d="M49.656208 15.514232000000002C49.656208 15.415448000000001 49.592704 15.351944000000001 49.508032 15.351944000000001C49.42336 15.351944000000001 49.359856 15.408392000000001 49.359856 15.514232000000002V16.851344C49.359856 16.950128 49.42336 17.01716 49.508032 17.01716C49.592704 17.01716 49.656208 16.953656000000002 49.656208 16.851344V16.061072000000003L50.079568 15.687104000000001C50.104264 15.662408000000001 50.157184 15.644768000000001 50.185408 15.644768000000001H50.379448C50.457064 15.644768000000001 50.524096 15.7118 50.524096 15.789416000000001V15.856448C50.524096 15.955232 50.5876 16.022264 50.672272 16.022264C50.756944 16.022264 50.820448 15.958760000000002 50.820448 15.856448V15.789416000000001C50.820448 15.553040000000001 50.62288 15.351944000000001 50.379448 15.351944000000001H50.185408C50.086624 15.351944000000001 49.977256 15.390752 49.903168 15.454256L49.656208 15.669464000000001Z"/><path d="M51.836512 15.454256C51.836512 15.355472 51.773008 15.288440000000001 51.688336 15.288440000000001C51.603664 15.288440000000001 51.54016 15.348416 51.54016 15.454256V17.472272C51.54016 17.571056000000002 51.603664 17.638088 51.688336 17.638088C51.773008 17.638088 51.836512 17.574584 51.836512 17.472272V16.851344L51.907072 16.921904C52.009384 17.024216000000003 52.118752 17.077136 52.242232 17.077136H52.309264C52.408048 17.077136 52.513888 17.038328 52.591504 16.971296000000002L52.841992 16.763144C52.940776 16.682000000000002 53.000752 16.551464000000003 53.000752 16.427984000000002V15.937592C53.000752 15.814112000000002 52.940776 15.683576 52.841992 15.602432L52.591504 15.394280000000002C52.513888 15.327248 52.408048 15.288440000000001 52.309264 15.288440000000001H52.242232C52.118752 15.288440000000001 52.009384 15.341360000000002 51.907072 15.443672000000001L51.836512 15.514232000000002ZM52.238704 15.588320000000001H52.305735999999996C52.344544 15.588320000000001 52.383352 15.598904000000001 52.411576 15.623600000000001L52.658536 15.831752000000002C52.679704 15.849392000000002 52.700872 15.898784000000001 52.700872 15.937592V16.427984000000002C52.700872 16.466792 52.679704 16.512656 52.658536 16.530296L52.411576 16.738448C52.383352 16.763144 52.341015999999996 16.780784 52.305735999999996 16.780784H52.238704C52.206952 16.780784 52.168144 16.763144 52.13992 16.734920000000002L51.87532 16.473848C51.847096 16.445624000000002 51.832983999999996 16.410344000000002 51.832983999999996 16.371536000000003V15.994040000000002C51.832983999999996 15.955232 51.847096 15.919952 51.87532 15.891728L52.13992 15.630656000000002C52.168144 15.602432 52.203424 15.588320000000001 52.238704 15.588320000000001Z"/></g>
  <g aria-label="v/oct" style="fill:#888888;stroke:none"><path d="M7.2054480000000005 53.714232C7.2054480000000005 53.615448 7.1419440000000005 53.551944 7.057272 53.551944C6.9726 53.551944 6.909096 53.608392 6.909096 53.714232V53.932968C6.909096 53.978832 6.9196800000000005 54.0 6.930264 54.021168L7.3959600000000005 55.090152C7.43124 55.167768 7.462992 55.21716 7.547664 55.21716H7.731120000000001C7.812264 55.21716 7.847544 55.167768 7.882824 55.090152L8.34852 54.021168C8.359104 54.0 8.369688 53.975304 8.369688 53.932968V53.714232C8.369688 53.61192 8.306184 53.551944 8.221512 53.551944C8.13684 53.551944 8.073336 53.615448 8.073336 53.714232V53.908272000000004L7.639392 54.89964L7.2054480000000005 53.908272000000004Z"/><path d="M10.521768000000002 53.163864000000004C10.539408 53.13564 10.546464 53.103888 10.546464 53.079192C10.546464 52.987464 10.475904 52.931016 10.401816 52.931016C10.345368 52.931016 10.299504 52.95924 10.264224 53.015688L9.117624000000001 54.980784C9.099984000000001 55.009008 9.092928 55.04076 9.092928 55.068984C9.092928 55.153656 9.152904000000001 55.213632 9.237576 55.213632C9.297552000000001 55.213632 9.339888 55.185408 9.375168 55.12896Z"/><path d="M11.834184 53.551944C11.7354 53.551944 11.640144 53.587224 11.555472 53.654256000000004L11.428464 53.756568C11.32968 53.837712 11.269704 53.968248 11.269704 54.095256V54.673848C11.269704 54.800856 11.32968 54.927864 11.428464 55.009008L11.555472 55.114848C11.640144 55.18188 11.7354 55.21716 11.834184 55.21716H12.162288C12.257544 55.21716 12.359856 55.18188 12.444528 55.114848L12.571536 55.009008C12.67032 54.927864 12.730296 54.800856 12.730296 54.673848V54.095256C12.730296 53.968248 12.67032 53.837712 12.571536 53.756568L12.444528 53.654256000000004C12.359856 53.587224 12.257544 53.551944 12.162288 53.551944ZM11.837712 53.844768H12.162288C12.194040000000001 53.844768 12.225792 53.85888 12.254016 53.880048L12.381024 53.985888C12.412776000000001 54.010584 12.433944 54.056448 12.433944 54.095256V54.673848C12.433944 54.712656 12.412776000000001 54.75852 12.381024 54.783216L12.254016 54.889056000000004C12.225792 54.910224 12.194040000000001 54.920808 12.162288 54.920808H11.837712C11.80596 54.920808 11.774208 54.910224 11.745984 54.889056000000004L11.618976 54.783216C11.587224 54.75852 11.566056 54.716184 11.566056 54.673848V54.095256C11.566056 54.05292 11.587224 54.010584 11.618976 53.985888L11.745984 53.880048C11.774208 53.85888 11.80596 53.844768 11.837712 53.844768Z"/><path d="M14.155607999999999 53.551944C14.053296 53.551944 13.9404 53.59428 13.86984 53.654256000000004L13.60524 53.887104C13.502927999999999 53.978832 13.450008 54.098784 13.450008 54.222264V54.54684C13.450008 54.670320000000004 13.502927999999999 54.790272 13.60524 54.882L13.86984 55.114848C13.9404 55.174824 14.053296 55.21716 14.155607999999999 55.21716H14.744784C14.843568 55.21716 14.910599999999999 55.153656 14.910599999999999 55.068984C14.910599999999999 54.984312 14.847096 54.920808 14.744784 54.920808H14.155607999999999C14.109744 54.920808 14.085048 54.903168 14.053296 54.878472L13.788696 54.649152C13.764 54.627984 13.74636 54.585648 13.74636 54.54684V54.218736C13.74636 54.179928000000004 13.764 54.14112 13.788696 54.119952L14.053296 53.890632000000004C14.085048 53.862408 14.1168 53.844768 14.155607999999999 53.844768H14.744784C14.854152 53.844768 14.910599999999999 53.784792 14.910599999999999 53.70012C14.910599999999999 53.615448 14.843568 53.551944 14.744784 53.551944Z"/><path d="M16.219488 53.216784000000004C16.219488 53.118 16.152456 53.054496 16.067784 53.054496C15.983111999999998 53.054496 15.919608 53.110944 15.919608 53.216784000000004V53.551944H15.796128C15.697344 53.551944 15.630312 53.615448 15.630312 53.70012C15.630312 53.784792 15.690287999999999 53.848296 15.796128 53.848296H15.919608V54.77616C15.919608 55.016064 16.117176 55.21716 16.360608 55.21716H16.649904C16.907448 55.21716 17.087376 54.991368 17.087376 54.81144C17.087376 54.74088 17.0274 54.670320000000004 16.942728 54.670320000000004C16.822775999999998 54.670320000000004 16.812192 54.765576 16.791024 54.818496C16.766327999999998 54.885528 16.713408 54.920808 16.653432 54.920808H16.360608C16.279464 54.920808 16.219488 54.857304 16.219488 54.779688V53.848296H16.78044C16.879224 53.848296 16.946255999999998 53.784792 16.946255999999998 53.70012C16.946255999999998 53.615448 16.882752 53.551944 16.78044 53.551944H16.219488Z"/></g>
  <g aria-label="freq" transform="translate(0,-3.0)" style="fill:#888888;stroke:none"><path d="M27.37772 52.931016C27.099008 52.931016 26.859104000000002 53.160336 26.859104000000002 53.449632V53.551944H26.735624C26.63684 53.551944 26.569808000000002 53.615448 26.569808000000002 53.70012C26.569808000000002 53.784792 26.629784 53.848296 26.735624 53.848296H26.859104000000002V55.051344C26.859104000000002 55.150128 26.922608 55.21716 27.00728 55.21716C27.091952 55.21716 27.155456 55.153656 27.155456 55.051344V53.848296H27.43064C27.529424000000002 53.848296 27.596456 53.784792 27.596456 53.70012C27.596456 53.615448 27.532952 53.551944 27.43064 53.551944H27.155456V53.449632C27.155456 53.333208 27.257768000000002 53.227368 27.37772 53.227368H27.719936C27.81872 53.227368 27.885752 53.163864000000004 27.885752 53.079192C27.885752 52.99452 27.822248000000002 52.931016 27.719936 52.931016Z"/><path d="M28.975904 53.714232C28.975904 53.615448 28.9124 53.551944 28.827728 53.551944C28.743056 53.551944 28.679552 53.608392 28.679552 53.714232V55.051344C28.679552 55.150128 28.743056 55.21716 28.827728 55.21716C28.9124 55.21716 28.975904 55.153656 28.975904 55.051344V54.261072L29.399264 53.887104C29.42396 53.862408 29.47688 53.844768 29.505104 53.844768H29.699144C29.77676 53.844768 29.843792 53.9118 29.843792 53.989416V54.056448C29.843792 54.155232 29.907296 54.222264 29.991968 54.222264C30.07664 54.222264 30.140144 54.15876 30.140144 54.056448V53.989416C30.140144 53.75304 29.942576 53.551944 29.699144 53.551944H29.505104C29.40632 53.551944 29.296952 53.590752 29.222864 53.654256000000004L28.975904 53.869464Z"/><path d="M31.424336 53.551944C31.325552 53.551944 31.230296 53.587224 31.145624 53.654256000000004L31.018616 53.756568C30.919832 53.837712 30.859856 53.968248 30.859856 54.095256V54.673848C30.859856 54.800856 30.919832 54.927864 31.018616 55.009008L31.145624 55.114848C31.230296 55.18188 31.325552 55.21716 31.424336 55.21716H32.154632C32.253416 55.21716 32.320448 55.153656 32.320448 55.068984C32.320448 54.984312 32.256944 54.920808 32.154632 54.920808H31.427864C31.39964 54.920808 31.371416 54.91728 31.336136 54.889056000000004L31.209128 54.783216C31.177376 54.75852 31.156208 54.716184 31.156208 54.673848V54.596232H32.154632C32.253416 54.596232 32.320448 54.532728 32.320448 54.448056V54.095256C32.320448 53.968248 32.260472 53.837712 32.161688 53.756568L32.03468 53.654256000000004C31.950008 53.587224 31.847696 53.551944 31.75244 53.551944ZM31.427864 53.844768H31.75244C31.784192 53.844768 31.815944000000002 53.85888 31.844168 53.880048L31.971176 53.985888C32.002928 54.010584 32.024096 54.056448 32.024096 54.095256V54.296352H31.156208V54.095256C31.156208 54.05292 31.177376 54.010584 31.209128 53.985888L31.336136 53.880048C31.36436 53.85888 31.396112 53.844768 31.427864 53.844768Z"/><path d="M33.579944 53.551944C33.477632 53.551944 33.385904 53.583696 33.297703999999996 53.654256000000004L33.195392 53.731872C33.107192 53.802432 33.036632 53.936496 33.036632 54.067032V54.712656C33.036632 54.82908 33.103664 54.966672 33.195392 55.037232L33.297703999999996 55.114848C33.385904 55.185408 33.477632 55.21716 33.579944 55.21716H33.809264C33.908048 55.21716 34.013888 55.18188 34.091504 55.114848L34.200872 55.019592V55.672272C34.200872 55.771056 34.264376 55.838088 34.349047999999996 55.838088C34.43372 55.838088 34.500752 55.774584 34.500752 55.672272V53.714232C34.500752 53.615448 34.43372 53.551944 34.349047999999996 53.551944C34.264376 53.551944 34.200872 53.608392 34.200872 53.714232V53.749512L34.091504 53.654256000000004C34.013888 53.587224 33.908048 53.551944 33.809264 53.551944ZM33.579944 53.848296H33.809264C33.841015999999996 53.848296 33.876295999999996 53.862408 33.911576 53.890632000000004L34.162064 54.095256C34.183232 54.112896 34.2044 54.155232 34.2044 54.197568000000004V54.575064C34.2044 54.6174 34.183232 54.659736 34.162064 54.677376L33.911576 54.878472C33.879824 54.906696000000004 33.848072 54.920808 33.809264 54.920808H33.579944C33.527024 54.920808 33.505856 54.89964 33.477632 54.878472L33.378848 54.800856C33.35768 54.783216 33.336512 54.744408 33.336512 54.702072V54.07056C33.336512 54.028224 33.35768 53.985888 33.378848 53.968248L33.477632 53.890632000000004C33.509384 53.865936 33.53408 53.848296 33.579944 53.848296Z"/></g>
  <g aria-label="fm" style="fill:#888888;stroke:none"><path d="M48.058024 52.931016C47.779312 52.931016 47.539408 53.160336 47.539408 53.449632V53.551944H47.415928C47.317144 53.551944 47.250112 53.615448 47.250112 53.70012C47.250112 53.784792 47.310088 53.848296 47.415928 53.848296H47.539408V55.051344C47.539408 55.150128 47.602912 55.21716 47.687584 55.21716C47.772256 55.21716 47.83576 55.153656 47.83576 55.051344V53.848296H48.110944C48.209728 53.848296 48.27676 53.784792 48.27676 53.70012C48.27676 53.615448 48.213256 53.551944 48.110944 53.551944H47.83576V53.449632C47.83576 53.333208 47.938072 53.227368 48.058024 53.227368H48.400240000000004C48.499024 53.227368 48.566056 53.163864000000004 48.566056 53.079192C48.566056 52.99452 48.502552 52.931016 48.400240000000004 52.931016Z"/><path d="M50.813392 53.890632000000004C50.806336 53.70012 50.65816 53.551944 50.450008 53.551944C50.347696 53.551944 50.280664 53.597808 50.203048 53.661312L50.167768 53.689536000000004C50.079568 53.59428 49.98784 53.551944 49.874944 53.551944C49.7938 53.551944 49.730296 53.573112 49.666792 53.622504L49.6174 53.661312C49.589176 53.587224 49.543312 53.551944 49.47628 53.551944C49.391608 53.551944 49.328104 53.608392 49.328104 53.714232V55.051344C49.328104 55.150128 49.391608 55.21716 49.47628 55.21716C49.560952 55.21716 49.624456 55.153656 49.624456 55.051344V54.03528L49.832608 53.865936C49.84672 53.851824 49.86436 53.851824 49.874944 53.851824C49.910224 53.851824 49.938448 53.880048 49.938448 53.9118V55.051344C49.938448 55.150128 50.00548 55.21716 50.090152 55.21716C50.174824 55.21716 50.238328 55.153656 50.238328 55.051344V54.021168L50.421784 53.862408C50.432368 53.851824 50.450008 53.851824 50.460592 53.851824C50.492344 53.851824 50.51704 53.872992 50.51704 53.904744L50.555848 55.0584C50.559376 55.157184 50.62288 55.21716 50.707552 55.21716C50.785168 55.21716 50.852199999999996 55.150128 50.852199999999996 55.054872V55.047816Z"/></g>
  <g aria-label="mode" style="fill:#666666;stroke:none"><path d="M19.589588 63.717974C19.584296000000002 63.575089999999996 19.473164 63.463958 19.317050000000002 63.463958C19.240316 63.463958 19.190042000000002 63.498356 19.13183 63.545984L19.10537 63.567152C19.03922 63.495709999999995 18.970424 63.463958 18.885752 63.463958C18.824894 63.463958 18.777266 63.479834 18.729638 63.516878L18.692594 63.545984C18.671426 63.490418 18.637028 63.463958 18.586754 63.463958C18.52325 63.463958 18.475622 63.506294 18.475622 63.585674V64.588508C18.475622 64.662596 18.52325 64.71287 18.586754 64.71287C18.650258 64.71287 18.697886 64.66524199999999 18.697886 64.588508V63.82646L18.854 63.699452C18.864584 63.688868 18.877814 63.688868 18.885752 63.688868C18.912212 63.688868 18.93338 63.710035999999995 18.93338 63.73385V64.588508C18.93338 64.662596 18.983654 64.71287 19.047158 64.71287C19.110662 64.71287 19.15829 64.66524199999999 19.15829 64.588508V63.815875999999996L19.295882 63.696805999999995C19.30382 63.688868 19.317050000000002 63.688868 19.324988 63.688868C19.348802 63.688868 19.367324 63.704744 19.367324 63.728558L19.396430000000002 64.5938C19.399076 64.66788799999999 19.446704 64.71287 19.510208000000002 64.71287C19.56842 64.71287 19.618694 64.662596 19.618694 64.591154V64.58586199999999Z"/><path d="M20.558024000000003 63.463958C20.483936000000003 63.463958 20.412494000000002 63.490418 20.34899 63.540692L20.253734 63.617425999999995C20.179646 63.678284 20.134664 63.776185999999996 20.134664 63.871441999999995V64.305386C20.134664 64.40064199999999 20.179646 64.495898 20.253734 64.556756L20.34899 64.636136C20.412494000000002 64.68641 20.483936000000003 64.71287 20.558024000000003 64.71287H20.804102C20.875544 64.71287 20.952278000000003 64.68641 21.015782 64.636136L21.111038 64.556756C21.185126000000004 64.495898 21.230108 64.40064199999999 21.230108 64.305386V63.871441999999995C21.230108 63.776185999999996 21.185126000000004 63.678284 21.111038 63.617425999999995L21.015782 63.540692C20.952278000000003 63.490418 20.875544 63.463958 20.804102 63.463958ZM20.560670000000002 63.683575999999995H20.804102C20.827916000000002 63.683575999999995 20.851730000000003 63.69416 20.872898000000003 63.710035999999995L20.968154000000002 63.789415999999996C20.991968000000004 63.807938 21.007844000000002 63.842335999999996 21.007844000000002 63.871441999999995V64.305386C21.007844000000002 64.334492 20.991968000000004 64.36889 20.968154000000002 64.387412L20.872898000000003 64.466792C20.851730000000003 64.482668 20.827916000000002 64.490606 20.804102 64.490606H20.560670000000002C20.536856000000004 64.490606 20.513042000000002 64.482668 20.491874000000003 64.466792L20.396618000000004 64.387412C20.372804000000002 64.36889 20.356928000000003 64.337138 20.356928000000003 64.305386V63.871441999999995C20.356928000000003 63.83969 20.372804000000002 63.807938 20.396618000000004 63.789415999999996L20.491874000000003 63.710035999999995C20.513042000000002 63.69416 20.536856000000004 63.683575999999995 20.560670000000002 63.683575999999995Z"/><path d="M22.865336000000003 63.122623999999995C22.865336000000003 63.04589 22.815062000000005 62.998262 22.751558000000003 62.998262C22.688054000000005 62.998262 22.640426000000005 63.048536 22.640426000000005 63.122623999999995V63.612134L22.558400000000002 63.540692C22.500188000000005 63.490418 22.420808000000005 63.463958 22.346720000000005 63.463958H22.174730000000004C22.097996000000002 63.463958 22.029200000000003 63.487772 21.963050000000003 63.540692L21.886316000000004 63.598904C21.817520000000002 63.651824 21.767246000000004 63.757664 21.767246000000004 63.842335999999996V64.323908C21.767246000000004 64.42181 21.814874000000003 64.522358 21.886316000000004 64.577924L21.963050000000003 64.636136C22.029200000000003 64.689056 22.100642000000004 64.71287 22.174730000000004 64.71287H22.346720000000005C22.420808000000005 64.71287 22.500188000000005 64.68641 22.558400000000002 64.636136L22.640426000000005 64.564694V64.588508C22.640426000000005 64.66788799999999 22.688054000000005 64.71287 22.751558000000003 64.71287C22.815062000000005 64.71287 22.865336000000003 64.662596 22.865336000000003 64.588508ZM22.174730000000004 63.686222H22.346720000000005C22.375826000000004 63.686222 22.399640000000005 63.696805999999995 22.423454000000003 63.717974L22.611320000000003 63.868795999999996C22.627196000000005 63.882025999999996 22.643072000000004 63.913778 22.643072000000004 63.94553V64.228652C22.643072000000004 64.260404 22.627196000000005 64.29215599999999 22.611320000000003 64.305386L22.423454000000003 64.458854C22.396994000000003 64.48002199999999 22.373180000000005 64.490606 22.346720000000005 64.490606H22.174730000000004C22.137686000000002 64.490606 22.119164000000005 64.47473 22.097996000000002 64.458854L22.023908000000002 64.40064199999999C22.008032000000004 64.387412 21.992156000000005 64.35566 21.992156000000005 64.323908V63.850274C21.992156000000005 63.818521999999994 22.008032000000004 63.789415999999996 22.023908000000002 63.776185999999996L22.097996000000002 63.717974C22.119164000000005 63.702098 22.137686000000002 63.686222 22.174730000000004 63.686222Z"/><path d="M23.828480000000006 63.463958C23.754392000000006 63.463958 23.682950000000005 63.490418 23.619446000000003 63.540692L23.524190000000004 63.617425999999995C23.450102000000005 63.678284 23.405120000000004 63.776185999999996 23.405120000000004 63.871441999999995V64.305386C23.405120000000004 64.40064199999999 23.450102000000005 64.495898 23.524190000000004 64.556756L23.619446000000003 64.636136C23.682950000000005 64.68641 23.754392000000006 64.71287 23.828480000000006 64.71287H24.376202000000006C24.450290000000006 64.71287 24.500564000000004 64.66524199999999 24.500564000000004 64.601738C24.500564000000004 64.538234 24.452936000000005 64.490606 24.376202000000006 64.490606H23.831126000000005C23.809958000000005 64.490606 23.788790000000006 64.48796 23.762330000000006 64.466792L23.667074000000007 64.387412C23.643260000000005 64.36889 23.627384000000006 64.337138 23.627384000000006 64.305386V64.247174H24.376202000000006C24.450290000000006 64.247174 24.500564000000004 64.199546 24.500564000000004 64.136042V63.871441999999995C24.500564000000004 63.776185999999996 24.455582000000007 63.678284 24.381494000000004 63.617425999999995L24.286238000000004 63.540692C24.222734000000006 63.490418 24.146000000000004 63.463958 24.074558000000003 63.463958ZM23.831126000000005 63.683575999999995H24.074558000000003C24.098372000000005 63.683575999999995 24.122186000000006 63.69416 24.143354000000006 63.710035999999995L24.238610000000005 63.789415999999996C24.262424000000006 63.807938 24.278300000000005 63.842335999999996 24.278300000000005 63.871441999999995V64.02226399999999H23.627384000000006V63.871441999999995C23.627384000000006 63.83969 23.643260000000005 63.807938 23.667074000000007 63.789415999999996L23.762330000000006 63.710035999999995C23.783498000000005 63.69416 23.807312000000007 63.683575999999995 23.831126000000005 63.683575999999995Z"/></g>
  <g aria-label="sync" style="fill:#888888;stroke:none"><path d="M8.412024 77.351944C8.200344 77.351944 8.031 77.524816 8.031 77.732968C8.031 77.884672 8.122728 78.018736 8.267376 78.08224L9.064703999999999 78.427984C9.12468 78.45268 9.15996 78.509128 9.15996 78.569104C9.15996 78.653776 9.085872 78.72080799999999 9.008256 78.72080799999999H8.426136C8.2956 78.72080799999999 8.246208 78.597328 8.143896 78.597328C8.062752 78.597328 7.999248 78.66788799999999 7.999248 78.745504C7.999248 78.8584 8.2074 79.01716 8.426136 79.01716H9.008256C9.24816 79.01716 9.45984 78.819592 9.45984 78.569104C9.45984 78.385648 9.350472 78.226888 9.181128 78.1528L8.380272 77.81058399999999C8.344992 77.796472 8.327352 77.761192 8.327352 77.74002399999999C8.327352 77.680048 8.36616 77.648296 8.412024 77.648296H9.03648C9.152904 77.648296 9.163488 77.771776 9.276384 77.771776C9.354 77.771776 9.42456 77.708272 9.42456 77.6236C9.42456 77.510704 9.24816 77.351944 9.040008 77.351944Z"/><path d="M10.475904 77.51423199999999C10.475904 77.415448 10.4124 77.351944 10.327728 77.351944C10.243056000000001 77.351944 10.179552000000001 77.40839199999999 10.179552000000001 77.51423199999999V77.732968C10.179552000000001 77.778832 10.190136 77.8 10.20072 77.821168L10.634664 78.819592C10.652304 78.86192799999999 10.705224000000001 78.89368 10.779312000000001 78.89368H10.828704L10.634664 79.341736H10.341840000000001C10.243056000000001 79.341736 10.179552000000001 79.40523999999999 10.179552000000001 79.489912C10.179552000000001 79.574584 10.239528 79.638088 10.341840000000001 79.638088H10.71228C10.786368 79.638088 10.842816000000001 79.59928 10.860456000000001 79.564L11.618976 77.821168C11.62956 77.796472 11.640144 77.771776 11.640144 77.732968V77.51423199999999C11.640144 77.41192 11.576640000000001 77.351944 11.491968 77.351944C11.407296 77.351944 11.343792 77.415448 11.343792 77.51423199999999V77.708272L10.955712 78.5938H10.863984L10.475904 77.708272Z"/><path d="M12.656208 77.51776C12.656208 77.418976 12.592704 77.351944 12.508032 77.351944C12.42336 77.351944 12.359856 77.41192 12.359856 77.51776V78.851344C12.359856 78.95012799999999 12.42336 79.01716 12.508032 79.01716C12.592704 79.01716 12.656208 78.953656 12.656208 78.851344V77.95876L12.998424 77.732968C13.065456 77.690632 13.121904 77.65182399999999 13.206576 77.65182399999999H13.301832C13.425312 77.65182399999999 13.48176 77.732968 13.488816 77.895256L13.524096 78.851344C13.527624 78.957184 13.5876 79.01716 13.672272 79.01716C13.753416 79.01716 13.820447999999999 78.953656 13.820447999999999 78.8584V78.851344L13.788696 77.90584C13.778112 77.538928 13.636992 77.351944 13.330055999999999 77.351944H13.195992C13.02312 77.351944 12.924336 77.42603199999999 12.82908 77.493064L12.656208 77.609488Z"/><path d="M15.245759999999999 77.351944C15.143448 77.351944 15.030552 77.39428 14.959992 77.454256L14.695392 77.68710399999999C14.593079999999999 77.778832 14.54016 77.89878399999999 14.54016 78.02226399999999V78.34684C14.54016 78.47032 14.593079999999999 78.590272 14.695392 78.682L14.959992 78.91484799999999C15.030552 78.974824 15.143448 79.01716 15.245759999999999 79.01716H15.834935999999999C15.93372 79.01716 16.000752 78.953656 16.000752 78.868984C16.000752 78.784312 15.937248 78.72080799999999 15.834935999999999 78.72080799999999H15.245759999999999C15.199895999999999 78.72080799999999 15.1752 78.70316799999999 15.143448 78.678472L14.878848 78.449152C14.854152 78.427984 14.836511999999999 78.385648 14.836511999999999 78.34684V78.018736C14.836511999999999 77.979928 14.854152 77.94112 14.878848 77.919952L15.143448 77.690632C15.1752 77.662408 15.206952 77.644768 15.245759999999999 77.644768H15.834935999999999C15.944303999999999 77.644768 16.000752 77.584792 16.000752 77.50012C16.000752 77.415448 15.93372 77.351944 15.834935999999999 77.351944Z"/></g>
  <g aria-label="boost" transform="translate(0,-3.0)" style="fill:#888888;stroke:none"><path d="M25.705448 76.896832C25.705448 76.798048 25.641944000000002 76.731016 25.557272 76.731016C25.4726 76.731016 25.409096 76.790992 25.409096 76.896832V78.851344C25.409096 78.95012799999999 25.4726 79.01716 25.557272 79.01716C25.641944000000002 79.01716 25.705448 78.953656 25.705448 78.851344V78.819592L25.814816 78.91484799999999C25.892432 78.98188 25.998272 79.01716 26.097056000000002 79.01716H26.326376C26.428688 79.01716 26.523944 78.98540799999999 26.612144 78.91484799999999L26.710928000000003 78.837232C26.799128 78.766672 26.869688 78.62908 26.869688 78.498544V77.856448C26.869688 77.743552 26.802656000000002 77.602432 26.710928000000003 77.53187199999999L26.612144 77.454256C26.523944 77.383696 26.42516 77.351944 26.326376 77.351944H26.097056000000002C25.998272 77.351944 25.892432 77.387224 25.814816 77.454256L25.705448 77.549512ZM26.097056000000002 77.648296H26.326376C26.375768 77.648296 26.400464 77.665936 26.428688 77.690632L26.527472 77.768248C26.548640000000002 77.785888 26.569808000000002 77.82822399999999 26.569808000000002 77.867032V78.498544C26.569808000000002 78.54088 26.548640000000002 78.583216 26.527472 78.600856L26.428688 78.678472C26.396936 78.70316799999999 26.37224 78.72080799999999 26.326376 78.72080799999999H26.097056000000002C26.065304 78.72080799999999 26.030024 78.706696 25.994744 78.678472L25.744256 78.473848C25.71956 78.456208 25.70192 78.413872 25.70192 78.37153599999999V77.99404C25.70192 77.95170399999999 25.723088 77.909368 25.744256 77.891728L25.994744 77.690632C26.026496 77.662408 26.058248000000003 77.648296 26.097056000000002 77.648296Z"/><path d="M28.15388 77.351944C28.055096 77.351944 27.95984 77.387224 27.875168000000002 77.454256L27.748160000000002 77.556568C27.649376 77.637712 27.5894 77.768248 27.5894 77.895256V78.473848C27.5894 78.600856 27.649376 78.727864 27.748160000000002 78.80900799999999L27.875168000000002 78.91484799999999C27.95984 78.98188 28.055096 79.01716 28.15388 79.01716H28.481984C28.57724 79.01716 28.679552 78.98188 28.764224000000002 78.91484799999999L28.891232000000002 78.80900799999999C28.990016 78.727864 29.049992 78.600856 29.049992 78.473848V77.895256C29.049992 77.768248 28.990016 77.637712 28.891232000000002 77.556568L28.764224000000002 77.454256C28.679552 77.387224 28.57724 77.351944 28.481984 77.351944ZM28.157408 77.644768H28.481984C28.513736 77.644768 28.545488 77.65888 28.573712 77.680048L28.70072 77.785888C28.732472 77.81058399999999 28.75364 77.856448 28.75364 77.895256V78.473848C28.75364 78.51265599999999 28.732472 78.55852 28.70072 78.583216L28.573712 78.689056C28.545488 78.710224 28.513736 78.72080799999999 28.481984 78.72080799999999H28.157408C28.125656 78.72080799999999 28.093904000000002 78.710224 28.06568 78.689056L27.938672 78.583216C27.90692 78.55852 27.885752 78.516184 27.885752 78.473848V77.895256C27.885752 77.85292 27.90692 77.81058399999999 27.938672 77.785888L28.06568 77.680048C28.093904000000002 77.65888 28.125656 77.644768 28.157408 77.644768Z"/><path d="M30.334184 77.351944C30.2354 77.351944 30.140144 77.387224 30.055472 77.454256L29.928464 77.556568C29.82968 77.637712 29.769704 77.768248 29.769704 77.895256V78.473848C29.769704 78.600856 29.82968 78.727864 29.928464 78.80900799999999L30.055472 78.91484799999999C30.140144 78.98188 30.2354 79.01716 30.334184 79.01716H30.662288C30.757544 79.01716 30.859856 78.98188 30.944528000000002 78.91484799999999L31.071536000000002 78.80900799999999C31.17032 78.727864 31.230296 78.600856 31.230296 78.473848V77.895256C31.230296 77.768248 31.17032 77.637712 31.071536000000002 77.556568L30.944528000000002 77.454256C30.859856 77.387224 30.757544 77.351944 30.662288 77.351944ZM30.337712 77.644768H30.662288C30.69404 77.644768 30.725792 77.65888 30.754016 77.680048L30.881024 77.785888C30.912776 77.81058399999999 30.933944 77.856448 30.933944 77.895256V78.473848C30.933944 78.51265599999999 30.912776 78.55852 30.881024 78.583216L30.754016 78.689056C30.725792 78.710224 30.69404 78.72080799999999 30.662288 78.72080799999999H30.337712C30.30596 78.72080799999999 30.274208 78.710224 30.245984 78.689056L30.118976 78.583216C30.087224 78.55852 30.066056 78.516184 30.066056 78.473848V77.895256C30.066056 77.85292 30.087224 77.81058399999999 30.118976 77.785888L30.245984 77.680048C30.274208 77.65888 30.30596 77.644768 30.337712 77.644768Z"/><path d="M32.362784 77.351944C32.151104 77.351944 31.98176 77.524816 31.98176 77.732968C31.98176 77.884672 32.073488 78.018736 32.218136 78.08224L33.015464 78.427984C33.07544 78.45268 33.11072 78.509128 33.11072 78.569104C33.11072 78.653776 33.036632 78.72080799999999 32.959016 78.72080799999999H32.376896C32.24636 78.72080799999999 32.196968 78.597328 32.094656 78.597328C32.013512 78.597328 31.950008 78.66788799999999 31.950008 78.745504C31.950008 78.8584 32.15816 79.01716 32.376896 79.01716H32.959016C33.19892 79.01716 33.4106 78.819592 33.4106 78.569104C33.4106 78.385648 33.301232 78.226888 33.131888 78.1528L32.331032 77.81058399999999C32.295752 77.796472 32.278112 77.761192 32.278112 77.74002399999999C32.278112 77.680048 32.31692 77.648296 32.362784 77.648296H32.98724C33.103664 77.648296 33.114247999999996 77.771776 33.227144 77.771776C33.30476 77.771776 33.37532 77.708272 33.37532 77.6236C33.37532 77.510704 33.19892 77.351944 32.990768 77.351944Z"/><path d="M34.719488000000005 77.016784C34.719488000000005 76.91799999999999 34.652456 76.854496 34.567784 76.854496C34.483112000000006 76.854496 34.419608000000004 76.910944 34.419608000000004 77.016784V77.351944H34.296128C34.197344 77.351944 34.130312 77.415448 34.130312 77.50012C34.130312 77.584792 34.190288 77.648296 34.296128 77.648296H34.419608000000004V78.57616C34.419608000000004 78.816064 34.617176 79.01716 34.860608000000006 79.01716H35.14990400000001C35.407448 79.01716 35.587376000000006 78.79136799999999 35.587376000000006 78.61144C35.587376000000006 78.54088 35.5274 78.47032 35.442728 78.47032C35.322776000000005 78.47032 35.312192 78.565576 35.291024 78.618496C35.266328 78.68552799999999 35.213408 78.72080799999999 35.153432 78.72080799999999H34.860608000000006C34.779464000000004 78.72080799999999 34.719488000000005 78.657304 34.719488000000005 78.579688V77.648296H35.280440000000006C35.379224 77.648296 35.446256000000005 77.584792 35.446256000000005 77.50012C35.446256000000005 77.415448 35.382752 77.351944 35.280440000000006 77.351944H34.719488000000005Z"/></g>
  <g aria-label="alias" style="fill:#888888;stroke:none"><path d="M7.3642080000000005 91.351944C7.265424 91.351944 7.20192 91.415448 7.20192 91.50012C7.20192 91.584792 7.258368 91.648296 7.3642080000000005 91.648296H7.88988C7.971024 91.648296 8.031 91.70474399999999 8.034528 91.789416L8.045112 91.997568C8.002776 91.979928 7.96044 91.972872 7.914576 91.972872H7.350096000000001C7.11372 91.972872 6.909096 92.17044 6.909096 92.413872V92.579688C6.909096 92.819592 7.106664 93.01716 7.350096000000001 93.01716H7.769928C7.815792 93.01716 7.87224 92.995992 7.900464 92.978352L8.073336 92.868984C8.087448 92.96424 8.143896 93.01716 8.22504 93.01716C8.302656 93.01716 8.369688 92.95012799999999 8.369688 92.854872V92.847816L8.33088 91.789416C8.320296 91.524816 8.115672 91.351944 7.88988 91.351944ZM7.346568 92.269224H7.914576C7.992192 92.269224 8.059224 92.3292 8.059224 92.410344L8.062752 92.54088L7.745232 92.72080799999999H7.350096000000001C7.2689520000000005 92.72080799999999 7.2054480000000005 92.653776 7.2054480000000005 92.579688V92.413872C7.2054480000000005 92.332728 7.276008 92.269224 7.346568 92.269224Z"/><path d="M9.399864 90.731016C9.30108 90.731016 9.234048000000001 90.79451999999999 9.234048000000001 90.879192C9.234048000000001 90.963864 9.294024 91.027368 9.399864 91.027368H9.667992V92.72080799999999H9.399864C9.30108 92.72080799999999 9.234048000000001 92.784312 9.234048000000001 92.868984C9.234048000000001 92.953656 9.297552000000001 93.01716 9.399864 93.01716H10.239528C10.338312 93.01716 10.405344000000001 92.953656 10.405344000000001 92.868984C10.405344000000001 92.784312 10.341840000000001 92.72080799999999 10.239528 92.72080799999999H9.967872V90.879192C9.967872 90.79451999999999 9.904368 90.731016 9.802056 90.731016Z"/><path d="M11.869464 90.607536C11.767152 90.607536 11.703648 90.67103999999999 11.703648 90.755712V90.879192C11.703648 90.963864 11.763624 91.027368 11.869464 91.027368H11.98236C12.081144 91.027368 12.148176 90.963864 12.148176 90.879192V90.755712C12.148176 90.67103999999999 12.074088 90.607536 12.014112 90.607536ZM11.580168 91.351944C11.481384 91.351944 11.414352000000001 91.415448 11.414352000000001 91.50012C11.414352000000001 91.584792 11.474328 91.648296 11.580168 91.648296H11.848296V92.72080799999999H11.580168C11.481384 92.72080799999999 11.414352000000001 92.784312 11.414352000000001 92.868984C11.414352000000001 92.953656 11.477856000000001 93.01716 11.580168 93.01716H12.419832C12.518616 93.01716 12.585648 92.953656 12.585648 92.868984C12.585648 92.784312 12.522144 92.72080799999999 12.419832 92.72080799999999H12.148176V91.50012C12.148176 91.415448 12.084672 91.351944 11.98236 91.351944Z"/><path d="M13.90512 91.351944C13.806336 91.351944 13.742832 91.415448 13.742832 91.50012C13.742832 91.584792 13.79928 91.648296 13.90512 91.648296H14.430792C14.511936 91.648296 14.571912 91.70474399999999 14.57544 91.789416L14.586024 91.997568C14.543688 91.979928 14.501352 91.972872 14.455487999999999 91.972872H13.891008C13.654632 91.972872 13.450008 92.17044 13.450008 92.413872V92.579688C13.450008 92.819592 13.647575999999999 93.01716 13.891008 93.01716H14.310839999999999C14.356704 93.01716 14.413152 92.995992 14.441376 92.978352L14.614248 92.868984C14.62836 92.96424 14.684808 93.01716 14.765952 93.01716C14.843568 93.01716 14.910599999999999 92.95012799999999 14.910599999999999 92.854872V92.847816L14.871792 91.789416C14.861208 91.524816 14.656584 91.351944 14.430792 91.351944ZM13.88748 92.269224H14.455487999999999C14.533104 92.269224 14.600136 92.3292 14.600136 92.410344L14.603664 92.54088L14.286144 92.72080799999999H13.891008C13.809864 92.72080799999999 13.74636 92.653776 13.74636 92.579688V92.413872C13.74636 92.332728 13.81692 92.269224 13.88748 92.269224Z"/><path d="M16.043088 91.351944C15.831408 91.351944 15.662063999999999 91.524816 15.662063999999999 91.732968C15.662063999999999 91.884672 15.753791999999999 92.018736 15.898439999999999 92.08224L16.695768 92.427984C16.755744 92.45268 16.791024 92.509128 16.791024 92.569104C16.791024 92.653776 16.716936 92.72080799999999 16.639319999999998 92.72080799999999H16.057199999999998C15.926663999999999 92.72080799999999 15.877272 92.597328 15.77496 92.597328C15.693816 92.597328 15.630312 92.66788799999999 15.630312 92.745504C15.630312 92.8584 15.838464 93.01716 16.057199999999998 93.01716H16.639319999999998C16.879224 93.01716 17.090904 92.819592 17.090904 92.569104C17.090904 92.385648 16.981536 92.226888 16.812192 92.1528L16.011336 91.81058399999999C15.976056 91.796472 15.958416 91.761192 15.958416 91.74002399999999C15.958416 91.680048 15.997224 91.648296 16.043088 91.648296H16.667544C16.783967999999998 91.648296 16.794552 91.771776 16.907448 91.771776C16.985063999999998 91.771776 17.055623999999998 91.708272 17.055623999999998 91.6236C17.055623999999998 91.510704 16.879224 91.351944 16.671072 91.351944Z"/></g>
  <g aria-label="fract" style="fill:#888888;stroke:none"><path d="M26.287568 106.731016C26.008856 106.731016 25.768952000000002 106.960336 25.768952000000002 107.24963199999999V107.351944H25.645472C25.546688 107.351944 25.479656000000002 107.415448 25.479656000000002 107.50012C25.479656000000002 107.584792 25.539632 107.648296 25.645472 107.648296H25.768952000000002V108.851344C25.768952000000002 108.95012799999999 25.832456 109.01716 25.917128 109.01716C26.0018 109.01716 26.065304 108.953656 26.065304 108.851344V107.648296H26.340488C26.439272000000003 107.648296 26.506304 107.584792 26.506304 107.50012C26.506304 107.415448 26.442800000000002 107.351944 26.340488 107.351944H26.065304V107.24963199999999C26.065304 107.133208 26.167616000000002 107.027368 26.287568 107.027368H26.629784C26.728568000000003 107.027368 26.7956 106.963864 26.7956 106.879192C26.7956 106.79451999999999 26.732096000000002 106.731016 26.629784 106.731016Z"/><path d="M27.885752 107.51423199999999C27.885752 107.415448 27.822248000000002 107.351944 27.737576 107.351944C27.652904 107.351944 27.5894 107.40839199999999 27.5894 107.51423199999999V108.851344C27.5894 108.95012799999999 27.652904 109.01716 27.737576 109.01716C27.822248000000002 109.01716 27.885752 108.953656 27.885752 108.851344V108.061072L28.309112 107.68710399999999C28.333808 107.662408 28.386728 107.644768 28.414952 107.644768H28.608992C28.686608 107.644768 28.75364 107.7118 28.75364 107.789416V107.856448C28.75364 107.955232 28.817144 108.02226399999999 28.901816 108.02226399999999C28.986488 108.02226399999999 29.049992 107.95876 29.049992 107.856448V107.789416C29.049992 107.55304 28.852424 107.351944 28.608992 107.351944H28.414952C28.316168 107.351944 28.2068 107.39075199999999 28.132712 107.454256L27.885752 107.66946399999999Z"/><path d="M30.224816 107.351944C30.126032 107.351944 30.062528 107.415448 30.062528 107.50012C30.062528 107.584792 30.118976 107.648296 30.224816 107.648296H30.750488C30.831632 107.648296 30.891608 107.70474399999999 30.895136 107.789416L30.90572 107.997568C30.863384 107.979928 30.821048 107.972872 30.775184 107.972872H30.210704C29.974328 107.972872 29.769704 108.17044 29.769704 108.413872V108.579688C29.769704 108.819592 29.967272 109.01716 30.210704 109.01716H30.630536C30.6764 109.01716 30.732848 108.995992 30.761072 108.978352L30.933944 108.868984C30.948056 108.96424 31.004504 109.01716 31.085648 109.01716C31.163264 109.01716 31.230296 108.95012799999999 31.230296 108.854872V108.847816L31.191488 107.789416C31.180904 107.524816 30.97628 107.351944 30.750488 107.351944ZM30.207176 108.269224H30.775184C30.852800000000002 108.269224 30.919832 108.3292 30.919832 108.410344L30.92336 108.54088L30.60584 108.72080799999999H30.210704C30.12956 108.72080799999999 30.066056 108.653776 30.066056 108.579688V108.413872C30.066056 108.332728 30.136616 108.269224 30.207176 108.269224Z"/><path d="M32.655608 107.351944C32.553296 107.351944 32.4404 107.39428 32.369839999999996 107.454256L32.10524 107.68710399999999C32.002928 107.778832 31.950008 107.89878399999999 31.950008 108.02226399999999V108.34684C31.950008 108.47032 32.002928 108.590272 32.10524 108.682L32.369839999999996 108.91484799999999C32.4404 108.974824 32.553296 109.01716 32.655608 109.01716H33.244784C33.343568 109.01716 33.4106 108.953656 33.4106 108.868984C33.4106 108.784312 33.347096 108.72080799999999 33.244784 108.72080799999999H32.655608C32.609744 108.72080799999999 32.585048 108.70316799999999 32.553296 108.678472L32.288696 108.449152C32.264 108.427984 32.24636 108.385648 32.24636 108.34684V108.018736C32.24636 107.979928 32.264 107.94112 32.288696 107.919952L32.553296 107.690632C32.585048 107.662408 32.6168 107.644768 32.655608 107.644768H33.244784C33.354152 107.644768 33.4106 107.584792 33.4106 107.50012C33.4106 107.415448 33.343568 107.351944 33.244784 107.351944Z"/><path d="M34.719488000000005 107.016784C34.719488000000005 106.91799999999999 34.652456 106.854496 34.567784 106.854496C34.483112000000006 106.854496 34.419608000000004 106.910944 34.419608000000004 107.016784V107.351944H34.296128C34.197344 107.351944 34.130312 107.415448 34.130312 107.50012C34.130312 107.584792 34.190288 107.648296 34.296128 107.648296H34.419608000000004V108.57616C34.419608000000004 108.816064 34.617176 109.01716 34.860608000000006 109.01716H35.14990400000001C35.407448 109.01716 35.587376000000006 108.79136799999999 35.587376000000006 108.61144C35.587376000000006 108.54088 35.5274 108.47032 35.442728 108.47032C35.322776000000005 108.47032 35.312192 108.565576 35.291024 108.618496C35.266328 108.68552799999999 35.213408 108.72080799999999 35.153432 108.72080799999999H34.860608000000006C34.779464000000004 108.72080799999999 34.719488000000005 108.657304 34.719488000000005 108.579688V107.648296H35.280440000000006C35.379224 107.648296 35.446256000000005 107.584792 35.446256000000005 107.50012C35.446256000000005 107.415448 35.382752 107.351944 35.280440000000006 107.351944H34.719488000000005Z"/></g>
  </g>

  <!-- component reference markers (hidden) -->
  <g id="components" style="display:none">
    <circle cx="12.0" cy="22.0" r="2.0"    id="core-btn"/>
    <circle cx="12.0" cy="32.0" r="1.5"    id="core-led"/>
    <circle cx="12.0" cy="44.0" r="4.1775" id="core-gate"/>
    <circle cx="30.5" cy="22.0" r="4.5"    id="iter-knob"/>
    <circle cx="30.5" cy="33.0" r="2.5"    id="iter-atten"/>
    <circle cx="30.5" cy="44.0" r="4.1775" id="iter-cv"/>
    <circle cx="49.0" cy="22.0" r="4.5"    id="warp-knob"/>
    <circle cx="49.0" cy="33.0" r="2.5"    id="warp-atten"/>
    <circle cx="49.0" cy="44.0" r="4.1775" id="warp-cv"/>
    <circle cx="12.0" cy="60.0" r="4.1775" id="voct"/>
    <circle cx="30.5" cy="60.0" r="4.5"    id="freq-knob"/>
    <circle cx="49.0" cy="60.0" r="2.5"    id="fm-atten"/>
    <circle cx="19.0" cy="68.0" r="2.0"    id="freq-mode-btn"/>
    <circle cx="25.0" cy="68.0" r="1.5"    id="freq-mode-led"/>
    <circle cx="49.0" cy="73.0" r="4.1775" id="fm-in"/>
    <circle cx="12.0" cy="84.0" r="4.1775" id="sync"/>
    <circle cx="30.5" cy="84.0" r="4.5"    id="boost-knob"/>
    <circle cx="49.0" cy="84.0" r="4.1775" id="boost-cv"/>
    <circle cx="12.0" cy="98.0" r="2.0"    id="alias-btn"/>
    <circle cx="22.0" cy="98.0" r="1.5"    id="alias-led"/>
    <circle cx="49.0" cy="98.0" r="4.1775" id="alias-gate"/>
    <circle cx="30.5" cy="113.0" r="4.1775" id="fract-out"/>
  </g>
</svg>