<?xml version="1.0" encoding="UTF-8" standalone="no"?>
<svg
   xmlns:dc="http://purl.org/dc/elements/1.1/"
   xmlns:cc="http://creativecommons.org/ns#"
   xmlns:rdf="http://www.w3.org/1999/02/22-rdf-syntax-ns#"
   xmlns:svg="http://www.w3.org/2000/svg"
   xmlns="http://www.w3.org/2000/svg"
   xmlns:sodipodi="http://sodipodi.sourceforge.net/DTD/sodipodi-0.dtd"
   xmlns:inkscape="http://www.inkscape.org/namespaces/inkscape"
   sodipodi:docname="pavo.svg"
   inkscape:version="1.0.2 (e86c870879, 2021-01-15, custom)"
   id="svg55291"
   version="1.1"
   viewBox="0 0 25.400001 128.5007"
   height="128.5007mm"
   width="25.4mm">
  <defs
     id="defs55285" />
  <sodipodi:namedview
     inkscape:document-rotation="0"
     inkscape:window-maximized="0"
     inkscape:window-y="18"
     inkscape:window-x="0"
     inkscape:window-height="761"
     inkscape:window-width="1276"
     inkscape:snap-nodes="false"
     inkscape:snap-bbox-midpoints="true"
     inkscape:snap-bbox="true"
     fit-margin-bottom="0"
     fit-margin-right="0"
     fit-margin-left="0"
     fit-margin-top="0"
     showgrid="false"
     inkscape:current-layer="layer1"
     inkscape:document-units="mm"
     inkscape:cy="242.83597"
     inkscape:cx="-60.680436"
     inkscape:zoom="1.0747996"
     inkscape:pageshadow="2"
     inkscape:pageopacity="0.0"
     borderopacity="1.0"
     bordercolor="#666666"
     pagecolor="#ffffff"
     id="base" />
  <metadata
     id="metadata55288">
    <rdf:RDF>
      <cc:Work
         rdf:about="">
        <dc:format>image/svg+xml</dc:format>
        <dc:type
           rdf:resource="http://purl.org/dc/dcmitype/StillImage" />
        <dc:title />
      </cc:Work>
    </rdf:RDF>
  </metadata>
  <g
     style="display:inline"
     transform="translate(-8.01071,-5.675522)"
     id="layer1"
     inkscape:groupmode="layer"
     inkscape:label="graphics">
    <rect
       style="fill:#1a1a1a;stroke:none;stroke-width:0.265;stroke-linecap:round;stroke-miterlimit:4;stroke-dasharray:none"
       id="rect92"
       width="25.4"
       height="128.5"
       x="8.0107098"
       y="5.6755219" />
    <rect
       style="display:inline;fill:#e4e4e4;fill-opacity:1;stroke:none;stroke-width:0.999996;stroke-miterlimit:4;stroke-dasharray:none"
       id="rect1684"
       width="22"
       height="14"
       x="9.7107096"
       y="105.81718"
       rx="1.9999999"
       ry="1.9999999" />
    <path
       style="fill:none;stroke:#e5e5e5;stroke-width:0.265;stroke-linecap:butt;stroke-linejoin:miter;stroke-miterlimit:4;stroke-dasharray:none;stroke-opacity:1"
       d="m 16.190706,55.797535 11.509605,2.123082"
       id="path267" />
    <path
       style="fill:none;stroke:#e5e5e5;stroke-width:0.265;stroke-linecap:butt;stroke-linejoin:miter;stroke-miterlimit:4;stroke-dasharray:none;stroke-opacity:1"
       d="m 16.190706,82.785037 11.509605,2.123082"
       id="path1094" />
  </g>
  <g
     style="display:inline"
     inkscape:label="logo"
     id="layer2"
     inkscape:groupmode="layer"
     sodipodi:insensitive="true">
    <g
       style="display:inline"
       id="g2756"
       transform="rotate(180,22.142544,137.90457)">
      <rect
         ry="1.2"
         rx="1.1818184"
         y="150.05914"
         x="25.335091"
         height="5.5"
         width="12.5"
         id="rect3959-3"
         style="display:inline;fill:none;stroke:#ffd500;stroke-width:0.5;stroke-miterlimit:4;stroke-dasharray:none;stroke-opacity:1" />
      <rect
         style="fill:#ffd500;fill-opacity:1;stroke:none;stroke-width:0;stroke-linecap:round;stroke-miterlimit:4;stroke-dasharray:none;stroke-opacity:1"
         id="rect2659"
         width="0.25"
         height="4.5"
         x="31.460091"
         y="150.55914" />
      <circle
         cy="154.16956"
         cx="29.522081"
         id="circle2671"
         style="fill:#ffd500;fill-opacity:1;stroke:none;stroke-width:0;stroke-linecap:round;stroke-miterlimit:4;stroke-dasharray:none;stroke-opacity:1"
         r="0.625" />
      <circle
         r="0.625"
         style="fill:#ffd500;fill-opacity:1;stroke:none;stroke-width:0;stroke-linecap:round;stroke-miterlimit:4;stroke-dasharray:none;stroke-opacity:1"
         id="circle2683"
         cx="27.405416"
         cy="151.52373" />
      <circle
         r="0.625"
         style="fill:#ffd500;fill-opacity:1;stroke:none;stroke-width:0;stroke-linecap:round;stroke-miterlimit:4;stroke-dasharray:none;stroke-opacity:1"
         id="circle2685"
         cx="35.650894"
         cy="154.16956" />
      <circle
         cy="151.52373"
         cx="33.534229"
         id="circle2687"
         style="fill:#ffd500;fill-opacity:1;stroke:none;stroke-width:0;stroke-linecap:round;stroke-miterlimit:4;stroke-dasharray:none;stroke-opacity:1"
         r="0.625" />
    </g>
  </g>
  <g
     style="display:none"
     inkscape:label="text"
     id="layer3"
     inkscape:groupmode="layer"
     sodipodi:insensitive="true">
    <text
       id="text1545"
       y="10.775675"
       x="6.706049"
       style="font-size:4.93889px;line-height:1.25;font-family:sans-serif;letter-spacing:0px;word-spacing:0px;fill:#f9f9f9;stroke-width:0.264583"
       xml:space="preserve"><tspan
         style="font-style:normal;font-variant:normal;font-weight:normal;font-stretch:normal;font-size:4.93889px;font-family:OCR-A;-inkscape-font-specification:OCR-A;fill:#f9f9f9;stroke-width:0.264583"
         y="10.775675"
         x="6.706049"
         id="tspan1543"
         sodipodi:role="line">pavo</tspan></text>
    <text
       xml:space="preserve"
       style="font-style:normal;font-variant:normal;font-weight:normal;font-stretch:normal;font-size:7.05556px;line-height:1.25;font-family:OCR-A;-inkscape-font-specification:OCR-A;letter-spacing:0px;word-spacing:0px;display:inline;fill:#1a1a1a;fill-opacity:1;stroke:none;stroke-width:0.264583"
       x="6.3214102"
       y="112.72743"
       id="text282"><tspan
         sodipodi:role="line"
         id="tspan280"
         x="6.3214102"
         y="112.72743"
         style="font-style:normal;font-variant:normal;font-weight:normal;font-stretch:normal;font-size:3.52777px;font-family:OCR-A;-inkscape-font-specification:OCR-A;fill:#1a1a1a;fill-opacity:1;stroke-width:0.264583">L</tspan></text>
    <text
       id="text1241"
       y="60.983269"
       x="6.2912569"
       style="font-style:normal;font-weight:normal;font-size:3.52778px;line-height:1.25;font-family:sans-serif;letter-spacing:0px;word-spacing:0px;display:inline;fill:#e5e5e5;fill-opacity:1;stroke:none;stroke-width:0.264583"
       xml:space="preserve"><tspan
         style="font-style:normal;font-variant:normal;font-weight:normal;font-stretch:normal;font-size:3.52778px;font-family:OCR-A;-inkscape-font-specification:OCR-A;fill:#e5e5e5;fill-opacity:1;stroke-width:0.264583"
         y="60.983269"
         x="6.2912569"
         id="tspan1239"
         sodipodi:role="line">spread</tspan></text>
    <text
       xml:space="preserve"
       style="font-style:normal;font-variant:normal;font-weight:normal;font-stretch:normal;font-size:7.05556px;line-height:1.25;font-family:OCR-A;-inkscape-font-specification:OCR-A;letter-spacing:0px;word-spacing:0px;display:inline;fill:#1a1a1a;fill-opacity:1;stroke:none;stroke-width:0.264583"
       x="16.904737"
       y="112.72743"
       id="text75"><tspan
         sodipodi:role="line"
         id="tspan73"
         x="16.904737"
         y="112.72743"
         style="font-style:normal;font-variant:normal;font-weight:normal;font-stretch:normal;font-size:3.52777px;font-family:OCR-A;-inkscape-font-specification:OCR-A;fill:#1a1a1a;fill-opacity:1;stroke-width:0.264583">R</tspan></text>
    <text
       id="text81"
       y="32.408241"
       x="5.2223821"
       style="font-style:normal;font-weight:normal;font-size:3.52778px;line-height:1.25;font-family:sans-serif;letter-spacing:0px;word-spacing:0px;display:inline;fill:#e5e5e5;fill-opacity:1;stroke:none;stroke-width:0.264583"
       xml:space="preserve"><tspan
         style="font-style:normal;font-variant:normal;font-weight:normal;font-stretch:normal;font-size:3.52778px;font-family:OCR-A;-inkscape-font-specification:OCR-A;fill:#e5e5e5;fill-opacity:1;stroke-width:0.264583"
         y="32.408241"
         x="5.2223821"
         id="tspan79"
         sodipodi:role="line">poly in</tspan></text>
    <text
       id="text85"
       y="87.970757"
       x="6.2862329"
       style="font-style:normal;font-weight:normal;font-size:3.52778px;line-height:1.25;font-family:sans-serif;letter-spacing:0px;word-spacing:0px;display:inline;fill:#e5e5e5;fill-opacity:1;stroke:none;stroke-width:0.264583"
       xml:space="preserve"><tspan
         style="font-style:normal;font-variant:normal;font-weight:normal;font-stretch:normal;font-size:3.52778px;font-family:OCR-A;-inkscape-font-specification:OCR-A;fill:#e5e5e5;fill-opacity:1;stroke-width:0.264583"
         y="87.970757"
         x="6.2862329"
         id="tspan83"
         sodipodi:role="line">center</tspan></text>
  </g>
  <g
     style="display:inline"
     inkscape:label="text as path"
     id="g135"
     inkscape:groupmode="layer"
     sodipodi:insensitive="true">
    <g
       aria-label="center"
       id="text133"
       style="font-style:normal;font-weight:normal;font-size:3.52778px;line-height:1.25;font-family:sans-serif;letter-spacing:0px;word-spacing:0px;display:inline;fill:#e5e5e5;fill-opacity:1;stroke:none;stroke-width:0.264583">
      <path
         d="M 7.9588279,87.970757 H 7.3404328 q -0.1636421,0 -0.2790529,-0.09819 L 6.7806045,87.627969 Q 6.6462457,87.516004 6.6462457,87.324801 V 86.947563 Q 6.6393555,86.76325 6.79783,86.627168 l 0.2532146,-0.218763 q 0.122301,-0.09991 0.2618275,-0.09991 H 7.962273 q 0.060289,0 0.1016304,0.04306 0.043064,0.04134 0.043064,0.10163 0,0.06201 -0.043064,0.103353 -0.041341,0.04134 -0.1016304,0.04134 H 7.3404328 q -0.058567,0 -0.1119656,0.04651 l -0.2325441,0.198093 q -0.056844,0.04823 -0.056844,0.129191 v 0.353123 q 0,0.05684 0.044786,0.09646 l 0.2549373,0.217042 q 0.048231,0.04306 0.1274686,0.04306 h 0.5925568 q 0.058567,0 0.1016304,0.04306 0.043064,0.04134 0.043064,0.10163 0,0.06029 -0.043064,0.103353 -0.041341,0.04134 -0.1016304,0.04134 z"
         style="font-style:normal;font-variant:normal;font-weight:normal;font-stretch:normal;font-size:3.52778px;font-family:OCR-A;-inkscape-font-specification:OCR-A;fill:#e5e5e5;fill-opacity:1;stroke-width:0.264583"
         id="path137" />
      <path
         d="M 10.23087,86.852822 V 87.2025 q 0,0.05857 -0.04306,0.10163 -0.04306,0.04306 -0.10163,0.04306 H 9.0629816 v 0.08441 q 0,0.07407 0.063734,0.125746 l 0.084405,0.07062 q 0.068902,0.0534 0.1309137,0.0534 h 0.7441417 q 0.05857,0 0.10163,0.04306 0.04306,0.04134 0.04306,0.10163 0,0.05857 -0.04479,0.101631 -0.04306,0.04306 -0.09991,0.04306 H 9.3230865 q -0.075792,0 -0.160197,-0.03101 -0.082682,-0.03273 -0.122301,-0.06718 L 8.9113973,87.758883 q -0.060289,-0.04823 -0.1016304,-0.134359 -0.039619,-0.08613 -0.039619,-0.158474 v -0.663182 q 0,-0.05684 0.043064,-0.153306 0.044786,-0.09646 0.1119657,-0.149862 L 9.045756,86.40496 Q 9.1646119,86.3085 9.309306,86.3085 h 0.4065215 q 0.1533069,0 0.2893885,0.127469 l 0.10852,0.103352 q 0.117134,0.105076 0.117134,0.313504 z m -1.1644433,-0.02239 v 0.223932 h 0.8784999 v -0.201539 q 0,-0.08096 -0.049954,-0.124023 l -0.084405,-0.07407 Q 9.745111,86.60133 9.6934345,86.60133 H 9.3299767 q -0.067179,0 -0.122301,0.04651 l -0.084405,0.07062 q -0.056844,0.04306 -0.056844,0.111965 z"
         style="font-style:normal;font-variant:normal;font-weight:normal;font-stretch:normal;font-size:3.52778px;font-family:OCR-A;-inkscape-font-specification:OCR-A;fill:#e5e5e5;fill-opacity:1;stroke-width:0.264583"
         id="path139" />
      <path
         d="m 11.588238,86.644394 -0.394464,0.25666 v 0.925008 q 0,0.05857 -0.04306,0.101631 -0.04306,0.04306 -0.101631,0.04306 -0.05857,0 -0.10163,-0.04306 -0.04306,-0.04306 -0.04306,-0.101631 v -1.372871 q 0,-0.06029 0.04134,-0.103353 0.04306,-0.04479 0.103353,-0.04479 0.05857,0 0.101631,0.04479 0.04306,0.04306 0.04306,0.103353 v 0.09646 l 0.26355,-0.160197 q 0.132637,-0.0844 0.299724,-0.0844 h 0.134359 q 0.172255,0 0.298001,0.122301 0.125746,0.122301 0.132636,0.301446 l 0.03962,1.097263 q 0.0017,0.05857 -0.04134,0.101631 -0.04306,0.04306 -0.103352,0.04306 -0.05685,0 -0.09991,-0.0379 -0.04306,-0.03962 -0.04479,-0.106798 l -0.04306,-1.080038 q -0.0052,-0.151584 -0.158475,-0.151584 h -0.141249 q -0.06546,0 -0.141249,0.04995 z"
         style="font-style:normal;font-variant:normal;font-weight:normal;font-stretch:normal;font-size:3.52778px;font-family:OCR-A;-inkscape-font-specification:OCR-A;fill:#e5e5e5;fill-opacity:1;stroke-width:0.264583"
         id="path141" />
      <path
         d="m 14.051483,87.970757 h -0.289388 q -0.179145,0 -0.308336,-0.127469 -0.129191,-0.127469 -0.129191,-0.306614 v -0.938789 h -0.14814 q -0.06029,0 -0.103353,-0.04134 -0.04134,-0.04134 -0.04134,-0.103353 0,-0.06029 0.04134,-0.10163 0.04306,-0.04306 0.103353,-0.04306 h 0.151585 v -0.354845 q 0,-0.06029 0.04134,-0.101631 0.04306,-0.04306 0.103353,-0.04306 0.05684,0 0.09991,0.04306 0.04479,0.04306 0.04479,0.101631 v 0.354845 h 0.582221 q 0.05857,0 0.101631,0.04306 0.04306,0.04306 0.04306,0.10163 0,0.06029 -0.04306,0.103353 -0.04306,0.04134 -0.101631,0.04134 h -0.585666 v 0.938789 q 0,0.05857 0.04306,0.101631 0.04479,0.04306 0.105075,0.04306 h 0.282498 q 0.115411,0 0.153307,-0.124023 0.0379,-0.125746 0.146416,-0.125746 0.06374,0 0.103353,0.04306 0.04134,0.04134 0.04134,0.105076 0,0.130914 -0.124024,0.261827 -0.122301,0.129192 -0.313504,0.129192 z"
         style="font-style:normal;font-variant:normal;font-weight:normal;font-stretch:normal;font-size:3.52778px;font-family:OCR-A;-inkscape-font-specification:OCR-A;fill:#e5e5e5;fill-opacity:1;stroke-width:0.264583"
         id="path143" />
      <path
         d="M 16.623248,86.852822 V 87.2025 q 0,0.05857 -0.04306,0.10163 -0.04306,0.04306 -0.101631,0.04306 H 15.45536 v 0.08441 q 0,0.07407 0.06373,0.125746 l 0.0844,0.07062 q 0.0689,0.0534 0.130914,0.0534 h 0.744141 q 0.05857,0 0.101631,0.04306 0.04306,0.04134 0.04306,0.10163 0,0.05857 -0.04479,0.101631 -0.04306,0.04306 -0.09991,0.04306 h -0.763089 q -0.07579,0 -0.160197,-0.03101 -0.08268,-0.03273 -0.122301,-0.06718 l -0.129191,-0.113688 q -0.06029,-0.04823 -0.10163,-0.134359 -0.03962,-0.08613 -0.03962,-0.158474 v -0.663182 q 0,-0.05684 0.04306,-0.153306 0.04479,-0.09646 0.111965,-0.149862 l 0.120579,-0.09474 q 0.118856,-0.09646 0.26355,-0.09646 h 0.406521 q 0.153307,0 0.289388,0.127469 l 0.108521,0.103352 q 0.117133,0.105076 0.117133,0.313504 z m -1.164443,-0.02239 v 0.223932 h 0.8785 v -0.201539 q 0,-0.08096 -0.04995,-0.124023 l -0.08441,-0.07407 q -0.06546,-0.0534 -0.117133,-0.0534 h -0.363458 q -0.06718,0 -0.122301,0.04651 l -0.08441,0.07062 q -0.05684,0.04306 -0.05684,0.111965 z"
         style="font-style:normal;font-variant:normal;font-weight:normal;font-stretch:normal;font-size:3.52778px;font-family:OCR-A;-inkscape-font-specification:OCR-A;fill:#e5e5e5;fill-opacity:1;stroke-width:0.264583"
         id="path145" />
      <path
         d="m 17.296765,87.826062 v -1.372871 q 0,-0.06029 0.04134,-0.103353 0.04306,-0.04479 0.103353,-0.04479 0.06029,0 0.10163,0.04306 0.04306,0.04306 0.04306,0.105075 v 0.180868 l 0.235989,-0.201539 q 0.146417,-0.124023 0.285943,-0.124023 h 0.211874 q 0.179145,0 0.306613,0.127469 0.127469,0.127468 0.127469,0.306613 v 0.07751 q 0,0.06201 -0.04306,0.105075 -0.04134,0.04306 -0.10163,0.04306 -0.06029,0 -0.103353,-0.04134 -0.04134,-0.04306 -0.04134,-0.103353 v -0.08096 q 0,-0.06029 -0.04306,-0.10163 -0.04134,-0.04306 -0.10163,-0.04306 h -0.187758 q -0.06029,0 -0.134359,0.06373 l -0.411689,0.356568 v 0.807875 q 0,0.06029 -0.04306,0.103353 -0.04306,0.04134 -0.10163,0.04134 -0.06029,0 -0.103353,-0.04134 -0.04134,-0.04306 -0.04134,-0.103353 z"
         style="font-style:normal;font-variant:normal;font-weight:normal;font-stretch:normal;font-size:3.52778px;font-family:OCR-A;-inkscape-font-specification:OCR-A;fill:#e5e5e5;fill-opacity:1;stroke-width:0.264583"
         id="path147" />
    </g>
    <g
       aria-label="pavo"
       id="text113"
       style="font-size:4.93889px;line-height:1.25;font-family:sans-serif;letter-spacing:0px;word-spacing:0px;fill:#f9f9f9;stroke-width:0.264583">
      <path
         d="m 7.6152099,10.544164 v 0.897103 q 0,0.08682 -0.060289,0.147106 -0.057878,0.06029 -0.1422825,0.06029 -0.084405,0 -0.1471056,-0.06029 -0.060289,-0.06029 -0.060289,-0.147106 V 8.5522097 q 0,-0.081993 0.060289,-0.1422825 0.060289,-0.060289 0.1471056,-0.060289 0.081993,0 0.1422825,0.060289 0.060289,0.060289 0.060289,0.1422825 V 8.6824343 Q 7.9094211,8.3544612 8.1963976,8.3544612 h 0.094051 q 0.2146295,0 0.3954971,0.1591634 l 0.3376194,0.2917997 q 0.2218642,0.1929254 0.2218642,0.4895482 v 0.6318306 q 0,0.2990339 -0.2387452,0.5040179 l -0.3303847,0.284565 q -0.1639866,0.149517 -0.4147896,0.149517 h -0.089228 q -0.2363336,0 -0.4003202,-0.163987 z m 0.5715414,-0.08923 h 0.1036974 q 0.074759,0 0.1591635,-0.07476 l 0.3159153,-0.27733 q 0.079582,-0.0627 0.079582,-0.1712218 V 9.2780915 q 0,-0.096463 -0.089228,-0.1712213 L 8.4158502,8.8150705 Q 8.3579726,8.7644276 8.2904487,8.7644276 H 8.1722819 q -0.067524,0 -0.1760444,0.1109321 L 7.6947916,9.1743941 q -0.079582,0.079582 -0.079582,0.178456 v 0.518487 q 0,0.094051 0.089228,0.1832789 l 0.2917996,0.2918 q 0.1085205,0.10852 0.1905138,0.10852 z"
         style="font-style:normal;font-variant:normal;font-weight:normal;font-stretch:normal;font-size:4.93889px;font-family:OCR-A;-inkscape-font-specification:OCR-A;fill:#f9f9f9;stroke-width:0.264583"
         id="path182" />
      <path
         d="m 10.791244,9.314265 h 0.793406 q 0.06511,0 0.188102,0.028939 l -0.0048,-0.2869765 q 0,-0.084405 -0.06029,-0.1422825 -0.05788,-0.060289 -0.142283,-0.060289 h -0.76929 q -0.08199,0 -0.142282,-0.060289 -0.06029,-0.060289 -0.06029,-0.1422824 0,-0.084405 0.05788,-0.1422825 0.06029,-0.060289 0.144694,-0.060289 h 0.76929 q 0.250803,0 0.426848,0.1760444 0.178456,0.1760444 0.18569,0.4316706 l 0.05064,1.5168759 q 0,0.08441 -0.06029,0.144694 -0.06029,0.05788 -0.142282,0.05788 -0.08682,0 -0.147106,-0.05788 -0.06029,-0.06029 -0.06029,-0.144694 l -0.342443,0.202572 h -0.684885 q -0.255626,0 -0.434082,-0.178456 -0.178456,-0.178456 -0.178456,-0.434082 V 9.9268031 q 0,-0.2532146 0.178456,-0.4316706 0.180867,-0.1808675 0.434082,-0.1808675 z m 1.012858,0.788583 -0.01206,-0.1712218 q -0.0024,-0.086816 -0.06029,-0.144694 -0.05788,-0.057878 -0.142282,-0.057878 h -0.798229 q -0.08441,0 -0.144694,0.060289 -0.05788,0.057878 -0.05788,0.1422824 v 0.2266874 q 0,0.08199 0.06029,0.142282 0.06029,0.06029 0.142282,0.06029 h 0.571541 z"
         style="font-style:normal;font-variant:normal;font-weight:normal;font-stretch:normal;font-size:4.93889px;font-family:OCR-A;-inkscape-font-specification:OCR-A;fill:#f9f9f9;stroke-width:0.264583"
         id="path184" />
      <path
         d="m 15.211647,8.651084 v 0.3858507 l -0.701766,1.5964573 q -0.06752,0.142283 -0.178456,0.142283 h -0.260449 q -0.142283,0 -0.207395,-0.147106 L 13.166638,9.0417579 V 8.651084 q 0,-0.084405 0.05788,-0.1422825 0.06029,-0.060289 0.144694,-0.060289 0.08441,0 0.142283,0.060289 0.06029,0.057878 0.06029,0.1422825 V 8.9621762 L 14.189142,10.351239 14.80168,8.957353 V 8.651084 q 0,-0.084405 0.06029,-0.1422825 0.06029,-0.060289 0.147105,-0.060289 0.08441,0 0.142283,0.060289 0.06029,0.057878 0.06029,0.1422825 z"
         style="font-style:normal;font-variant:normal;font-weight:normal;font-stretch:normal;font-size:4.93889px;font-family:OCR-A;-inkscape-font-specification:OCR-A;fill:#f9f9f9;stroke-width:0.264583"
         id="path186" />
      <path
         d="m 18.194756,9.1792172 v 0.8561068 q 0,0.272507 -0.258038,0.504017 -0.255626,0.231511 -0.528133,0.231511 h -0.475079 q -0.27733,0 -0.530545,-0.233922 -0.253214,-0.236334 -0.253214,-0.501606 V 9.1792172 q 0,-0.2652724 0.24598,-0.4991944 0.248391,-0.2363336 0.537779,-0.2363336 h 0.475079 q 0.272507,-0.00482 0.528133,0.2266873 0.258038,0.2315105 0.258038,0.5088407 z m -1.635043,0.016881 v 0.8199328 q 0,0.110932 0.07958,0.176045 l 0.151929,0.130224 q 0.05064,0.04341 0.142282,0.04341 h 0.470256 q 0.103697,0 0.188102,-0.07476 l 0.12299,-0.108521 q 0.07476,-0.05788 0.07476,-0.161575 V 9.2009213 q 0,-0.1205783 -0.07476,-0.178456 l -0.14228,-0.1133436 q -0.07235,-0.060289 -0.16881,-0.060289 h -0.419613 q -0.137459,0 -0.212218,0.065112 l -0.137459,0.1181668 q -0.07476,0.062701 -0.07476,0.1639866 z"
         style="font-style:normal;font-variant:normal;font-weight:normal;font-stretch:normal;font-size:4.93889px;font-family:OCR-A;-inkscape-font-specification:OCR-A;fill:#f9f9f9;stroke-width:0.264583"
         id="path188" />
    </g>
    <g
       aria-label="L"
       id="text117"
       style="font-style:normal;font-variant:normal;font-weight:normal;font-stretch:normal;font-size:7.05556px;line-height:1.25;font-family:OCR-A;-inkscape-font-specification:OCR-A;letter-spacing:0px;word-spacing:0px;display:inline;fill:#1a1a1a;fill-opacity:1;stroke:none;stroke-width:0.264583">
      <path
         d="m 6.6779768,112.72743 v -2.14456 q 0,-0.0586 0.043064,-0.10164 0.043064,-0.0431 0.1016301,-0.0431 0.058566,0 0.1016301,0.0431 0.043064,0.0431 0.043064,0.10164 v 1.85517 h 1.0231911 q 0.060289,0 0.1033526,0.0431 0.044786,0.0413 0.044786,0.10163 0,0.0603 -0.044786,0.10335 -0.043064,0.0413 -0.1033526,0.0413 z"
         style="font-style:normal;font-variant:normal;font-weight:normal;font-stretch:normal;font-size:3.52777px;font-family:OCR-A;-inkscape-font-specification:OCR-A;fill:#1a1a1a;fill-opacity:1;stroke-width:0.264583"
         id="path179" />
    </g>
    <g
       aria-label="spread"
       id="text121"
       style="font-style:normal;font-weight:normal;font-size:3.52778px;line-height:1.25;font-family:sans-serif;letter-spacing:0px;word-spacing:0px;display:inline;fill:#e5e5e5;fill-opacity:1;stroke:none;stroke-width:0.264583">
      <path
         d="m 7.0526235,59.321009 h 0.6631813 q 0.1550294,0 0.2738853,0.09302 0.1188558,0.0913 0.1188558,0.179145 0,0.06201 -0.044786,0.10163 -0.043064,0.03962 -0.096463,0.03962 -0.068902,0 -0.125746,-0.06201 -0.056844,-0.06201 -0.1188559,-0.06201 H 7.0681264 q -0.096463,0 -0.096463,0.08096 0,0.05684 0.063734,0.08613 l 0.7699793,0.341064 q 0.1171334,0.05168 0.191203,0.167087 0.075792,0.113689 0.075792,0.253215 0,0.186035 -0.1326362,0.315227 -0.1309138,0.129191 -0.298001,0.129191 H 7.0560686 q -0.1515843,0 -0.282498,-0.0913 -0.1291912,-0.09129 -0.1291912,-0.177423 0,-0.05684 0.041341,-0.09991 0.043064,-0.04479 0.1102431,-0.04479 0.055122,0 0.1171333,0.06201 0.063734,0.06201 0.1825902,0.06201 h 0.539158 q 0.063734,0 0.106798,-0.04823 0.043064,-0.04995 0.043064,-0.113688 0,-0.09819 -0.096463,-0.141249 L 6.9113745,60.041035 Q 6.7994088,59.991081 6.7391196,59.89634 6.6788304,59.8016 6.6788304,59.703415 q 0,-0.155029 0.106798,-0.268718 0.1085206,-0.113688 0.2669951,-0.113688 z"
         style="font-style:normal;font-variant:normal;font-weight:normal;font-stretch:normal;font-size:3.52778px;font-family:OCR-A;-inkscape-font-specification:OCR-A;fill:#e5e5e5;fill-opacity:1;stroke-width:0.264583"
         id="path166" />
      <path
         d="m 9.0714507,60.817904 v 0.640788 q 0,0.06201 -0.043064,0.105076 -0.041341,0.04306 -0.1016304,0.04306 -0.060289,0 -0.1050755,-0.04306 -0.043064,-0.04306 -0.043064,-0.105076 v -2.063613 q 0,-0.05857 0.043064,-0.101631 0.043064,-0.04306 0.1050755,-0.04306 0.058567,0 0.1016304,0.04306 0.043064,0.04306 0.043064,0.101631 v 0.09302 Q 9.2816016,59.25383 9.486585,59.25383 h 0.067179 q 0.1533068,0 0.282498,0.113688 l 0.241157,0.208428 q 0.158475,0.137804 0.158475,0.349678 v 0.451308 q 0,0.213596 -0.170533,0.360012 l -0.2359892,0.203261 q -0.1171333,0.106798 -0.2962784,0.106798 h -0.063734 q -0.1688098,0 -0.2859431,-0.117133 z m 0.4082441,-0.06373 h 0.07407 q 0.053399,0 0.1136882,-0.0534 l 0.2256539,-0.198093 q 0.056844,-0.04479 0.056844,-0.122301 v -0.466811 q 0,-0.0689 -0.063734,-0.122301 l -0.24288,-0.208431 q -0.041341,-0.03617 -0.089572,-0.03617 h -0.084405 q -0.048231,0 -0.1257461,0.07924 l -0.2153186,0.213596 q -0.056844,0.05684 -0.056844,0.127469 v 0.370348 q 0,0.06718 0.063734,0.130914 l 0.2084284,0.208428 q 0.077515,0.07752 0.1360814,0.07752 z"
         style="font-style:normal;font-variant:normal;font-weight:normal;font-stretch:normal;font-size:3.52778px;font-family:OCR-A;-inkscape-font-specification:OCR-A;fill:#e5e5e5;fill-opacity:1;stroke-width:0.264583"
         id="path168" />
      <path
         d="m 10.90941,60.838575 v -1.372872 q 0,-0.06029 0.04134,-0.103353 0.04306,-0.04479 0.103353,-0.04479 0.06029,0 0.101631,0.04306 0.04306,0.04306 0.04306,0.105075 v 0.180868 l 0.23599,-0.201538 Q 11.5812,59.321001 11.720727,59.321001 H 11.9326 q 0.179145,0 0.306614,0.127469 0.127469,0.127468 0.127469,0.306613 v 0.07751 q 0,0.06201 -0.04306,0.105076 -0.04134,0.04306 -0.101631,0.04306 -0.06029,0 -0.103352,-0.04134 -0.04134,-0.04306 -0.04134,-0.103353 v -0.08096 q 0,-0.06029 -0.04306,-0.10163 -0.04134,-0.04306 -0.101631,-0.04306 h -0.187758 q -0.06029,0 -0.134358,0.06374 l -0.41169,0.356567 v 0.807876 q 0,0.06029 -0.04306,0.103353 -0.04306,0.04134 -0.101631,0.04134 -0.06029,0 -0.103353,-0.04134 -0.04134,-0.04306 -0.04134,-0.103353 z"
         style="font-style:normal;font-variant:normal;font-weight:normal;font-stretch:normal;font-size:3.52778px;font-family:OCR-A;-inkscape-font-specification:OCR-A;fill:#e5e5e5;fill-opacity:1;stroke-width:0.264583"
         id="path170" />
      <path
         d="m 14.49748,59.865335 v 0.349677 q 0,0.05857 -0.04306,0.10163 -0.04306,0.04306 -0.10163,0.04306 h -1.023194 v 0.0844 q 0,0.07407 0.06373,0.125746 l 0.08441,0.07062 q 0.0689,0.0534 0.130913,0.0534 h 0.744142 q 0.05857,0 0.10163,0.04306 0.04306,0.04134 0.04306,0.101631 0,0.05857 -0.04479,0.10163 -0.04306,0.04306 -0.09991,0.04306 h -0.76309 q -0.07579,0 -0.160197,-0.03101 -0.08268,-0.03273 -0.122301,-0.06718 l -0.129191,-0.113688 q -0.06029,-0.04823 -0.10163,-0.134359 -0.03962,-0.08613 -0.03962,-0.158474 v -0.663181 q 0,-0.05684 0.04306,-0.153307 0.04479,-0.09646 0.111966,-0.149862 l 0.120578,-0.09474 q 0.118856,-0.09646 0.26355,-0.09646 h 0.406522 q 0.153306,0 0.289388,0.127469 l 0.10852,0.103353 q 0.117134,0.105075 0.117134,0.313504 z m -1.164443,-0.02239 v 0.223932 h 0.8785 v -0.201538 q 0,-0.08096 -0.04995,-0.124024 l -0.08441,-0.07407 q -0.06546,-0.0534 -0.117134,-0.0534 h -0.363457 q -0.06718,0 -0.122301,0.04651 l -0.0844,0.07062 q -0.05684,0.04306 -0.05684,0.111965 z"
         style="font-style:normal;font-variant:normal;font-weight:normal;font-stretch:normal;font-size:3.52778px;font-family:OCR-A;-inkscape-font-specification:OCR-A;fill:#e5e5e5;fill-opacity:1;stroke-width:0.264583"
         id="path172" />
      <path
         d="m 15.601633,59.939404 h 0.566719 q 0.04651,0 0.134359,0.02067 l -0.0034,-0.204984 q 0,-0.06029 -0.04306,-0.10163 -0.04134,-0.04306 -0.101631,-0.04306 h -0.549493 q -0.05857,0 -0.10163,-0.04306 -0.04306,-0.04306 -0.04306,-0.101631 0,-0.06029 0.04134,-0.10163 0.04306,-0.04306 0.103353,-0.04306 h 0.549493 q 0.179145,0 0.304891,0.125746 0.127469,0.125746 0.132637,0.308336 l 0.03617,1.083484 q 0,0.06029 -0.04306,0.103353 -0.04306,0.04134 -0.101631,0.04134 -0.06201,0 -0.105075,-0.04134 -0.04306,-0.04306 -0.04306,-0.103353 l -0.244602,0.144694 h -0.489204 q -0.18259,0 -0.310059,-0.127469 -0.127468,-0.127468 -0.127468,-0.310059 v -0.168809 q 0,-0.180868 0.127468,-0.308337 0.129192,-0.129191 0.310059,-0.129191 z m 0.723471,0.563274 -0.0086,-0.122301 q -0.0017,-0.06201 -0.04306,-0.103353 -0.04134,-0.04134 -0.10163,-0.04134 H 15.60165 q -0.06029,0 -0.103353,0.04306 -0.04134,0.04134 -0.04134,0.101631 v 0.161919 q 0,0.05857 0.04306,0.101631 0.04306,0.04306 0.10163,0.04306 h 0.408244 z"
         style="font-style:normal;font-variant:normal;font-weight:normal;font-stretch:normal;font-size:3.52778px;font-family:OCR-A;-inkscape-font-specification:OCR-A;fill:#e5e5e5;fill-opacity:1;stroke-width:0.264583"
         id="path174" />
      <path
         d="m 18.466232,59.522547 v -0.683852 q 0,-0.06029 0.04134,-0.10163 0.04134,-0.04306 0.09991,-0.04306 0.06029,0 0.103353,0.04306 0.04479,0.04134 0.04479,0.10163 v 1.99988 q 0,0.06029 -0.04306,0.103353 -0.04306,0.04134 -0.10163,0.04134 -0.06201,0 -0.103353,-0.04134 -0.04134,-0.04306 -0.04134,-0.103353 v -0.06374 q -0.211874,0.208429 -0.396187,0.208429 h -0.246324 q -0.148139,0 -0.296279,-0.127469 l -0.120578,-0.10163 q -0.04134,-0.03962 -0.07924,-0.132637 -0.03617,-0.09302 -0.03617,-0.173977 v -0.589112 q 0,-0.09819 0.04134,-0.18948 0.04134,-0.09302 0.09646,-0.139526 l 0.118856,-0.101631 q 0.127469,-0.110243 0.299724,-0.110243 h 0.208428 q 0.170532,0 0.310059,0.120578 z m -0.420302,0.08785 h -0.201539 q -0.06373,0 -0.11541,0.04651 l -0.09302,0.08096 q -0.04823,0.04306 -0.04823,0.110243 v 0.613227 q 0,0.06029 0.05684,0.108521 l 0.09474,0.08096 q 0.04479,0.03962 0.09474,0.03962 h 0.235989 q 0.04651,0 0.110243,-0.0534 l 0.229099,-0.18948 q 0.05685,-0.04995 0.05685,-0.124023 v -0.313504 q 0,-0.105076 -0.06029,-0.15503 l -0.235989,-0.201538 q -0.04651,-0.04306 -0.124023,-0.04306 z"
         style="font-style:normal;font-variant:normal;font-weight:normal;font-stretch:normal;font-size:3.52778px;font-family:OCR-A;-inkscape-font-specification:OCR-A;fill:#e5e5e5;fill-opacity:1;stroke-width:0.264583"
         id="path176" />
    </g>
    <g
       aria-label="R"
       id="text125"
       style="font-style:normal;font-variant:normal;font-weight:normal;font-stretch:normal;font-size:7.05556px;line-height:1.25;font-family:OCR-A;-inkscape-font-specification:OCR-A;letter-spacing:0px;word-spacing:0px;display:inline;fill:#1a1a1a;fill-opacity:1;stroke:none;stroke-width:0.264583">
      <path
         d="m 17.264749,112.58274 v -2.14457 h 1.023191 q 0.177422,0 0.304891,0.12919 0.12919,0.12919 0.12919,0.30834 v 0.16536 q 0,0.18087 -0.127468,0.31006 -0.127468,0.12747 -0.306613,0.12747 h -0.184312 l 0.592555,1.0163 q 0.02756,0.0448 0.02756,0.0896 0,0.0586 -0.04479,0.10163 -0.04479,0.0413 -0.10163,0.0413 -0.08613,0 -0.130914,-0.0775 l -0.680405,-1.17133 h -0.208427 v 1.10415 q 0,0.0603 -0.04479,0.10335 -0.04306,0.0413 -0.103352,0.0413 -0.06029,0 -0.103353,-0.0413 -0.04134,-0.0431 -0.04134,-0.10335 z m 0.289388,-1.39354 h 0.733803 q 0.06029,0 0.10163,-0.0413 0.04306,-0.0431 0.04306,-0.10335 v -0.16881 q 0,-0.0603 -0.04306,-0.10163 -0.04134,-0.0431 -0.10163,-0.0431 h -0.733803 z"
         style="font-style:normal;font-variant:normal;font-weight:normal;font-stretch:normal;font-size:3.52777px;font-family:OCR-A;-inkscape-font-specification:OCR-A;fill:#1a1a1a;fill-opacity:1;stroke-width:0.264583"
         id="path163" />
    </g>
    <g
       aria-label="poly in"
       id="text129"
       style="font-style:normal;font-weight:normal;font-size:3.52778px;line-height:1.25;font-family:sans-serif;letter-spacing:0px;word-spacing:0px;display:inline;fill:#e5e5e5;fill-opacity:1;stroke:none;stroke-width:0.264583">
      <path
         d="m 5.871783,32.242877 v 0.640788 q 0,0.06201 -0.043064,0.105075 -0.041341,0.04306 -0.1016304,0.04306 -0.060289,0 -0.1050755,-0.04306 -0.043064,-0.04306 -0.043064,-0.105075 v -2.063614 q 0,-0.05857 0.043064,-0.10163 0.043064,-0.04306 0.1050755,-0.04306 0.058567,0 0.1016304,0.04306 0.043064,0.04306 0.043064,0.10163 v 0.09302 q 0.2101509,-0.234267 0.4151343,-0.234267 h 0.067179 q 0.1533068,0 0.282498,0.113688 l 0.2411568,0.208429 q 0.1584745,0.137804 0.1584745,0.349677 v 0.451308 q 0,0.213596 -0.1705323,0.360013 L 6.6297041,32.36518 q -0.1171333,0.106798 -0.2962784,0.106798 h -0.063734 q -0.1688098,0 -0.2859431,-0.117134 z m 0.4082441,-0.06374 h 0.07407 q 0.053399,0 0.1136882,-0.0534 L 6.6934388,31.92765 q 0.056844,-0.04479 0.056844,-0.122301 v -0.466811 q 0,-0.0689 -0.063734,-0.122301 L 6.4436692,31.007809 q -0.041341,-0.03617 -0.089573,-0.03617 h -0.084405 q -0.048231,0 -0.1257461,0.07924 l -0.2153186,0.213596 q -0.056844,0.05684 -0.056844,0.127468 v 0.370348 q 0,0.06718 0.063734,0.130914 l 0.2084284,0.208429 q 0.077515,0.07751 0.1360814,0.07751 z"
         style="font-style:normal;font-variant:normal;font-weight:normal;font-stretch:normal;font-size:3.52778px;font-family:OCR-A;-inkscape-font-specification:OCR-A;fill:#e5e5e5;fill-opacity:1;stroke-width:0.264583"
         id="path150" />
      <path
         d="m 9.1670189,31.267914 v 0.611505 q 0,0.194648 -0.1843128,0.360012 -0.1825901,0.165365 -0.3772382,0.165365 H 8.2661258 q -0.1980931,0 -0.3789607,-0.167087 -0.1808677,-0.16881 -0.1808677,-0.35829 v -0.611505 q 0,-0.18948 0.1757,-0.356568 0.1774226,-0.168809 0.3841284,-0.168809 h 0.3393421 q 0.1946481,-0.0034 0.3772382,0.161919 0.1843128,0.165365 0.1843128,0.363458 z m -1.1678882,0.01206 v 0.585666 q 0,0.07924 0.056844,0.125746 l 0.1085205,0.09302 q 0.036174,0.03101 0.1016304,0.03101 h 0.335897 q 0.07407,0 0.1343589,-0.0534 l 0.08785,-0.07752 q 0.053399,-0.04134 0.053399,-0.115411 v -0.585666 q 0,-0.08613 -0.053399,-0.127469 L 8.7226012,31.07499 Q 8.6709252,31.03193 8.6020227,31.03193 H 8.3022993 q -0.098185,0 -0.1515843,0.04651 l -0.098185,0.0844 q -0.053399,0.04479 -0.053399,0.117134 z"
         style="font-style:normal;font-variant:normal;font-weight:normal;font-stretch:normal;font-size:3.52778px;font-family:OCR-A;-inkscape-font-specification:OCR-A;fill:#e5e5e5;fill-opacity:1;stroke-width:0.264583"
         id="path152" />
      <path
         d="m 11.008424,32.408241 h -0.875055 q -0.06029,0 -0.103353,-0.04306 -0.041341,-0.04479 -0.041341,-0.105076 0,-0.05857 0.041341,-0.10163 0.04306,-0.04306 0.103353,-0.04306 h 0.289388 v -1.707046 h -0.292833 q -0.06029,0 -0.103353,-0.04134 -0.041341,-0.04306 -0.041341,-0.103353 0,-0.06029 0.041341,-0.10163 0.04306,-0.04306 0.103353,-0.04306 h 0.440972 q 0.05857,0 0.10163,0.04306 0.04306,0.04306 0.04306,0.10163 v 1.85174 h 0.292834 q 0.05857,0 0.10163,0.04306 0.04306,0.04306 0.04306,0.10163 0,0.06029 -0.04306,0.105076 -0.04134,0.04306 -0.10163,0.04306 z"
         style="font-style:normal;font-variant:normal;font-weight:normal;font-stretch:normal;font-size:3.52778px;font-family:OCR-A;-inkscape-font-specification:OCR-A;fill:#e5e5e5;fill-opacity:1;stroke-width:0.264583"
         id="path154" />
      <path
         d="m 13.43205,31.169729 -0.780315,1.76389 q -0.03962,0.09474 -0.137804,0.09474 h -0.401354 q -0.06029,0 -0.103352,-0.04134 -0.04134,-0.04134 -0.04134,-0.103353 0,-0.06029 0.04134,-0.101631 0.04306,-0.04134 0.103352,-0.04134 h 0.310059 l 0.198093,-0.45992 h -0.07062 q -0.09819,0 -0.141249,-0.101631 l -0.434082,-1.009413 v -0.279053 q 0,-0.06029 0.04134,-0.101631 0.04134,-0.04306 0.09991,-0.04306 0.06029,0 0.103353,0.04306 0.04479,0.04134 0.04479,0.101631 v 0.215318 l 0.380683,0.881945 h 0.10163 l 0.392742,-0.8785 v -0.222208 q 0,-0.05684 0.04306,-0.09991 0.04479,-0.04479 0.105076,-0.04479 0.05857,0 0.10163,0.04306 0.04306,0.04306 0.04306,0.101631 z"
         style="font-style:normal;font-variant:normal;font-weight:normal;font-stretch:normal;font-size:3.52778px;font-family:OCR-A;-inkscape-font-specification:OCR-A;fill:#e5e5e5;fill-opacity:1;stroke-width:0.264583"
         id="path156" />
      <path
         d="m 16.81169,29.991505 h 0.151584 q 0.06029,0 0.101631,0.04306 0.04306,0.04134 0.04306,0.10163 v 0.124024 q 0,0.06029 -0.04306,0.105075 -0.04134,0.04306 -0.101631,0.04306 h -0.155029 q -0.06201,0 -0.105075,-0.04479 -0.04134,-0.04479 -0.03962,-0.09991 l 0.0034,-0.127469 q 0,-0.06029 0.04134,-0.10163 0.04306,-0.04306 0.103353,-0.04306 z m 0.589112,2.413291 h -0.881945 q -0.06029,0 -0.103353,-0.04134 -0.04134,-0.04306 -0.04134,-0.103353 0,-0.05857 0.04134,-0.10163 0.04306,-0.04306 0.103353,-0.04306 h 0.296278 V 31.03537 h -0.292833 q -0.06029,0 -0.103353,-0.04306 -0.04134,-0.04306 -0.04134,-0.10163 0,-0.06029 0.04134,-0.103353 0.04306,-0.04479 0.103353,-0.04479 h 0.440972 q 0.06029,0 0.101631,0.04479 0.04306,0.04306 0.04306,0.103353 v 1.224732 h 0.289388 q 0.06029,0 0.103353,0.04306 0.04479,0.04134 0.04479,0.10163 0,0.06029 -0.04306,0.103353 -0.04306,0.04134 -0.10163,0.04134 z"
         style="font-style:normal;font-variant:normal;font-weight:normal;font-stretch:normal;font-size:3.52778px;font-family:OCR-A;-inkscape-font-specification:OCR-A;fill:#e5e5e5;fill-opacity:1;stroke-width:0.264583"
         id="path158" />
      <path
         d="m 19.047559,31.081879 -0.394463,0.256659 v 0.925009 q 0,0.05857 -0.04306,0.101631 -0.04306,0.04306 -0.101631,0.04306 -0.05857,0 -0.10163,-0.04306 -0.04306,-0.04306 -0.04306,-0.101631 v -1.372871 q 0,-0.06029 0.04134,-0.103353 0.04306,-0.04479 0.103353,-0.04479 0.05857,0 0.101631,0.04479 0.04306,0.04306 0.04306,0.103353 v 0.09646 l 0.263549,-0.160197 q 0.132637,-0.0844 0.299724,-0.0844 h 0.134359 q 0.172255,0 0.298001,0.1223 0.125746,0.122301 0.132636,0.301447 l 0.03962,1.097263 q 0.0017,0.05857 -0.04134,0.101631 -0.04306,0.04306 -0.103352,0.04306 -0.05685,0 -0.09991,-0.0379 -0.04306,-0.03962 -0.04479,-0.106798 l -0.04306,-1.080038 q -0.0052,-0.151584 -0.158475,-0.151584 h -0.141249 q -0.06546,0 -0.141249,0.04995 z"
         style="font-style:normal;font-variant:normal;font-weight:normal;font-stretch:normal;font-size:3.52778px;font-family:OCR-A;-inkscape-font-specification:OCR-A;fill:#e5e5e5;fill-opacity:1;stroke-width:0.264583"
         id="path160" />
    </g>
  </g>
  <g
     inkscape:groupmode="layer"
     id="layer4"
     inkscape:label="components"
     style="display:none"
     sodipodi:insensitive="true">
    <circle
       style="display:inline;fill:#0000ff;fill-opacity:1;stroke:none;stroke-width:1;stroke-miterlimit:4;stroke-dasharray:none"
       id="circle3867"
       cx="7.4083366"
       cy="105.27322"
       r="4.1775002"
       inkscape:label="LEFT" />
    <circle
       r="4.1775002"
       cy="52.081139"
       cx="19.579166"
       id="circle903"
       style="display:inline;fill:#00ff00;fill-opacity:1;stroke:none;stroke-width:1;stroke-miterlimit:4;stroke-dasharray:none"
       inkscape:label="SPREAD" />
    <circle
       r="4.1775002"
       cy="24.282585"
       cx="12.7"
       id="circle1202"
       style="display:inline;fill:#00ff00;fill-opacity:1;stroke:none;stroke-width:1;stroke-miterlimit:4;stroke-dasharray:none"
       inkscape:label="POLYIN" />
    <circle
       r="6.3499999"
       cy="49.908638"
       cx="7.9375033"
       id="circle1219"
       style="display:inline;fill:#ff0000;fill-opacity:1;stroke:none;stroke-width:1;stroke-miterlimit:4;stroke-dasharray:none"
       inkscape:label="SPREAD" />
    <circle
       style="display:inline;fill:#0000ff;fill-opacity:1;stroke:none;stroke-width:1;stroke-miterlimit:4;stroke-dasharray:none"
       id="circle77"
       cx="17.991665"
       cy="105.27322"
       r="4.1775002"
       inkscape:label="RIGHT" />
    <circle
       r="4.1775002"
       cy="79.068634"
       cx="19.579166"
       id="circle87"
       style="display:inline;fill:#00ff00;fill-opacity:1;stroke:none;stroke-width:1;stroke-miterlimit:4;stroke-dasharray:none"
       inkscape:label="CENTER" />
    <circle
       r="6.3499999"
       cy="76.896133"
       cx="7.9375033"
       id="circle89"
       style="display:inline;fill:#ff0000;fill-opacity:1;stroke:none;stroke-width:1;stroke-miterlimit:4;stroke-dasharray:none"
       inkscape:label="CENTER" />
  </g>
</svg>
