<?xml version="1.0" encoding="UTF-8" standalone="no"?>
<svg xmlns="http://www.w3.org/2000/svg" width="40.64mm" height="128.5mm" viewBox="0 0 40.64 128.5">
  <rect width="40.64" height="128.5" fill="#1a1a1a"/>
  <path d="M14.040792079207922 4.53036303630363C14.036171617161717 4.391749174917491 13.957623762376238 4.313201320132013 13.846732673267327 4.313201320132013C13.740462046204621 4.313201320132013 13.652673267326733 4.396369636963696 13.652673267326733 4.521122112211221V4.53036303630363L13.694257425742574 5.768646864686469C13.708118811881189 6.249174917491749 13.892937293729373 6.494059405940594 14.294917491749175 6.494059405940594H14.470495049504951C14.696897689768978 6.494059405940594 14.826270627062707 6.401650165016502 14.95102310231023 6.313861386138614L15.177425742574258 6.156765676567656V6.276897689768977C15.177425742574258 6.406270627062706 15.26059405940594 6.494059405940594 15.371485148514852 6.494059405940594C15.482376237623763 6.494059405940594 15.565544554455446 6.410891089108911 15.565544554455446 6.276897689768977V4.53036303630363C15.565544554455446 4.400990099009901 15.482376237623763 4.313201320132013 15.371485148514852 4.313201320132013C15.26059405940594 4.313201320132013 15.177425742574258 4.391749174917491 15.177425742574258 4.53036303630363V5.703960396039604L14.729240924092409 5.995049504950495C14.641452145214522 6.05049504950495 14.567524752475247 6.105940594059406 14.456633663366336 6.105940594059406H14.331881188118812C14.17016501650165 6.105940594059406 14.096237623762377 5.9996699669966995 14.086996699669967 5.7871287128712865Z M16.914719471947194 3.5C16.785346534653463 3.5 16.697557755775577 3.583168316831683 16.697557755775577 3.694059405940594C16.697557755775577 3.8049504950495048 16.776105610561054 3.888118811881188 16.914719471947194 3.888118811881188H17.265874587458747V6.105940594059406H16.914719471947194C16.785346534653463 6.105940594059406 16.697557755775577 6.189108910891089 16.697557755775577 6.3C16.697557755775577 6.410891089108911 16.78072607260726 6.494059405940594 16.914719471947194 6.494059405940594H18.014389438943894C18.143762376237625 6.494059405940594 18.23155115511551 6.410891089108911 18.23155115511551 6.3C18.23155115511551 6.189108910891089 18.148382838283826 6.105940594059406 18.014389438943894 6.105940594059406H17.658613861386137V3.694059405940594C17.658613861386137 3.583168316831683 17.575445544554455 3.5 17.44145214521452 3.5Z M19.75168316831683 4.53036303630363C19.747062706270626 4.391749174917491 19.66851485148515 4.313201320132013 19.557623762376238 4.313201320132013C19.451353135313532 4.313201320132013 19.363564356435642 4.396369636963696 19.363564356435642 4.521122112211221V4.53036303630363L19.405148514851486 5.768646864686469C19.419009900990098 6.249174917491749 19.603828382838284 6.494059405940594 20.005808580858087 6.494059405940594H20.18138613861386C20.407788778877887 6.494059405940594 20.537161716171617 6.401650165016502 20.661914191419143 6.313861386138614L20.88831683168317 6.156765676567656V6.276897689768977C20.88831683168317 6.406270627062706 20.97148514851485 6.494059405940594 21.082376237623762 6.494059405940594C21.193267326732673 6.494059405940594 21.276435643564355 6.410891089108911 21.276435643564355 6.276897689768977V4.53036303630363C21.276435643564355 4.400990099009901 21.193267326732673 4.313201320132013 21.082376237623762 4.313201320132013C20.97148514851485 4.313201320132013 20.88831683168317 4.391749174917491 20.88831683168317 4.53036303630363V5.703960396039604L20.44013201320132 5.995049504950495C20.35234323432343 6.05049504950495 20.27841584158416 6.105940594059406 20.16752475247525 6.105940594059406H20.042772277227723C19.88105610561056 6.105940594059406 19.807128712871286 5.9996699669966995 19.797887788778876 5.7871287128712865Z M22.625610561056106 3.5C22.496237623762376 3.5 22.40844884488449 3.583168316831683 22.40844884488449 3.694059405940594C22.40844884488449 3.8049504950495048 22.486996699669966 3.888118811881188 22.625610561056106 3.888118811881188H22.97676567656766V6.105940594059406H22.625610561056106C22.496237623762376 6.105940594059406 22.40844884488449 6.189108910891089 22.40844884488449 6.3C22.40844884488449 6.410891089108911 22.49161716171617 6.494059405940594 22.625610561056106 6.494059405940594H23.725280528052807C23.854653465346537 6.494059405940594 23.942442244224424 6.410891089108911 23.942442244224424 6.3C23.942442244224424 6.189108910891089 23.85927392739274 6.105940594059406 23.725280528052807 6.105940594059406H23.36950495049505V3.694059405940594C23.36950495049505 3.583168316831683 23.286336633663367 3.5 23.152343234323432 3.5Z M25.813729372937296 4.313201320132013C25.684356435643565 4.313201320132013 25.55960396039604 4.359405940594059 25.44871287128713 4.4471947194719466L25.282376237623765 4.581188118811881C25.153003300330035 4.687458745874587 25.074455445544555 4.858415841584158 25.074455445544555 5.024752475247524V5.7825082508250825C25.074455445544555 5.948844884488449 25.153003300330035 6.1151815181518145 25.282376237623765 6.2214521452145215L25.44871287128713 6.36006600660066C25.55960396039604 6.4478547854785475 25.684356435643565 6.494059405940594 25.813729372937296 6.494059405940594H26.243432343234325C26.36818481848185 6.494059405940594 26.502178217821783 6.4478547854785475 26.613069306930694 6.36006600660066L26.77940594059406 6.2214521452145215C26.90877887788779 6.1151815181518145 26.987326732673267 5.948844884488449 26.987326732673267 5.7825082508250825V5.024752475247524C26.987326732673267 4.858415841584158 26.90877887788779 4.687458745874587 26.77940594059406 4.581188118811881L26.613069306930694 4.4471947194719466C26.502178217821783 4.359405940594059 26.36818481848185 4.313201320132013 26.243432343234325 4.313201320132013ZM25.8183498349835 4.696699669966996H26.243432343234325C26.285016501650166 4.696699669966996 26.326600660066006 4.715181518151815 26.363564356435646 4.742904290429043L26.529900990099012 4.881518151815182C26.571485148514853 4.913861386138613 26.599207920792082 4.973927392739274 26.599207920792082 5.024752475247524V5.7825082508250825C26.599207920792082 5.833333333333333 26.571485148514853 5.8933993399339935 26.529900990099012 5.925742574257425L26.363564356435646 6.064356435643564C26.326600660066006 6.092079207920792 26.285016501650166 6.105940594059406 26.243432343234325 6.105940594059406H25.8183498349835C25.77676567656766 6.105940594059406 25.735181518151816 6.092079207920792 25.69821782178218 6.064356435643564L25.531881188118813 5.925742574257425C25.490297029702973 5.8933993399339935 25.462574257425743 5.837953795379538 25.462574257425743 5.7825082508250825V5.024752475247524C25.462574257425743 4.969306930693069 25.490297029702973 4.913861386138613 25.531881188118813 4.881518151815182L25.69821782178218 4.742904290429043C25.735181518151816 4.715181518151815 25.77676567656766 4.696699669966996 25.8183498349835 4.696699669966996Z" fill="#dcdcdc"/>
  <rect x="22.14" y="101.50" width="14.0" height="14.0" rx="1.5" fill="#e4e4e4"/>
  <path d="M17.40118811881188 27.99174917491749C17.40118811881188 28.035313531353136 17.379405940594058 28.078877887788778 17.35762376237624 28.097029702970296L17.099867986798678 28.303960396039603C17.067194719471946 28.333003300330034 17.034521452145214 28.34752475247525 16.994587458745876 28.34752475247525H16.758613861386138C16.707788778877887 28.34752475247525 16.686006600660065 28.32937293729373 16.653333333333332 28.303960396039603L16.55168316831683 28.224092409240924C16.52990099009901 28.205940594059406 16.50811881188119 28.16237623762376 16.50811881188119 28.122442244224423V27.472607260726072C16.50811881188119 27.42904290429043 16.52990099009901 27.385478547854785 16.55168316831683 27.367326732673266L16.653333333333332 27.287458745874588C16.682376237623764 27.26204620462046 16.71141914191419 27.243894389438942 16.758613861386138 27.243894389438942H16.994587458745876C17.02726072607261 27.243894389438942 17.063564356435645 27.25841584158416 17.099867986798678 27.287458745874588L17.35762376237624 27.4980198019802C17.379405940594058 27.516171617161717 17.40118811881188 27.55973597359736 17.40118811881188 27.603300330033004ZM17.397557755775576 27.105940594059405V27.14224422442244L17.285016501650166 27.044224422442245C17.205148514851484 26.975247524752476 17.096237623762377 26.93894389438944 16.994587458745876 26.93894389438944H16.758613861386138C16.653333333333332 26.93894389438944 16.55894389438944 26.97161716171617 16.46818481848185 27.044224422442245L16.362904290429043 27.124092409240923C16.27214521452145 27.196699669966996 16.199537953795378 27.334653465346534 16.199537953795378 27.468976897689767V28.133333333333333C16.199537953795378 28.249504950495048 16.268514851485147 28.394719471947194 16.362904290429043 28.467326732673268L16.46818481848185 28.547194719471946C16.55894389438944 28.61980198019802 16.653333333333332 28.65247524752475 16.758613861386138 28.65247524752475H16.994587458745876C17.096237623762377 28.65247524752475 17.205148514851484 28.616171617161715 17.285016501650166 28.547194719471946L17.397557755775576 28.44917491749175V28.732343234323434C17.397557755775576 28.775907590759076 17.379405940594058 28.81947194719472 17.346732673267326 28.844884488448844L17.216039603960397 28.953795379537954C17.17973597359736 28.982838283828382 17.150693069306932 28.986468646864687 17.118019801980196 28.986468646864687H16.526270627062708C16.420990099009902 28.986468646864687 16.355643564356434 29.05181518151815 16.355643564356434 29.13894389438944C16.355643564356434 29.226072607260726 16.424620462046203 29.29141914191419 16.526270627062708 29.29141914191419H17.1216501650165C17.223300330033002 29.29141914191419 17.321320132013202 29.255115511551153 17.40844884488449 29.186138613861385L17.542772277227723 29.077227722772278C17.644422442244224 28.993729372937295 17.706138613861388 28.863036303630363 17.706138613861388 28.732343234323434V27.105940594059405C17.706138613861388 27.004290429042904 17.63716171617162 26.93894389438944 17.55003300330033 26.93894389438944C17.462904290429044 26.93894389438944 17.397557755775576 27.0006600660066 17.397557755775576 27.105940594059405Z M18.915049504950495 26.93894389438944C18.813399339933994 26.93894389438944 18.748052805280526 27.004290429042904 18.748052805280526 27.09141914191419C18.748052805280526 27.178547854785478 18.806138613861386 27.243894389438942 18.915049504950495 27.243894389438942H19.455973597359737C19.53947194719472 27.243894389438942 19.60118811881188 27.301980198019802 19.604818481848184 27.38910891089109L19.615709570957094 27.603300330033004C19.572145214521452 27.585148514851486 19.528580858085807 27.577887788778877 19.48138613861386 27.577887788778877H18.90052805280528C18.657293729372938 27.577887788778877 18.446732673267327 27.78118811881188 18.446732673267327 28.03168316831683V28.2023102310231C18.446732673267327 28.44917491749175 18.65003300330033 28.65247524752475 18.90052805280528 28.65247524752475H19.332541254125413C19.37973597359736 28.65247524752475 19.43782178217822 28.63069306930693 19.466864686468647 28.612541254125414L19.644752475247525 28.5C19.65927392739274 28.598019801980197 19.717359735973595 28.65247524752475 19.80085808580858 28.65247524752475C19.88072607260726 28.65247524752475 19.94970297029703 28.583498349834983 19.94970297029703 28.485478547854786V28.478217821782177L19.909768976897688 27.38910891089109C19.898877887788778 27.116831683168318 19.688316831683167 26.93894389438944 19.455973597359737 26.93894389438944ZM18.896897689768977 27.882838283828384H19.48138613861386C19.56125412541254 27.882838283828384 19.63023102310231 27.944554455445545 19.63023102310231 28.028052805280527L19.633861386138612 28.16237623762376L19.307128712871286 28.34752475247525H18.90052805280528C18.817029702970295 28.34752475247525 18.75168316831683 28.27854785478548 18.75168316831683 28.2023102310231V28.03168316831683C18.75168316831683 27.94818481848185 18.824290429042904 27.882838283828384 18.896897689768977 27.882838283828384Z M21.307458745874587 26.172937293729372C21.202178217821782 26.172937293729372 21.136831683168317 26.238283828382837 21.136831683168317 26.325412541254124V26.452475247524752C21.136831683168317 26.53960396039604 21.198547854785478 26.604950495049504 21.307458745874587 26.604950495049504H21.423630363036303C21.525280528052807 26.604950495049504 21.594257425742576 26.53960396039604 21.594257425742576 26.452475247524752V26.325412541254124C21.594257425742576 26.238283828382837 21.5180198019802 26.172937293729372 21.45630363036304 26.172937293729372ZM21.00976897689769 26.93894389438944C20.908118811881188 26.93894389438944 20.83914191419142 27.004290429042904 20.83914191419142 27.09141914191419C20.83914191419142 27.178547854785478 20.900858085808583 27.243894389438942 21.00976897689769 27.243894389438942H21.285676567656765V28.34752475247525H21.00976897689769C20.908118811881188 28.34752475247525 20.83914191419142 28.412871287128713 20.83914191419142 28.5C20.83914191419142 28.587128712871287 20.904488448844884 28.65247524752475 21.00976897689769 28.65247524752475H21.873795379537952C21.975445544554457 28.65247524752475 22.044422442244226 28.587128712871287 22.044422442244226 28.5C22.044422442244226 28.412871287128713 21.979075907590758 28.34752475247525 21.873795379537952 28.34752475247525H21.594257425742576V27.09141914191419C21.594257425742576 27.004290429042904 21.528910891089108 26.93894389438944 21.423630363036303 26.93894389438944Z M23.23881188118812 27.10957095709571C23.23881188118812 27.007920792079208 23.173465346534655 26.93894389438944 23.086336633663368 26.93894389438944C22.99920792079208 26.93894389438944 22.933861386138616 27.0006600660066 22.933861386138616 27.10957095709571V28.48184818481848C22.933861386138616 28.583498349834983 22.99920792079208 28.65247524752475 23.086336633663368 28.65247524752475C23.173465346534655 28.65247524752475 23.23881188118812 28.587128712871287 23.23881188118812 28.48184818481848V27.563366336633663L23.590957095709573 27.33102310231023C23.659933993399342 27.287458745874588 23.718019801980198 27.247524752475247 23.80514851485149 27.247524752475247H23.903168316831685C24.03023102310231 27.247524752475247 24.08831683168317 27.33102310231023 24.095577557755778 27.4980198019802L24.131881188118815 28.48184818481848C24.135511551155115 28.59075907590759 24.19722772277228 28.65247524752475 24.284356435643566 28.65247524752475C24.36785478547855 28.65247524752475 24.436831683168318 28.587128712871287 24.436831683168318 28.48910891089109V28.48184818481848L24.404158415841586 27.50891089108911C24.393267326732676 27.13135313531353 24.24805280528053 26.93894389438944 23.932211221122113 26.93894389438944H23.794257425742575C23.616369636963697 26.93894389438944 23.514719471947195 27.015181518151813 23.416699669967 27.084158415841586L23.23881188118812 27.203960396039605Z" fill="#f9f9f9"/>
  <path d="M8.886138613861386 42.47062706270627C8.886138613861386 42.36534653465347 8.817161716171617 42.3 8.73003300330033 42.3C8.642904290429042 42.3 8.577557755775578 42.36897689768977 8.577557755775578 42.47062706270627V43.14224422442244L8.465016501650165 43.04422442244224C8.385148514851485 42.975247524752476 8.276237623762377 42.93894389438944 8.174587458745874 42.93894389438944H7.938613861386139C7.833333333333333 42.93894389438944 7.738943894389439 42.971617161716175 7.648184818481848 43.04422442244224L7.542904290429043 43.12409240924092C7.4485148514851485 43.196699669966996 7.37953795379538 43.34191419141914 7.37953795379538 43.45808580858086V44.118811881188115C7.37953795379538 44.25313531353135 7.444884488448844 44.39108910891089 7.542904290429043 44.467326732673264L7.648184818481848 44.547194719471946C7.738943894389439 44.61980198019802 7.8369636963696365 44.652475247524755 7.938613861386139 44.652475247524755H8.174587458745874C8.276237623762377 44.652475247524755 8.385148514851485 44.61617161716172 8.465016501650165 44.547194719471946L8.577557755775578 44.449174917491746V44.48184818481848C8.577557755775578 44.59075907590759 8.642904290429042 44.652475247524755 8.73003300330033 44.652475247524755C8.817161716171617 44.652475247524755 8.886138613861386 44.58349834983498 8.886138613861386 44.48184818481848ZM7.938613861386139 43.24389438943894H8.174587458745874C8.214521452145215 43.24389438943894 8.247194719471947 43.25841584158416 8.27986798679868 43.28745874587459L8.537623762376237 43.49438943894389C8.55940594059406 43.51254125412541 8.58118811881188 43.556105610561055 8.58118811881188 43.5996699669967V43.988118811881186C8.58118811881188 44.03168316831683 8.55940594059406 44.07524752475248 8.537623762376237 44.093399339933995L8.27986798679868 44.30396039603961C8.243564356435643 44.333003300330034 8.21089108910891 44.347524752475245 8.174587458745874 44.347524752475245H7.938613861386139C7.887788778877887 44.347524752475245 7.862376237623762 44.325742574257426 7.833333333333333 44.30396039603961L7.731683168316831 44.224092409240924C7.709900990099009 44.205940594059406 7.688118811881187 44.16237623762376 7.688118811881187 44.118811881188115V43.46897689768977C7.688118811881187 43.425412541254126 7.709900990099009 43.38547854785479 7.731683168316831 43.36732673267327L7.833333333333333 43.28745874587459C7.862376237623762 43.26567656765677 7.887788778877887 43.24389438943894 7.938613861386139 43.24389438943894Z M10.243894389438942 42.172937293729376C10.138613861386137 42.172937293729376 10.073267326732672 42.23828382838284 10.073267326732672 42.325412541254124V42.45247524752475C10.073267326732672 42.539603960396036 10.134983498349834 42.60495049504951 10.243894389438942 42.60495049504951H10.36006600660066C10.46171617161716 42.60495049504951 10.53069306930693 42.539603960396036 10.53069306930693 42.45247524752475V42.325412541254124C10.53069306930693 42.23828382838284 10.454455445544554 42.172937293729376 10.392739273927392 42.172937293729376ZM9.946204620462046 42.93894389438944C9.844554455445543 42.93894389438944 9.775577557755774 43.004290429042904 9.775577557755774 43.091419141914194C9.775577557755774 43.17854785478548 9.837293729372936 43.24389438943894 9.946204620462046 43.24389438943894H10.222112211221122V44.347524752475245H9.946204620462046C9.844554455445543 44.347524752475245 9.775577557755774 44.412871287128716 9.775577557755774 44.5C9.775577557755774 44.587128712871284 9.84092409240924 44.652475247524755 9.946204620462046 44.652475247524755H10.81023102310231C10.91188118811881 44.652475247524755 10.98085808580858 44.587128712871284 10.98085808580858 44.5C10.98085808580858 44.412871287128716 10.915511551155115 44.347524752475245 10.81023102310231 44.347524752475245H10.53069306930693V43.091419141914194C10.53069306930693 43.004290429042904 10.465346534653465 42.93894389438944 10.36006600660066 42.93894389438944Z M12.295049504950494 42.93894389438944C12.077227722772278 42.93894389438944 11.902970297029704 43.116831683168314 11.902970297029704 43.33102310231023C11.902970297029704 43.48712871287129 11.997359735973598 43.62508250825083 12.146204620462047 43.69042904290429L12.966666666666667 44.04620462046205C13.028382838283829 44.07161716171617 13.064686468646865 44.12970297029703 13.064686468646865 44.19141914191419C13.064686468646865 44.27854785478548 12.988448844884488 44.347524752475245 12.90858085808581 44.347524752475245H12.30957095709571C12.175247524752475 44.347524752475245 12.124422442244224 44.220462046204624 12.019141914191419 44.220462046204624C11.935643564356436 44.220462046204624 11.87029702970297 44.29306930693069 11.87029702970297 44.37293729372937C11.87029702970297 44.48910891089109 12.084488448844885 44.652475247524755 12.30957095709571 44.652475247524755H12.90858085808581C13.155445544554455 44.652475247524755 13.373267326732673 44.449174917491746 13.373267326732673 44.19141914191419C13.373267326732673 44.002640264026404 13.26072607260726 43.83927392739274 13.086468646864686 43.763036303630365L12.262376237623762 43.41089108910891C12.226072607260726 43.3963696369637 12.207920792079207 43.36006600660066 12.207920792079207 43.338283828382835C12.207920792079207 43.27656765676568 12.247854785478548 43.24389438943894 12.295049504950494 43.24389438943894H12.937623762376237C13.057425742574258 43.24389438943894 13.068316831683168 43.37095709570957 13.184488448844885 43.37095709570957C13.264356435643565 43.37095709570957 13.336963696369637 43.305610561056106 13.336963696369637 43.218481848184815C13.336963696369637 43.102310231023104 13.155445544554455 42.93894389438944 12.941254125412541 42.93894389438944Z M14.720132013201322 42.59405940594059C14.720132013201322 42.49240924092409 14.651155115511552 42.427062706270625 14.564026402640266 42.427062706270625C14.476897689768979 42.427062706270625 14.411551155115513 42.48514851485149 14.411551155115513 42.59405940594059V42.93894389438944H14.284488448844886C14.182838283828383 42.93894389438944 14.113861386138614 43.004290429042904 14.113861386138614 43.091419141914194C14.113861386138614 43.17854785478548 14.175577557755776 43.24389438943894 14.284488448844886 43.24389438943894H14.411551155115513V44.1986798679868C14.411551155115513 44.445544554455445 14.614851485148517 44.652475247524755 14.865346534653467 44.652475247524755H15.163036303630363C15.42805280528053 44.652475247524755 15.613201320132015 44.42013201320132 15.613201320132015 44.234983498349834C15.613201320132015 44.16237623762376 15.551485148514853 44.08976897689769 15.464356435643566 44.08976897689769C15.340924092409242 44.08976897689769 15.330033003300331 44.18778877887789 15.30825082508251 44.24224422442244C15.282838283828385 44.31122112211221 15.22838283828383 44.347524752475245 15.166666666666668 44.347524752475245H14.865346534653467C14.781848184818482 44.347524752475245 14.720132013201322 44.28217821782178 14.720132013201322 44.202310231023105V43.24389438943894H15.297359735973599C15.3990099009901 43.24389438943894 15.467986798679869 43.17854785478548 15.467986798679869 43.091419141914194C15.467986798679869 43.004290429042904 15.402640264026404 42.93894389438944 15.297359735973599 42.93894389438944H14.720132013201322Z" fill="#f9f9f9"/>
  <path d="M25.404356435643564 42.47062706270627C25.404356435643564 42.36534653465347 25.335379537953795 42.3 25.248250825082508 42.3C25.16112211221122 42.3 25.095775577557756 42.36897689768977 25.095775577557756 42.47062706270627V43.14224422442244L24.98323432343234 43.04422442244224C24.903366336633663 42.975247524752476 24.794455445544553 42.93894389438944 24.692805280528052 42.93894389438944H24.456831683168318C24.351551155115512 42.93894389438944 24.257161716171616 42.971617161716175 24.166402640264025 43.04422442244224L24.06112211221122 43.12409240924092C23.966732673267327 43.196699669966996 23.897755775577558 43.34191419141914 23.897755775577558 43.45808580858086V44.118811881188115C23.897755775577558 44.25313531353135 23.963102310231022 44.39108910891089 24.06112211221122 44.467326732673264L24.166402640264025 44.547194719471946C24.257161716171616 44.61980198019802 24.355181518151817 44.652475247524755 24.456831683168318 44.652475247524755H24.692805280528052C24.794455445544553 44.652475247524755 24.903366336633663 44.61617161716172 24.98323432343234 44.547194719471946L25.095775577557756 44.449174917491746V44.48184818481848C25.095775577557756 44.59075907590759 25.16112211221122 44.652475247524755 25.248250825082508 44.652475247524755C25.335379537953795 44.652475247524755 25.404356435643564 44.58349834983498 25.404356435643564 44.48184818481848ZM24.456831683168318 43.24389438943894H24.692805280528052C24.732739273927393 43.24389438943894 24.765412541254126 43.25841584158416 24.798085808580858 43.28745874587459L25.055841584158415 43.49438943894389C25.077623762376238 43.51254125412541 25.09940594059406 43.556105610561055 25.09940594059406 43.5996699669967V43.988118811881186C25.09940594059406 44.03168316831683 25.077623762376238 44.07524752475248 25.055841584158415 44.093399339933995L24.798085808580858 44.30396039603961C24.76178217821782 44.333003300330034 24.72910891089109 44.347524752475245 24.692805280528052 44.347524752475245H24.456831683168318C24.406006600660067 44.347524752475245 24.38059405940594 44.325742574257426 24.351551155115512 44.30396039603961L24.24990099009901 44.224092409240924C24.22811881188119 44.205940594059406 24.206336633663366 44.16237623762376 24.206336633663366 44.118811881188115V43.46897689768977C24.206336633663366 43.425412541254126 24.22811881188119 43.38547854785479 24.24990099009901 43.36732673267327L24.351551155115512 43.28745874587459C24.38059405940594 43.26567656765677 24.406006600660067 43.24389438943894 24.456831683168318 43.24389438943894Z M26.725808580858086 42.93894389438944C26.624158415841585 42.93894389438944 26.526138613861388 42.975247524752476 26.4390099009901 43.04422442244224L26.308316831683168 43.14950495049505C26.206666666666667 43.23300330033003 26.144950495049507 43.36732673267327 26.144950495049507 43.4980198019802V44.093399339933995C26.144950495049507 44.224092409240924 26.206666666666667 44.35478547854785 26.308316831683168 44.438283828382836L26.4390099009901 44.547194719471946C26.526138613861388 44.61617161716172 26.624158415841585 44.652475247524755 26.725808580858086 44.652475247524755H27.47729372937294C27.57894389438944 44.652475247524755 27.64792079207921 44.587128712871284 27.64792079207921 44.5C27.64792079207921 44.412871287128716 27.582574257425744 44.347524752475245 27.47729372937294 44.347524752475245H26.72943894389439C26.700396039603962 44.347524752475245 26.67135313531353 44.343894389438944 26.635049504950494 44.314851485148516L26.504356435643565 44.205940594059406C26.471683168316833 44.18052805280528 26.44990099009901 44.136963696369634 26.44990099009901 44.093399339933995V44.01353135313531H27.47729372937294C27.57894389438944 44.01353135313531 27.64792079207921 43.94818481848185 27.64792079207921 43.86105610561056V43.4980198019802C27.64792079207921 43.36732673267327 27.58620462046205 43.23300330033003 27.484554455445547 43.14950495049505L27.353861386138615 43.04422442244224C27.266732673267327 42.975247524752476 27.161452145214522 42.93894389438944 27.063432343234325 42.93894389438944ZM26.72943894389439 43.24026402640264H27.063432343234325C27.096105610561057 43.24026402640264 27.12877887788779 43.25478547854785 27.157821782178218 43.27656765676568L27.28851485148515 43.38547854785479C27.321188118811882 43.41089108910891 27.342970297029705 43.45808580858086 27.342970297029705 43.4980198019802V43.7049504950495H26.44990099009901V43.4980198019802C26.44990099009901 43.45445544554455 26.471683168316833 43.41089108910891 26.504356435643565 43.38547854785479L26.635049504950494 43.27656765676568C26.664092409240926 43.25478547854785 26.696765676567658 43.24026402640264 26.72943894389439 43.24026402640264Z M29.114587458745877 42.93894389438944C29.00930693069307 42.93894389438944 28.893135313531356 42.982508250825084 28.820528052805283 43.04422442244224L28.54825082508251 43.28382838283829C28.442970297029706 43.37821782178218 28.38851485148515 43.5016501650165 28.38851485148515 43.62871287128713V43.96270627062706C28.38851485148515 44.08976897689769 28.442970297029706 44.213201320132015 28.54825082508251 44.30759075907591L28.820528052805283 44.547194719471946C28.893135313531356 44.60891089108911 29.00930693069307 44.652475247524755 29.114587458745877 44.652475247524755H29.720858085808583C29.822508250825084 44.652475247524755 29.891485148514853 44.587128712871284 29.891485148514853 44.5C29.891485148514853 44.412871287128716 29.82613861386139 44.347524752475245 29.720858085808583 44.347524752475245H29.114587458745877C29.06739273927393 44.347524752475245 29.041980198019804 44.329372937293726 29.00930693069307 44.30396039603961L28.7370297029703 44.06798679867987C28.711617161716173 44.04620462046205 28.693465346534655 44.002640264026404 28.693465346534655 43.96270627062706V43.62508250825083C28.693465346534655 43.58514851485148 28.711617161716173 43.545214521452145 28.7370297029703 43.523432343234326L29.00930693069307 43.28745874587459C29.041980198019804 43.25841584158416 29.074653465346536 43.24026402640264 29.114587458745877 43.24026402640264H29.720858085808583C29.833399339933994 43.24026402640264 29.891485148514853 43.17854785478548 29.891485148514853 43.091419141914194C29.891485148514853 43.004290429042904 29.822508250825084 42.93894389438944 29.720858085808583 42.93894389438944Z M31.100396039603964 42.93894389438944C30.998745874587463 42.93894389438944 30.933399339933995 43.004290429042904 30.933399339933995 43.091419141914194C30.933399339933995 43.17854785478548 30.991485148514855 43.24389438943894 31.100396039603964 43.24389438943894H31.641320132013206C31.72481848184819 43.24389438943894 31.78653465346535 43.301980198019805 31.790165016501653 43.38910891089109L31.801056105610563 43.603300330033C31.75749174917492 43.58514851485148 31.713927392739276 43.57788778877888 31.66673267326733 43.57788778877888H31.08587458745875C30.842640264026407 43.57788778877888 30.632079207920796 43.78118811881188 30.632079207920796 44.03168316831683V44.202310231023105C30.632079207920796 44.449174917491746 30.8353795379538 44.652475247524755 31.08587458745875 44.652475247524755H31.517887788778882C31.56508250825083 44.652475247524755 31.623168316831688 44.63069306930693 31.652211221122116 44.61254125412541L31.830099009900994 44.5C31.84462046204621 44.5980198019802 31.902706270627064 44.652475247524755 31.98620462046205 44.652475247524755C32.06607260726073 44.652475247524755 32.1350495049505 44.58349834983498 32.1350495049505 44.48547854785478V44.47821782178218L32.09511551155116 43.38910891089109C32.08422442244225 43.116831683168314 31.873663366336636 42.93894389438944 31.641320132013206 42.93894389438944ZM31.082244224422446 43.882838283828384H31.66673267326733C31.746600660066008 43.882838283828384 31.81557755775578 43.94455445544554 31.81557755775578 44.02805280528053L31.81920792079208 44.16237623762376L31.492475247524755 44.347524752475245H31.08587458745875C31.002376237623764 44.347524752475245 30.9370297029703 44.27854785478548 30.9370297029703 44.202310231023105V44.03168316831683C30.9370297029703 43.94818481848185 31.009636963696373 43.882838283828384 31.082244224422446 43.882838283828384Z M33.18059405940595 43.105940594059405C33.18059405940595 43.004290429042904 33.115247524752476 42.93894389438944 33.02811881188119 42.93894389438944C32.9409900990099 42.93894389438944 32.87564356435644 42.997029702970295 32.87564356435644 43.105940594059405V43.33102310231023C32.87564356435644 43.37821782178218 32.886534653465354 43.4 32.89742574257426 43.421782178217825L33.343960396039606 44.449174917491746C33.362112211221124 44.49273927392739 33.41656765676568 44.52541254125413 33.49280528052806 44.52541254125413H33.54363036303631L33.343960396039606 44.98646864686469H33.04264026402641C32.9409900990099 44.98646864686469 32.87564356435644 45.05181518151815 32.87564356435644 45.13894389438944C32.87564356435644 45.226072607260726 32.9373597359736 45.29141914191419 33.04264026402641 45.29141914191419H33.42382838283829C33.50006600660066 45.29141914191419 33.558151815181525 45.25148514851485 33.57630363036304 45.215181518151816L34.35683168316832 43.421782178217825C34.36772277227723 43.3963696369637 34.37861386138614 43.37095709570957 34.37861386138614 43.33102310231023V43.105940594059405C34.37861386138614 43.0006600660066 34.31326732673268 42.93894389438944 34.22613861386139 42.93894389438944C34.139009900990104 42.93894389438944 34.07366336633664 43.004290429042904 34.07366336633664 43.105940594059405V43.305610561056106L33.674323432343236 44.216831683168316H33.579933993399344L33.18059405940595 43.305610561056106Z" fill="#f9f9f9"/>
  <path d="M7.989438943894389 59.59405940594059C7.989438943894389 59.49240924092409 7.92046204620462 59.427062706270625 7.833333333333333 59.427062706270625C7.746204620462046 59.427062706270625 7.68085808580858 59.48514851485149 7.68085808580858 59.59405940594059V59.93894389438944H7.553795379537953C7.452145214521452 59.93894389438944 7.383168316831683 60.004290429042904 7.383168316831683 60.091419141914194C7.383168316831683 60.17854785478548 7.444884488448844 60.24389438943894 7.553795379537953 60.24389438943894H7.68085808580858V61.1986798679868C7.68085808580858 61.445544554455445 7.884158415841584 61.652475247524755 8.134653465346535 61.652475247524755H8.432343234323433C8.697359735973597 61.652475247524755 8.882508250825083 61.42013201320132 8.882508250825083 61.234983498349834C8.882508250825083 61.16237623762376 8.820792079207921 61.08976897689769 8.733663366336634 61.08976897689769C8.61023102310231 61.08976897689769 8.599339933993399 61.18778877887789 8.577557755775578 61.24224422442244C8.552145214521452 61.31122112211221 8.497689768976898 61.347524752475245 8.435973597359736 61.347524752475245H8.134653465346535C8.05115511551155 61.347524752475245 7.989438943894389 61.28217821782178 7.989438943894389 61.202310231023105V60.24389438943894H8.566666666666666C8.668316831683168 60.24389438943894 8.737293729372936 60.17854785478548 8.737293729372936 60.091419141914194C8.737293729372936 60.004290429042904 8.671947194719472 59.93894389438944 8.566666666666666 59.93894389438944H7.989438943894389Z M10.207590759075906 59.93894389438944C10.105940594059405 59.93894389438944 10.007920792079206 59.975247524752476 9.920792079207919 60.04422442244224L9.790099009900988 60.14950495049505C9.688448844884487 60.23300330033003 9.626732673267325 60.36732673267327 9.626732673267325 60.4980198019802V61.093399339933995C9.626732673267325 61.224092409240924 9.688448844884487 61.35478547854785 9.790099009900988 61.438283828382836L9.920792079207919 61.547194719471946C10.007920792079206 61.61617161716172 10.105940594059405 61.652475247524755 10.207590759075906 61.652475247524755H10.545214521452145C10.643234323432342 61.652475247524755 10.748514851485147 61.61617161716172 10.835643564356435 61.547194719471946L10.966336633663365 61.438283828382836C11.067986798679867 61.35478547854785 11.129702970297028 61.224092409240924 11.129702970297028 61.093399339933995V60.4980198019802C11.129702970297028 60.36732673267327 11.067986798679867 60.23300330033003 10.966336633663365 60.14950495049505L10.835643564356435 60.04422442244224C10.748514851485147 59.975247524752476 10.643234323432342 59.93894389438944 10.545214521452145 59.93894389438944ZM10.21122112211221 60.24026402640264H10.545214521452145C10.577887788778877 60.24026402640264 10.61056105610561 60.25478547854785 10.63960396039604 60.27656765676568L10.77029702970297 60.38547854785479C10.802970297029702 60.41089108910891 10.824752475247523 60.45808580858086 10.824752475247523 60.4980198019802V61.093399339933995C10.824752475247523 61.13333333333333 10.802970297029702 61.18052805280528 10.77029702970297 61.205940594059406L10.63960396039604 61.314851485148516C10.61056105610561 61.336633663366335 10.577887788778877 61.347524752475245 10.545214521452145 61.347524752475245H10.21122112211221C10.178547854785478 61.347524752475245 10.145874587458746 61.336633663366335 10.116831683168316 61.314851485148516L9.986138613861385 61.205940594059406C9.953465346534653 61.18052805280528 9.93168316831683 61.136963696369634 9.93168316831683 61.093399339933995V60.4980198019802C9.93168316831683 60.45445544554455 9.953465346534653 60.41089108910891 9.986138613861385 60.38547854785479L10.116831683168316 60.27656765676568C10.145874587458746 60.25478547854785 10.178547854785478 60.24026402640264 10.21122112211221 60.24026402640264Z M12.175247524752475 60.10957095709571C12.175247524752475 60.007920792079204 12.10990099009901 59.93894389438944 12.022772277227723 59.93894389438944C11.935643564356436 59.93894389438944 11.87029702970297 60.0006600660066 11.87029702970297 60.10957095709571V61.48184818481848C11.87029702970297 61.58349834983498 11.935643564356436 61.652475247524755 12.022772277227723 61.652475247524755C12.10990099009901 61.652475247524755 12.175247524752475 61.587128712871284 12.175247524752475 61.48184818481848V60.56336633663366L12.527392739273928 60.33102310231023C12.596369636963697 60.28745874587459 12.654455445544555 60.24752475247525 12.741584158415842 60.24752475247525H12.83960396039604C12.966666666666667 60.24752475247525 13.024752475247524 60.33102310231023 13.032013201320133 60.4980198019802L13.068316831683168 61.48184818481848C13.071947194719472 61.59075907590759 13.133663366336634 61.652475247524755 13.220792079207921 61.652475247524755C13.304290429042904 61.652475247524755 13.373267326732673 61.587128712871284 13.373267326732673 61.48910891089109V61.48184818481848L13.340594059405941 60.50891089108911C13.32970297029703 60.13135313531353 13.184488448844885 59.93894389438944 12.868646864686468 59.93894389438944H12.73069306930693C12.552805280528053 59.93894389438944 12.45115511551155 60.01518151815181 12.353135313531354 60.084158415841586L12.175247524752475 60.203960396039605Z M14.694719471947195 59.93894389438944C14.593069306930694 59.93894389438944 14.495049504950495 59.975247524752476 14.407920792079208 60.04422442244224L14.277227722772277 60.14950495049505C14.175577557755776 60.23300330033003 14.113861386138614 60.36732673267327 14.113861386138614 60.4980198019802V61.093399339933995C14.113861386138614 61.224092409240924 14.175577557755776 61.35478547854785 14.277227722772277 61.438283828382836L14.407920792079208 61.547194719471946C14.495049504950495 61.61617161716172 14.593069306930694 61.652475247524755 14.694719471947195 61.652475247524755H15.446204620462048C15.547854785478549 61.652475247524755 15.616831683168318 61.587128712871284 15.616831683168318 61.5C15.616831683168318 61.412871287128716 15.551485148514853 61.347524752475245 15.446204620462048 61.347524752475245H14.6983498349835C14.66930693069307 61.347524752475245 14.640264026402642 61.343894389438944 14.603960396039605 61.314851485148516L14.473267326732675 61.205940594059406C14.440594059405942 61.18052805280528 14.41881188118812 61.136963696369634 14.41881188118812 61.093399339933995V61.01353135313531H15.446204620462048C15.547854785478549 61.01353135313531 15.616831683168318 60.94818481848185 15.616831683168318 60.86105610561056V60.4980198019802C15.616831683168318 60.36732673267327 15.555115511551156 60.23300330033003 15.453465346534655 60.14950495049505L15.322772277227724 60.04422442244224C15.235643564356437 59.975247524752476 15.130363036303631 59.93894389438944 15.032343234323434 59.93894389438944ZM14.6983498349835 60.24026402640264H15.032343234323434C15.065016501650167 60.24026402640264 15.097689768976899 60.25478547854785 15.126732673267329 60.27656765676568L15.25742574257426 60.38547854785479C15.290099009900992 60.41089108910891 15.311881188118813 60.45808580858086 15.311881188118813 60.4980198019802V60.7049504950495H14.41881188118812V60.4980198019802C14.41881188118812 60.45445544554455 14.440594059405942 60.41089108910891 14.473267326732675 60.38547854785479L14.603960396039605 60.27656765676568C14.633003300330035 60.25478547854785 14.665676567656767 60.24026402640264 14.6983498349835 60.24026402640264Z" fill="#f9f9f9"/>
  <path d="M25.404356435643564 59.47062706270627C25.404356435643564 59.36534653465347 25.335379537953795 59.3 25.248250825082508 59.3C25.16112211221122 59.3 25.095775577557756 59.36897689768977 25.095775577557756 59.47062706270627V60.14224422442244L24.98323432343234 60.04422442244224C24.903366336633663 59.975247524752476 24.794455445544553 59.93894389438944 24.692805280528052 59.93894389438944H24.456831683168318C24.351551155115512 59.93894389438944 24.257161716171616 59.971617161716175 24.166402640264025 60.04422442244224L24.06112211221122 60.12409240924092C23.966732673267327 60.196699669966996 23.897755775577558 60.34191419141914 23.897755775577558 60.45808580858086V61.118811881188115C23.897755775577558 61.25313531353135 23.963102310231022 61.39108910891089 24.06112211221122 61.467326732673264L24.166402640264025 61.547194719471946C24.257161716171616 61.61980198019802 24.355181518151817 61.652475247524755 24.456831683168318 61.652475247524755H24.692805280528052C24.794455445544553 61.652475247524755 24.903366336633663 61.61617161716172 24.98323432343234 61.547194719471946L25.095775577557756 61.449174917491746V61.48184818481848C25.095775577557756 61.59075907590759 25.16112211221122 61.652475247524755 25.248250825082508 61.652475247524755C25.335379537953795 61.652475247524755 25.404356435643564 61.58349834983498 25.404356435643564 61.48184818481848ZM24.456831683168318 60.24389438943894H24.692805280528052C24.732739273927393 60.24389438943894 24.765412541254126 60.25841584158416 24.798085808580858 60.28745874587459L25.055841584158415 60.49438943894389C25.077623762376238 60.51254125412541 25.09940594059406 60.556105610561055 25.09940594059406 60.5996699669967V60.988118811881186C25.09940594059406 61.03168316831683 25.077623762376238 61.07524752475248 25.055841584158415 61.093399339933995L24.798085808580858 61.30396039603961C24.76178217821782 61.333003300330034 24.72910891089109 61.347524752475245 24.692805280528052 61.347524752475245H24.456831683168318C24.406006600660067 61.347524752475245 24.38059405940594 61.325742574257426 24.351551155115512 61.30396039603961L24.24990099009901 61.224092409240924C24.22811881188119 61.205940594059406 24.206336633663366 61.16237623762376 24.206336633663366 61.118811881188115V60.46897689768977C24.206336633663366 60.425412541254126 24.22811881188119 60.38547854785479 24.24990099009901 60.36732673267327L24.351551155115512 60.28745874587459C24.38059405940594 60.26567656765677 24.406006600660067 60.24389438943894 24.456831683168318 60.24389438943894Z M26.44990099009901 60.105940594059405C26.44990099009901 60.004290429042904 26.384554455445546 59.93894389438944 26.29742574257426 59.93894389438944C26.21029702970297 59.93894389438944 26.144950495049507 59.997029702970295 26.144950495049507 60.105940594059405V61.48184818481848C26.144950495049507 61.58349834983498 26.21029702970297 61.652475247524755 26.29742574257426 61.652475247524755C26.384554455445546 61.652475247524755 26.44990099009901 61.587128712871284 26.44990099009901 61.48184818481848V60.668646864686465L26.885544554455446 60.28382838283829C26.910957095709573 60.25841584158416 26.965412541254125 60.24026402640264 26.994455445544556 60.24026402640264H27.194125412541254C27.273993399339936 60.24026402640264 27.342970297029705 60.30924092409241 27.342970297029705 60.38910891089109V60.45808580858086C27.342970297029705 60.55973597359736 27.40831683168317 60.62871287128713 27.495445544554457 60.62871287128713C27.582574257425744 60.62871287128713 27.64792079207921 60.56336633663366 27.64792079207921 60.45808580858086V60.38910891089109C27.64792079207921 60.14587458745875 27.444620462046206 59.93894389438944 27.194125412541254 59.93894389438944H26.994455445544556C26.892805280528055 59.93894389438944 26.78026402640264 59.97887788778878 26.704026402640263 60.04422442244224L26.44990099009901 60.26567656765677Z M29.005676567656767 59.172937293729376C28.90039603960396 59.172937293729376 28.835049504950497 59.23828382838284 28.835049504950497 59.325412541254124V59.45247524752475C28.835049504950497 59.539603960396036 28.896765676567657 59.60495049504951 29.005676567656767 59.60495049504951H29.121848184818482C29.223498349834987 59.60495049504951 29.292475247524756 59.539603960396036 29.292475247524756 59.45247524752475V59.325412541254124C29.292475247524756 59.23828382838284 29.216237623762378 59.172937293729376 29.154521452145218 59.172937293729376ZM28.70798679867987 59.93894389438944C28.606336633663368 59.93894389438944 28.5373597359736 60.004290429042904 28.5373597359736 60.091419141914194C28.5373597359736 60.17854785478548 28.599075907590763 60.24389438943894 28.70798679867987 60.24389438943894H28.983894389438944V61.347524752475245H28.70798679867987C28.606336633663368 61.347524752475245 28.5373597359736 61.412871287128716 28.5373597359736 61.5C28.5373597359736 61.587128712871284 28.602706270627063 61.652475247524755 28.70798679867987 61.652475247524755H29.572013201320132C29.673663366336637 61.652475247524755 29.742640264026406 61.587128712871284 29.742640264026406 61.5C29.742640264026406 61.412871287128716 29.677293729372938 61.347524752475245 29.572013201320132 61.347524752475245H29.292475247524756V60.091419141914194C29.292475247524756 60.004290429042904 29.227128712871288 59.93894389438944 29.121848184818482 59.93894389438944Z M30.9370297029703 60.105940594059405C30.9370297029703 60.004290429042904 30.871683168316835 59.93894389438944 30.784554455445548 59.93894389438944C30.69742574257426 59.93894389438944 30.632079207920796 59.997029702970295 30.632079207920796 60.105940594059405V60.33102310231023C30.632079207920796 60.37821782178218 30.642970297029706 60.4 30.653861386138615 60.421782178217825L31.133069306930697 61.52178217821782C31.169372937293733 61.6016501650165 31.202046204620466 61.652475247524755 31.289174917491753 61.652475247524755H31.47795379537954C31.561452145214524 61.652475247524755 31.59775577557756 61.6016501650165 31.634059405940597 61.52178217821782L32.113267326732675 60.421782178217825C32.124158415841585 60.4 32.1350495049505 60.37458745874587 32.1350495049505 60.33102310231023V60.105940594059405C32.1350495049505 60.0006600660066 32.06970297029703 59.93894389438944 31.982574257425746 59.93894389438944C31.89544554455446 59.93894389438944 31.830099009900994 60.004290429042904 31.830099009900994 60.105940594059405V60.305610561056106L31.383564356435645 61.325742574257426L30.9370297029703 60.305610561056106Z M33.45650165016502 59.93894389438944C33.35485148514852 59.93894389438944 33.25683168316832 59.975247524752476 33.16970297029703 60.04422442244224L33.0390099009901 60.14950495049505C32.9373597359736 60.23300330033003 32.87564356435644 60.36732673267327 32.87564356435644 60.4980198019802V61.093399339933995C32.87564356435644 61.224092409240924 32.9373597359736 61.35478547854785 33.0390099009901 61.438283828382836L33.16970297029703 61.547194719471946C33.25683168316832 61.61617161716172 33.35485148514852 61.652475247524755 33.45650165016502 61.652475247524755H34.20798679867987C34.30963696369638 61.652475247524755 34.37861386138614 61.587128712871284 34.37861386138614 61.5C34.37861386138614 61.412871287128716 34.31326732673268 61.347524752475245 34.20798679867987 61.347524752475245H33.460132013201324C33.431089108910896 61.347524752475245 33.40204620462047 61.343894389438944 33.36574257425743 61.314851485148516L33.235049504950496 61.205940594059406C33.20237623762377 61.18052805280528 33.18059405940595 61.136963696369634 33.18059405940595 61.093399339933995V61.01353135313531H34.20798679867987C34.30963696369638 61.01353135313531 34.37861386138614 60.94818481848185 34.37861386138614 60.86105610561056V60.4980198019802C34.37861386138614 60.36732673267327 34.31689768976898 60.23300330033003 34.21524752475248 60.14950495049505L34.08455445544555 60.04422442244224C33.997425742574265 59.975247524752476 33.892145214521456 59.93894389438944 33.794125412541256 59.93894389438944ZM33.460132013201324 60.24026402640264H33.794125412541256C33.82679867986799 60.24026402640264 33.85947194719472 60.25478547854785 33.888514851485155 60.27656765676568L34.019207920792084 60.38547854785479C34.05188118811881 60.41089108910891 34.07366336633664 60.45808580858086 34.07366336633664 60.4980198019802V60.7049504950495H33.18059405940595V60.4980198019802C33.18059405940595 60.45445544554455 33.20237623762377 60.41089108910891 33.235049504950496 60.38547854785479L33.36574257425743 60.27656765676568C33.39478547854786 60.25478547854785 33.42745874587459 60.24026402640264 33.460132013201324 60.24026402640264Z" fill="#f9f9f9"/>
  <path d="M5.415511551155115 77.1023102310231C5.411881188118811 77.0006600660066 5.346534653465346 76.93894389438944 5.255775577557755 76.93894389438944C5.175907590759075 76.93894389438944 5.11056105610561 77.00429042904291 5.11056105610561 77.1023102310231V77.10957095709571L5.139603960396039 78.00990099009901L5.295709570957095 78.52904290429043C5.321122112211221 78.61980198019802 5.382838283828383 78.65247524752475 5.484488448844884 78.65247524752475H5.600660066006601C5.655115511551155 78.65247524752475 5.702310231023102 78.62343234323433 5.738613861386138 78.56171617161716L5.89108910891089 78.3039603960396L6.043564356435644 78.56171617161716C6.079867986798679 78.62343234323433 6.123432343234323 78.65247524752475 6.177887788778877 78.65247524752475H6.297689768976897C6.399339933993399 78.65247524752475 6.46105610561056 78.61980198019802 6.486468646864686 78.52904290429043L6.642574257425743 78.00990099009901L6.6716171617161715 77.10957095709571V77.1023102310231C6.6716171617161715 77.00429042904291 6.602640264026402 76.93894389438944 6.522772277227722 76.93894389438944C6.432013201320132 76.93894389438944 6.37029702970297 77.0006600660066 6.366666666666666 77.1023102310231L6.3376237623762375 77.96996699669967L6.235973597359735 78.296699669967L6.039933993399339 77.94818481848185V77.61782178217821C6.039933993399339 77.52343234323432 5.978217821782177 77.45082508250825 5.89108910891089 77.45082508250825C5.803960396039603 77.45082508250825 5.738613861386138 77.51617161716172 5.738613861386138 77.61782178217821V77.94818481848185L5.542574257425742 78.296699669967L5.44092409240924 77.96996699669967Z M7.688118811881187 76.47062706270627C7.688118811881187 76.36897689768976 7.622772277227723 76.3 7.535643564356436 76.3C7.4485148514851485 76.3 7.383168316831683 76.36171617161716 7.383168316831683 76.47062706270627V78.48184818481849C7.383168316831683 78.58349834983498 7.4485148514851485 78.65247524752475 7.535643564356436 78.65247524752475C7.622772277227723 78.65247524752475 7.688118811881187 78.58712871287129 7.688118811881187 78.48184818481849V77.55610561056106L8.087458745874587 77.28745874587459C8.123762376237623 77.26204620462046 8.152805280528053 77.24389438943895 8.196369636963697 77.24389438943895H8.392409240924092C8.475907590759075 77.24389438943895 8.537623762376237 77.3056105610561 8.541254125412541 77.38910891089108L8.577557755775578 78.48910891089109C8.58118811881188 78.59075907590758 8.65016501650165 78.65247524752475 8.737293729372936 78.65247524752475C8.817161716171617 78.65247524752475 8.882508250825083 78.58349834983498 8.882508250825083 78.48547854785478V78.47821782178218L8.846204620462046 77.38910891089108C8.835313531353135 77.11683168316831 8.628382838283828 76.93894389438944 8.392409240924092 76.93894389438944H8.2C8.047524752475248 76.93894389438944 7.96039603960396 77.01155115511551 7.909570957095709 77.04422442244224L7.688118811881187 77.18943894389439Z M10.095049504950493 76.93894389438944C9.993399339933992 76.93894389438944 9.928052805280528 77.00429042904291 9.928052805280528 77.09141914191419C9.928052805280528 77.17854785478548 9.986138613861385 77.24389438943895 10.095049504950493 77.24389438943895H10.635973597359735C10.71947194719472 77.24389438943895 10.78118811881188 77.3019801980198 10.784818481848184 77.38910891089108L10.795709570957095 77.60330033003301C10.752145214521452 77.58514851485148 10.708580858085808 77.57788778877888 10.66138613861386 77.57788778877888H10.08052805280528C9.837293729372936 77.57788778877888 9.626732673267325 77.78118811881188 9.626732673267325 78.03168316831683V78.2023102310231C9.626732673267325 78.44917491749175 9.83003300330033 78.65247524752475 10.08052805280528 78.65247524752475H10.512541254125411C10.559735973597359 78.65247524752475 10.617821782178217 78.63069306930693 10.646864686468646 78.61254125412542L10.824752475247523 78.5C10.839273927392739 78.5980198019802 10.897359735973597 78.65247524752475 10.98085808580858 78.65247524752475C11.06072607260726 78.65247524752475 11.129702970297028 78.58349834983498 11.129702970297028 78.48547854785478V78.47821782178218L11.08976897689769 77.38910891089108C11.078877887788778 77.11683168316831 10.868316831683167 76.93894389438944 10.635973597359735 76.93894389438944ZM10.076897689768977 77.88283828382838H10.66138613861386C10.74125412541254 77.88283828382838 10.81023102310231 77.94455445544554 10.81023102310231 78.02805280528052L10.813861386138614 78.16237623762376L10.487128712871286 78.34752475247525H10.08052805280528C9.997029702970297 78.34752475247525 9.93168316831683 78.27854785478547 9.93168316831683 78.2023102310231V78.03168316831683C9.93168316831683 77.94818481848185 10.004290429042904 77.88283828382838 10.076897689768977 77.88283828382838Z M13.366006600660066 77.28745874587459C13.35874587458746 77.09141914191419 13.206270627062707 76.93894389438944 12.992079207920792 76.93894389438944C12.886798679867987 76.93894389438944 12.817821782178218 76.98613861386139 12.737953795379537 77.05148514851486L12.701650165016503 77.08052805280528C12.610891089108911 76.98250825082508 12.516501650165017 76.93894389438944 12.4003300330033 76.93894389438944C12.316831683168317 76.93894389438944 12.25148514851485 76.96072607260726 12.186138613861386 77.01155115511551L12.135313531353136 77.05148514851486C12.106270627062706 76.97524752475248 12.05907590759076 76.93894389438944 11.990099009900991 76.93894389438944C11.902970297029704 76.93894389438944 11.837623762376237 76.9970297029703 11.837623762376237 77.1059405940594V78.48184818481849C11.837623762376237 78.58349834983498 11.902970297029704 78.65247524752475 11.990099009900991 78.65247524752475C12.077227722772278 78.65247524752475 12.142574257425743 78.58712871287129 12.142574257425743 78.48184818481849V77.43630363036304L12.356765676567656 77.26204620462046C12.371287128712872 77.24752475247524 12.38943894389439 77.24752475247524 12.4003300330033 77.24752475247524C12.436633663366337 77.24752475247524 12.465676567656766 77.27656765676568 12.465676567656766 77.3092409240924V78.48184818481849C12.465676567656766 78.58349834983498 12.534653465346535 78.65247524752475 12.621782178217822 78.65247524752475C12.70891089108911 78.65247524752475 12.774257425742574 78.58712871287129 12.774257425742574 78.48184818481849V77.42178217821782L12.963036303630364 77.25841584158415C12.973927392739274 77.24752475247524 12.992079207920792 77.24752475247524 13.002970297029703 77.24752475247524C13.035643564356436 77.24752475247524 13.061056105610561 77.26930693069306 13.061056105610561 77.3019801980198L13.100990099009902 78.48910891089109C13.104620462046205 78.59075907590758 13.16996699669967 78.65247524752475 13.257095709570958 78.65247524752475C13.336963696369637 78.65247524752475 13.405940594059405 78.58349834983498 13.405940594059405 78.48547854785478V78.47821782178218Z M15.60957095709571 77.28745874587459C15.602310231023104 77.09141914191419 15.449834983498352 76.93894389438944 15.235643564356437 76.93894389438944C15.130363036303631 76.93894389438944 15.061386138613862 76.98613861386139 14.981518151815182 77.05148514851486L14.945214521452147 77.08052805280528C14.854455445544556 76.98250825082508 14.760066006600661 76.93894389438944 14.643894389438945 76.93894389438944C14.560396039603962 76.93894389438944 14.495049504950495 76.96072607260726 14.429702970297031 77.01155115511551L14.37887788778878 77.05148514851486C14.34983498349835 76.97524752475248 14.302640264026405 76.93894389438944 14.233663366336636 76.93894389438944C14.146534653465348 76.93894389438944 14.081188118811882 76.9970297029703 14.081188118811882 77.1059405940594V78.48184818481849C14.081188118811882 78.58349834983498 14.146534653465348 78.65247524752475 14.233663366336636 78.65247524752475C14.320792079207923 78.65247524752475 14.386138613861387 78.58712871287129 14.386138613861387 78.48184818481849V77.43630363036304L14.600330033003301 77.26204620462046C14.614851485148517 77.24752475247524 14.633003300330035 77.24752475247524 14.643894389438945 77.24752475247524C14.680198019801981 77.24752475247524 14.709240924092411 77.27656765676568 14.709240924092411 77.3092409240924V78.48184818481849C14.709240924092411 78.58349834983498 14.77821782178218 78.65247524752475 14.865346534653467 78.65247524752475C14.952475247524754 78.65247524752475 15.017821782178219 78.58712871287129 15.017821782178219 78.48184818481849V77.42178217821782L15.206600660066009 77.25841584158415C15.217491749174918 77.24752475247524 15.235643564356437 77.24752475247524 15.246534653465348 77.24752475247524C15.27920792079208 77.24752475247524 15.304620462046206 77.26930693069306 15.304620462046206 77.3019801980198L15.344554455445547 78.48910891089109C15.34818481848185 78.59075907590758 15.413531353135316 78.65247524752475 15.500660066006603 78.65247524752475C15.580528052805281 78.65247524752475 15.64950495049505 78.58349834983498 15.64950495049505 78.48547854785478V78.47821782178218Z M16.662376237623764 77.1059405940594C16.662376237623764 77.00429042904291 16.5970297029703 76.93894389438944 16.509900990099013 76.93894389438944C16.422772277227725 76.93894389438944 16.35742574257426 76.9970297029703 16.35742574257426 77.1059405940594V77.33102310231023C16.35742574257426 77.37821782178217 16.36831683168317 77.4 16.37920792079208 77.42178217821782L16.82574257425743 78.44917491749175C16.843894389438947 78.4927392739274 16.8983498349835 78.52541254125413 16.974587458745876 78.52541254125413H17.025412541254127L16.82574257425743 78.98646864686468H16.524422442244227C16.422772277227725 78.98646864686468 16.35742574257426 79.05181518151815 16.35742574257426 79.13894389438944C16.35742574257426 79.22607260726073 16.41914191419142 79.29141914191419 16.524422442244227 79.29141914191419H16.905610561056108C16.981848184818485 79.29141914191419 17.03993399339934 79.25148514851485 17.05808580858086 79.21518151815181L17.83861386138614 77.42178217821782C17.849504950495053 77.3963696369637 17.860396039603962 77.37095709570957 17.860396039603962 77.33102310231023V77.1059405940594C17.860396039603962 77.0006600660066 17.795049504950498 76.93894389438944 17.70792079207921 76.93894389438944C17.620792079207924 76.93894389438944 17.55544554455446 77.00429042904291 17.55544554455446 77.1059405940594V77.3056105610561L17.15610561056106 78.21683168316832H17.061716171617164L16.662376237623764 77.3056105610561Z" fill="#f9f9f9"/>
  <path d="M23.957656765676568 76.17293729372938C23.852376237623762 76.17293729372938 23.787029702970298 76.23828382838283 23.787029702970298 76.32541254125412V76.45247524752475C23.787029702970298 76.53960396039604 23.848745874587458 76.60495049504951 23.957656765676568 76.60495049504951H24.073828382838283C24.175478547854787 76.60495049504951 24.244455445544556 76.53960396039604 24.244455445544556 76.45247524752475V76.32541254125412C24.244455445544556 76.23828382838283 24.16821782178218 76.17293729372938 24.10650165016502 76.17293729372938ZM23.65996699669967 76.93894389438944C23.558316831683168 76.93894389438944 23.4893399339934 77.00429042904291 23.4893399339934 77.09141914191419C23.4893399339934 77.17854785478548 23.551056105610563 77.24389438943895 23.65996699669967 77.24389438943895H23.935874587458745V78.34752475247525H23.65996699669967C23.558316831683168 78.34752475247525 23.4893399339934 78.41287128712871 23.4893399339934 78.5C23.4893399339934 78.58712871287129 23.554686468646864 78.65247524752475 23.65996699669967 78.65247524752475H24.523993399339936C24.625643564356437 78.65247524752475 24.694620462046206 78.58712871287129 24.694620462046206 78.5C24.694620462046206 78.41287128712871 24.629273927392738 78.34752475247525 24.523993399339936 78.34752475247525H24.244455445544556V77.09141914191419C24.244455445544556 77.00429042904291 24.179108910891088 76.93894389438944 24.073828382838283 76.93894389438944Z M25.8890099009901 77.10957095709571C25.8890099009901 77.0079207920792 25.823663366336636 76.93894389438944 25.73653465346535 76.93894389438944C25.64940594059406 76.93894389438944 25.584059405940597 77.0006600660066 25.584059405940597 77.10957095709571V78.48184818481849C25.584059405940597 78.58349834983498 25.64940594059406 78.65247524752475 25.73653465346535 78.65247524752475C25.823663366336636 78.65247524752475 25.8890099009901 78.58712871287129 25.8890099009901 78.48184818481849V77.56336633663366L26.241155115511553 77.33102310231023C26.310132013201322 77.28745874587459 26.36821782178218 77.24752475247524 26.455346534653465 77.24752475247524H26.553366336633665C26.680429042904294 77.24752475247524 26.73851485148515 77.33102310231023 26.745775577557758 77.49801980198019L26.782079207920795 78.48184818481849C26.785709570957096 78.59075907590758 26.84742574257426 78.65247524752475 26.934554455445546 78.65247524752475C27.01805280528053 78.65247524752475 27.087029702970298 78.58712871287129 27.087029702970298 78.48910891089109V78.48184818481849L27.054356435643566 77.50891089108912C27.043465346534656 77.13135313531353 26.89825082508251 76.93894389438944 26.582409240924093 76.93894389438944H26.444455445544556C26.266567656765677 76.93894389438944 26.164917491749176 77.01518151815182 26.06689768976898 77.08415841584159L25.8890099009901 77.2039603960396Z M29.26887788778878 76.3C29.167227722772278 76.3 29.09825082508251 76.36534653465347 29.09825082508251 76.45247524752475C29.09825082508251 76.53960396039604 29.159966996699673 76.60495049504951 29.26887788778878 76.60495049504951H29.544785478547855V78.34752475247525H29.26887788778878C29.167227722772278 78.34752475247525 29.09825082508251 78.41287128712871 29.09825082508251 78.5C29.09825082508251 78.58712871287129 29.163597359735974 78.65247524752475 29.26887788778878 78.65247524752475H30.132904290429046C30.234554455445547 78.65247524752475 30.303531353135316 78.58712871287129 30.303531353135316 78.5C30.303531353135316 78.41287128712871 30.238184818481848 78.34752475247525 30.132904290429046 78.34752475247525H29.853366336633666V76.45247524752475C29.853366336633666 76.36534653465347 29.788019801980198 76.3 29.682739273927393 76.3Z M31.49792079207921 77.1059405940594C31.49792079207921 77.00429042904291 31.432574257425745 76.93894389438944 31.345445544554458 76.93894389438944C31.25831683168317 76.93894389438944 31.192970297029706 76.9970297029703 31.192970297029706 77.1059405940594V77.33102310231023C31.192970297029706 77.37821782178217 31.203861386138616 77.4 31.214752475247526 77.42178217821782L31.693960396039607 78.52178217821782C31.730264026402644 78.60165016501651 31.762937293729376 78.65247524752475 31.850066006600663 78.65247524752475H32.03884488448845C32.12234323432344 78.65247524752475 32.158646864686474 78.60165016501651 32.194950495049504 78.52178217821782L32.67415841584159 77.42178217821782C32.6850495049505 77.4 32.69594059405941 77.37458745874588 32.69594059405941 77.33102310231023V77.1059405940594C32.69594059405941 77.0006600660066 32.630594059405944 76.93894389438944 32.54346534653465 76.93894389438944C32.45633663366337 76.93894389438944 32.390990099009905 77.00429042904291 32.390990099009905 77.1059405940594V77.3056105610561L31.944455445544556 78.32574257425743L31.49792079207921 77.3056105610561Z M33.756006600660065 76.3C33.654356435643564 76.3 33.5853795379538 76.36534653465347 33.5853795379538 76.45247524752475C33.5853795379538 76.53960396039604 33.647095709570955 76.60495049504951 33.756006600660065 76.60495049504951H34.03191419141914V78.34752475247525H33.756006600660065C33.654356435643564 78.34752475247525 33.5853795379538 78.41287128712871 33.5853795379538 78.5C33.5853795379538 78.58712871287129 33.65072607260726 78.65247524752475 33.756006600660065 78.65247524752475H34.62003300330033C34.72168316831683 78.65247524752475 34.7906600660066 78.58712871287129 34.7906600660066 78.5C34.7906600660066 78.41287128712871 34.72531353135314 78.34752475247525 34.62003300330033 78.34752475247525H34.34049504950495V76.45247524752475C34.34049504950495 76.36534653465347 34.27514851485149 76.3 34.16986798679868 76.3Z" fill="#f9f9f9"/>
  <path d="M5.581188118811881 93.99174917491749C5.581188118811881 94.03531353135314 5.5594059405940595 94.07887788778878 5.537623762376238 94.0970297029703L5.2798679867986795 94.3039603960396C5.247194719471947 94.33300330033003 5.214521452145214 94.34752475247525 5.174587458745874 94.34752475247525H4.938613861386139C4.887788778877887 94.34752475247525 4.866006600660066 94.32937293729373 4.833333333333333 94.3039603960396L4.731683168316831 94.22409240924092C4.709900990099009 94.2059405940594 4.688118811881187 94.16237623762376 4.688118811881187 94.12244224422442V93.47260726072608C4.688118811881187 93.42904290429043 4.709900990099009 93.38547854785479 4.731683168316831 93.36732673267326L4.833333333333333 93.28745874587459C4.862376237623762 93.26204620462046 4.8914191419141915 93.24389438943895 4.938613861386139 93.24389438943895H5.174587458745874C5.207260726072607 93.24389438943895 5.243564356435643 93.25841584158415 5.2798679867986795 93.28745874587459L5.537623762376238 93.49801980198019C5.5594059405940595 93.51617161716172 5.581188118811881 93.55973597359736 5.581188118811881 93.60330033003301ZM5.577557755775578 93.1059405940594V93.14224422442244L5.465016501650165 93.04422442244224C5.385148514851485 92.97524752475248 5.276237623762376 92.93894389438944 5.174587458745874 92.93894389438944H4.938613861386139C4.833333333333333 92.93894389438944 4.738943894389439 92.97161716171617 4.648184818481848 93.04422442244224L4.542904290429043 93.12409240924093C4.452145214521452 93.196699669967 4.37953795379538 93.33465346534653 4.37953795379538 93.46897689768977V94.13333333333334C4.37953795379538 94.24950495049505 4.4485148514851485 94.3947194719472 4.542904290429043 94.46732673267327L4.648184818481848 94.54719471947195C4.738943894389439 94.61980198019802 4.833333333333333 94.65247524752475 4.938613861386139 94.65247524752475H5.174587458745874C5.276237623762376 94.65247524752475 5.385148514851485 94.61617161716171 5.465016501650165 94.54719471947195L5.577557755775578 94.44917491749175V94.73234323432344C5.577557755775578 94.77590759075908 5.5594059405940595 94.81947194719471 5.526732673267326 94.84488448844884L5.3960396039603955 94.95379537953795C5.35973597359736 94.98283828382839 5.33069306930693 94.98646864686468 5.298019801980198 94.98646864686468H4.706270627062706C4.6009900990099 94.98646864686468 4.535643564356436 95.05181518151815 4.535643564356436 95.13894389438944C4.535643564356436 95.22607260726073 4.604620462046205 95.29141914191419 4.706270627062706 95.29141914191419H5.301650165016501C5.403300330033003 95.29141914191419 5.501320132013201 95.25511551155115 5.588448844884488 95.18613861386139L5.7227722772277225 95.07722772277228C5.824422442244224 94.9937293729373 5.886138613861386 94.86303630363037 5.886138613861386 94.73234323432344V93.1059405940594C5.886138613861386 93.00429042904291 5.817161716171617 92.93894389438944 5.7300330033003295 92.93894389438944C5.642904290429042 92.93894389438944 5.577557755775578 93.0006600660066 5.577557755775578 93.1059405940594Z M7.095049504950495 92.93894389438944C6.993399339933993 92.93894389438944 6.928052805280528 93.00429042904291 6.928052805280528 93.09141914191419C6.928052805280528 93.17854785478548 6.986138613861386 93.24389438943895 7.095049504950495 93.24389438943895H7.635973597359736C7.7194719471947195 93.24389438943895 7.781188118811881 93.3019801980198 7.784818481848185 93.38910891089108L7.795709570957095 93.60330033003301C7.752145214521452 93.58514851485148 7.708580858085808 93.57788778877888 7.661386138613861 93.57788778877888H7.08052805280528C6.837293729372937 93.57788778877888 6.626732673267327 93.78118811881188 6.626732673267327 94.03168316831683V94.2023102310231C6.626732673267327 94.44917491749175 6.83003300330033 94.65247524752475 7.08052805280528 94.65247524752475H7.512541254125413C7.55973597359736 94.65247524752475 7.6178217821782175 94.63069306930693 7.646864686468647 94.61254125412542L7.824752475247525 94.5C7.839273927392739 94.5980198019802 7.897359735973597 94.65247524752475 7.980858085808581 94.65247524752475C8.060726072607261 94.65247524752475 8.12970297029703 94.58349834983498 8.12970297029703 94.48547854785478V94.47821782178218L8.08976897689769 93.38910891089108C8.078877887788778 93.11683168316831 7.868316831683169 92.93894389438944 7.635973597359736 92.93894389438944ZM7.076897689768977 93.88283828382838H7.661386138613861C7.741254125412541 93.88283828382838 7.81023102310231 93.94455445544554 7.81023102310231 94.02805280528052L7.813861386138614 94.16237623762376L7.487128712871288 94.34752475247525H7.08052805280528C6.997029702970297 94.34752475247525 6.931683168316831 94.27854785478547 6.931683168316831 94.2023102310231V94.03168316831683C6.931683168316831 93.94818481848185 7.004290429042904 93.88283828382838 7.076897689768977 93.88283828382838Z M9.487458745874587 92.17293729372938C9.382178217821782 92.17293729372938 9.316831683168317 92.23828382838283 9.316831683168317 92.32541254125412V92.45247524752475C9.316831683168317 92.53960396039604 9.378547854785479 92.60495049504951 9.487458745874587 92.60495049504951H9.603630363036304C9.705280528052805 92.60495049504951 9.774257425742574 92.53960396039604 9.774257425742574 92.45247524752475V92.32541254125412C9.774257425742574 92.23828382838283 9.698019801980198 92.17293729372938 9.636303630363036 92.17293729372938ZM9.18976897689769 92.93894389438944C9.088118811881188 92.93894389438944 9.019141914191419 93.00429042904291 9.019141914191419 93.09141914191419C9.019141914191419 93.17854785478548 9.08085808580858 93.24389438943895 9.18976897689769 93.24389438943895H9.465676567656766V94.34752475247525H9.18976897689769C9.088118811881188 94.34752475247525 9.019141914191419 94.41287128712871 9.019141914191419 94.5C9.019141914191419 94.58712871287129 9.084488448844885 94.65247524752475 9.18976897689769 94.65247524752475H10.053795379537954C10.155445544554455 94.65247524752475 10.224422442244224 94.58712871287129 10.224422442244224 94.5C10.224422442244224 94.41287128712871 10.15907590759076 94.34752475247525 10.053795379537954 94.34752475247525H9.774257425742574V93.09141914191419C9.774257425742574 93.00429042904291 9.70891089108911 92.93894389438944 9.603630363036304 92.93894389438944Z M11.41881188118812 93.10957095709571C11.41881188118812 93.0079207920792 11.353465346534655 92.93894389438944 11.266336633663368 92.93894389438944C11.17920792079208 92.93894389438944 11.113861386138614 93.0006600660066 11.113861386138614 93.10957095709571V94.48184818481849C11.113861386138614 94.58349834983498 11.17920792079208 94.65247524752475 11.266336633663368 94.65247524752475C11.353465346534655 94.65247524752475 11.41881188118812 94.58712871287129 11.41881188118812 94.48184818481849V93.56336633663366L11.770957095709573 93.33102310231023C11.839933993399342 93.28745874587459 11.8980198019802 93.24752475247524 11.985148514851486 93.24752475247524H12.083168316831685C12.210231023102311 93.24752475247524 12.268316831683169 93.33102310231023 12.275577557755778 93.49801980198019L12.311881188118813 94.48184818481849C12.315511551155117 94.59075907590758 12.377227722772279 94.65247524752475 12.464356435643566 94.65247524752475C12.547854785478549 94.65247524752475 12.616831683168318 94.58712871287129 12.616831683168318 94.48910891089109V94.48184818481849L12.584158415841586 93.50891089108912C12.573267326732674 93.13135313531353 12.42805280528053 92.93894389438944 12.112211221122113 92.93894389438944H11.974257425742575C11.796369636963698 92.93894389438944 11.694719471947195 93.01518151815182 11.596699669966998 93.08415841584159L11.41881188118812 93.2039603960396Z" fill="#f9f9f9"/>
  <path d="M15.386336633663365 93.1059405940594C15.386336633663365 93.00429042904291 15.3209900990099 92.93894389438944 15.233861386138614 92.93894389438944C15.146732673267326 92.93894389438944 15.08138613861386 92.9970297029703 15.08138613861386 93.1059405940594V93.33102310231023C15.08138613861386 93.37821782178217 15.092277227722771 93.4 15.103168316831683 93.42178217821782L15.582376237623762 94.52178217821782C15.618679867986797 94.60165016501651 15.651353135313531 94.65247524752475 15.738481848184819 94.65247524752475H15.927260726072607C16.01075907590759 94.65247524752475 16.047062706270626 94.60165016501651 16.083366336633663 94.52178217821782L16.56257425742574 93.42178217821782C16.573465346534654 93.4 16.584356435643564 93.37458745874588 16.584356435643564 93.33102310231023V93.1059405940594C16.584356435643564 93.0006600660066 16.5190099009901 92.93894389438944 16.431881188118812 92.93894389438944C16.344752475247525 92.93894389438944 16.27940594059406 93.00429042904291 16.27940594059406 93.1059405940594V93.3056105610561L15.832871287128713 94.32574257425743L15.386336633663365 93.3056105610561Z M18.79887788778878 92.53960396039604C18.8170297029703 92.51056105610562 18.824290429042904 92.47788778877887 18.824290429042904 92.45247524752475C18.824290429042904 92.35808580858085 18.75168316831683 92.3 18.675445544554456 92.3C18.617359735973597 92.3 18.57016501650165 92.32904290429043 18.533861386138614 92.38712871287129L17.353993399339934 94.40924092409242C17.335841584158416 94.43828382838284 17.328580858085807 94.47095709570957 17.328580858085807 94.5C17.328580858085807 94.58712871287129 17.39029702970297 94.64884488448845 17.47742574257426 94.64884488448845C17.53914191419142 94.64884488448845 17.582706270627064 94.61980198019802 17.6190099009901 94.56171617161716Z M20.14937293729373 92.93894389438944C20.04772277227723 92.93894389438944 19.949702970297032 92.97524752475248 19.862574257425745 93.04422442244224L19.731881188118813 93.14950495049504C19.63023102310231 93.23300330033004 19.56851485148515 93.36732673267326 19.56851485148515 93.49801980198019V94.093399339934C19.56851485148515 94.22409240924092 19.63023102310231 94.35478547854785 19.731881188118813 94.43828382838284L19.862574257425745 94.54719471947195C19.949702970297032 94.61617161716171 20.04772277227723 94.65247524752475 20.14937293729373 94.65247524752475H20.48699669966997C20.585016501650166 94.65247524752475 20.690297029702972 94.61617161716171 20.77742574257426 94.54719471947195L20.908118811881188 94.43828382838284C21.009768976897693 94.35478547854785 21.071485148514853 94.22409240924092 21.071485148514853 94.093399339934V93.49801980198019C21.071485148514853 93.36732673267326 21.009768976897693 93.23300330033004 20.908118811881188 93.14950495049504L20.77742574257426 93.04422442244224C20.690297029702972 92.97524752475248 20.585016501650166 92.93894389438944 20.48699669966997 92.93894389438944ZM20.153003300330035 93.24026402640264H20.48699669966997C20.5196699669967 93.24026402640264 20.552343234323434 93.25478547854786 20.581386138613862 93.27656765676568L20.712079207920794 93.38547854785479C20.744752475247527 93.41089108910892 20.76653465346535 93.45808580858086 20.76653465346535 93.49801980198019V94.093399339934C20.76653465346535 94.13333333333334 20.744752475247527 94.18052805280529 20.712079207920794 94.2059405940594L20.581386138613862 94.31485148514851C20.552343234323434 94.33663366336634 20.5196699669967 94.34752475247525 20.48699669966997 94.34752475247525H20.153003300330035C20.120330033003302 94.34752475247525 20.08765676567657 94.33663366336634 20.05861386138614 94.31485148514851L19.92792079207921 94.2059405940594C19.895247524752477 94.18052805280529 19.873465346534655 94.13696369636963 19.873465346534655 94.093399339934V93.49801980198019C19.873465346534655 93.45445544554455 19.895247524752477 93.41089108910892 19.92792079207921 93.38547854785479L20.05861386138614 93.27656765676568C20.08765676567657 93.25478547854786 20.120330033003302 93.24026402640264 20.153003300330035 93.24026402640264Z M22.53815181518152 92.93894389438944C22.432871287128716 92.93894389438944 22.316699669967 92.98250825082508 22.244092409240928 93.04422442244224L21.971815181518153 93.28382838283828C21.86653465346535 93.37821782178217 21.812079207920796 93.5016501650165 21.812079207920796 93.62871287128714V93.96270627062707C21.812079207920796 94.08976897689769 21.86653465346535 94.21320132013201 21.971815181518153 94.30759075907591L22.244092409240928 94.54719471947195C22.316699669967 94.60891089108911 22.432871287128716 94.65247524752475 22.53815181518152 94.65247524752475H23.144422442244228C23.24607260726073 94.65247524752475 23.315049504950498 94.58712871287129 23.315049504950498 94.5C23.315049504950498 94.41287128712871 23.249702970297033 94.34752475247525 23.144422442244228 94.34752475247525H22.53815181518152C22.490957095709575 94.34752475247525 22.465544554455448 94.32937293729373 22.432871287128716 94.3039603960396L22.160594059405945 94.06798679867987C22.135181518151818 94.04620462046205 22.1170297029703 94.0026402640264 22.1170297029703 93.96270627062707V93.62508250825083C22.1170297029703 93.58514851485148 22.135181518151818 93.54521452145215 22.160594059405945 93.52343234323432L22.432871287128716 93.28745874587459C22.465544554455448 93.25841584158415 22.49821782178218 93.24026402640264 22.53815181518152 93.24026402640264H23.144422442244228C23.25696369636964 93.24026402640264 23.315049504950498 93.17854785478548 23.315049504950498 93.09141914191419C23.315049504950498 93.00429042904291 23.24607260726073 92.93894389438944 23.144422442244228 92.93894389438944Z M24.661914191419147 92.5940594059406C24.661914191419147 92.49240924092409 24.592937293729378 92.42706270627063 24.50580858085809 92.42706270627063C24.418679867986803 92.42706270627063 24.35333333333334 92.48514851485149 24.35333333333334 92.5940594059406V92.93894389438944H24.22627062706271C24.12462046204621 92.93894389438944 24.05564356435644 93.00429042904291 24.05564356435644 93.09141914191419C24.05564356435644 93.17854785478548 24.1173597359736 93.24389438943895 24.22627062706271 93.24389438943895H24.35333333333334V94.1986798679868C24.35333333333334 94.44554455445545 24.55663366336634 94.65247524752475 24.80712871287129 94.65247524752475H25.104818481848188C25.369834983498354 94.65247524752475 25.554983498349838 94.42013201320133 25.554983498349838 94.23498349834983C25.554983498349838 94.16237623762376 25.493267326732678 94.08976897689769 25.40613861386139 94.08976897689769C25.282706270627067 94.08976897689769 25.271815181518157 94.18778877887789 25.250033003300334 94.24224422442244C25.224620462046207 94.31122112211222 25.170165016501656 94.34752475247525 25.108448844884492 94.34752475247525H24.80712871287129C24.723630363036307 94.34752475247525 24.661914191419147 94.28217821782178 24.661914191419147 94.2023102310231V93.24389438943895H25.23914191419142C25.340792079207926 93.24389438943895 25.409768976897695 93.17854785478548 25.409768976897695 93.09141914191419C25.409768976897695 93.00429042904291 25.344422442244227 92.93894389438944 25.23914191419142 92.93894389438944H24.661914191419147Z" fill="#f9f9f9"/>
  <path d="M28.29907590759076 93.1023102310231C28.295445544554454 93.0006600660066 28.23009900990099 92.93894389438944 28.139339933993398 92.93894389438944C28.05947194719472 92.93894389438944 27.99412541254125 93.00429042904291 27.99412541254125 93.1023102310231V93.10957095709571L28.023168316831683 94.00990099009901L28.17927392739274 94.52904290429043C28.204686468646862 94.61980198019802 28.266402640264026 94.65247524752475 28.368052805280527 94.65247524752475H28.484224422442242C28.538679867986797 94.65247524752475 28.585874587458743 94.62343234323433 28.62217821782178 94.56171617161716L28.774653465346532 94.3039603960396L28.927128712871287 94.56171617161716C28.963432343234324 94.62343234323433 29.006996699669966 94.65247524752475 29.06145214521452 94.65247524752475H29.18125412541254C29.28290429042904 94.65247524752475 29.344620462046205 94.61980198019802 29.37003300330033 94.52904290429043L29.526138613861384 94.00990099009901L29.555181518151812 93.10957095709571V93.1023102310231C29.555181518151812 93.00429042904291 29.486204620462043 92.93894389438944 29.406336633663365 92.93894389438944C29.315577557755773 92.93894389438944 29.253861386138613 93.0006600660066 29.25023102310231 93.1023102310231L29.22118811881188 93.96996699669967L29.11953795379538 94.296699669967L28.923498349834983 93.94818481848185V93.61782178217821C28.923498349834983 93.52343234323432 28.86178217821782 93.45082508250825 28.774653465346532 93.45082508250825C28.687524752475245 93.45082508250825 28.62217821782178 93.51617161716172 28.62217821782178 93.61782178217821V93.94818481848185L28.426138613861383 94.296699669967L28.324488448844882 93.96996699669967Z M30.57168316831683 92.47062706270627C30.57168316831683 92.36897689768976 30.506336633663366 92.3 30.41920792079208 92.3C30.332079207920792 92.3 30.266732673267327 92.36171617161716 30.266732673267327 92.47062706270627V94.48184818481849C30.266732673267327 94.58349834983498 30.332079207920792 94.65247524752475 30.41920792079208 94.65247524752475C30.506336633663366 94.65247524752475 30.57168316831683 94.58712871287129 30.57168316831683 94.48184818481849V93.55610561056106L30.97102310231023 93.28745874587459C31.007326732673267 93.26204620462046 31.036369636963695 93.24389438943895 31.07993399339934 93.24389438943895H31.275973597359737C31.35947194719472 93.24389438943895 31.42118811881188 93.3056105610561 31.424818481848185 93.38910891089108L31.46112211221122 94.48910891089109C31.464752475247526 94.59075907590758 31.533729372937294 94.65247524752475 31.62085808580858 94.65247524752475C31.70072607260726 94.65247524752475 31.766072607260725 94.58349834983498 31.766072607260725 94.48547854785478V94.47821782178218L31.729768976897688 93.38910891089108C31.71887788778878 93.11683168316831 31.511947194719472 92.93894389438944 31.275973597359737 92.93894389438944H31.083564356435645C30.93108910891089 92.93894389438944 30.843960396039602 93.01155115511551 30.79313531353135 93.04422442244224L30.57168316831683 93.18943894389439Z M32.97861386138614 92.93894389438944C32.876963696369636 92.93894389438944 32.81161716171617 93.00429042904291 32.81161716171617 93.09141914191419C32.81161716171617 93.17854785478548 32.86970297029703 93.24389438943895 32.97861386138614 93.24389438943895H33.51953795379538C33.60303630363036 93.24389438943895 33.664752475247525 93.3019801980198 33.668382838283826 93.38910891089108L33.67927392739274 93.60330033003301C33.6357095709571 93.58514851485148 33.59214521452145 93.57788778877888 33.544950495049505 93.57788778877888H32.964092409240926C32.72085808580858 93.57788778877888 32.51029702970297 93.78118811881188 32.51029702970297 94.03168316831683V94.2023102310231C32.51029702970297 94.44917491749175 32.71359735973597 94.65247524752475 32.964092409240926 94.65247524752475H33.39610561056106C33.443300330033004 94.65247524752475 33.50138613861386 94.63069306930693 33.53042904290429 94.61254125412542L33.70831683168317 94.5C33.72283828382838 94.5980198019802 33.78092409240924 94.65247524752475 33.864422442244226 94.65247524752475C33.94429042904291 94.65247524752475 34.013267326732674 94.58349834983498 34.013267326732674 94.48547854785478V94.47821782178218L33.973333333333336 93.38910891089108C33.96244224422442 93.11683168316831 33.751881188118816 92.93894389438944 33.51953795379538 92.93894389438944ZM32.96046204620462 93.88283828382838H33.544950495049505C33.62481848184819 93.88283828382838 33.69379537953795 93.94455445544554 33.69379537953795 94.02805280528052L33.69742574257426 94.16237623762376L33.37069306930693 94.34752475247525H32.964092409240926C32.880594059405944 94.34752475247525 32.81524752475248 94.27854785478547 32.81524752475248 94.2023102310231V94.03168316831683C32.81524752475248 93.94818481848185 32.887854785478545 93.88283828382838 32.96046204620462 93.88283828382838Z M36.249570957095706 93.28745874587459C36.2423102310231 93.09141914191419 36.08983498349835 92.93894389438944 35.87564356435644 92.93894389438944C35.77036303630363 92.93894389438944 35.70138613861386 92.98613861386139 35.62151815181518 93.05148514851486L35.585214521452144 93.08052805280528C35.49445544554455 92.98250825082508 35.40006600660066 92.93894389438944 35.28389438943894 92.93894389438944C35.20039603960396 92.93894389438944 35.135049504950494 92.96072607260726 35.06970297029703 93.01155115511551L35.018877887788776 93.05148514851486C34.98983498349835 92.97524752475248 34.9426402640264 92.93894389438944 34.87366336633663 92.93894389438944C34.786534653465345 92.93894389438944 34.72118811881188 92.9970297029703 34.72118811881188 93.1059405940594V94.48184818481849C34.72118811881188 94.58349834983498 34.786534653465345 94.65247524752475 34.87366336633663 94.65247524752475C34.96079207920792 94.65247524752475 35.026138613861384 94.58712871287129 35.026138613861384 94.48184818481849V93.43630363036304L35.240330033003296 93.26204620462046C35.254851485148514 93.24752475247524 35.27300330033003 93.24752475247524 35.28389438943894 93.24752475247524C35.32019801980198 93.24752475247524 35.349240924092406 93.27656765676568 35.349240924092406 93.3092409240924V94.48184818481849C35.349240924092406 94.58349834983498 35.41821782178218 94.65247524752475 35.50534653465346 94.65247524752475C35.59247524752475 94.65247524752475 35.65782178217822 94.58712871287129 35.65782178217822 94.48184818481849V93.42178217821782L35.846600660066 93.25841584158415C35.85749174917492 93.24752475247524 35.87564356435644 93.24752475247524 35.88653465346535 93.24752475247524C35.919207920792076 93.24752475247524 35.9446204620462 93.26930693069306 35.9446204620462 93.3019801980198L35.98455445544554 94.48910891089109C35.98818481848185 94.59075907590758 36.05353135313531 94.65247524752475 36.140660066006596 94.65247524752475C36.22052805280528 94.65247524752475 36.28950495049505 94.58349834983498 36.28950495049505 94.48547854785478V94.47821782178218Z" fill="#f9f9f9"/>
  <path d="M10.243894389438942 111.67293729372938C10.138613861386137 111.67293729372938 10.073267326732672 111.73828382838283 10.073267326732672 111.82541254125412V111.95247524752475C10.073267326732672 112.03960396039604 10.134983498349834 112.10495049504951 10.243894389438942 112.10495049504951H10.36006600660066C10.46171617161716 112.10495049504951 10.53069306930693 112.03960396039604 10.53069306930693 111.95247524752475V111.82541254125412C10.53069306930693 111.73828382838283 10.454455445544554 111.67293729372938 10.392739273927392 111.67293729372938ZM9.946204620462046 112.43894389438944C9.844554455445543 112.43894389438944 9.775577557755774 112.50429042904291 9.775577557755774 112.59141914191419C9.775577557755774 112.67854785478548 9.837293729372936 112.74389438943895 9.946204620462046 112.74389438943895H10.222112211221122V113.84752475247525H9.946204620462046C9.844554455445543 113.84752475247525 9.775577557755774 113.91287128712871 9.775577557755774 114.0C9.775577557755774 114.08712871287129 9.84092409240924 114.15247524752475 9.946204620462046 114.15247524752475H10.81023102310231C10.91188118811881 114.15247524752475 10.98085808580858 114.08712871287129 10.98085808580858 114.0C10.98085808580858 113.91287128712871 10.915511551155115 113.84752475247525 10.81023102310231 113.84752475247525H10.53069306930693V112.59141914191419C10.53069306930693 112.50429042904291 10.465346534653465 112.43894389438944 10.36006600660066 112.43894389438944Z M12.175247524752475 112.60957095709571C12.175247524752475 112.5079207920792 12.10990099009901 112.43894389438944 12.022772277227723 112.43894389438944C11.935643564356436 112.43894389438944 11.87029702970297 112.5006600660066 11.87029702970297 112.60957095709571V113.98184818481849C11.87029702970297 114.08349834983498 11.935643564356436 114.15247524752475 12.022772277227723 114.15247524752475C12.10990099009901 114.15247524752475 12.175247524752475 114.08712871287129 12.175247524752475 113.98184818481849V113.06336633663366L12.527392739273928 112.83102310231023C12.596369636963697 112.78745874587459 12.654455445544555 112.74752475247524 12.741584158415842 112.74752475247524H12.83960396039604C12.966666666666667 112.74752475247524 13.024752475247524 112.83102310231023 13.032013201320133 112.99801980198019L13.068316831683168 113.98184818481849C13.071947194719472 114.09075907590758 13.133663366336634 114.15247524752475 13.220792079207921 114.15247524752475C13.304290429042904 114.15247524752475 13.373267326732673 114.08712871287129 13.373267326732673 113.98910891089109V113.98184818481849L13.340594059405941 113.00891089108912C13.32970297029703 112.63135313531353 13.184488448844885 112.43894389438944 12.868646864686468 112.43894389438944H12.73069306930693C12.552805280528053 112.43894389438944 12.45115511551155 112.51518151815182 12.353135313531354 112.58415841584159L12.175247524752475 112.7039603960396Z" fill="#f9f9f9"/>
  <path d="M26.725808580858086 112.43894389438944C26.624158415841585 112.43894389438944 26.526138613861388 112.47524752475248 26.4390099009901 112.54422442244224L26.308316831683168 112.64950495049504C26.206666666666667 112.73300330033004 26.144950495049507 112.86732673267326 26.144950495049507 112.99801980198019V113.593399339934C26.144950495049507 113.72409240924092 26.206666666666667 113.85478547854785 26.308316831683168 113.93828382838284L26.4390099009901 114.04719471947195C26.526138613861388 114.11617161716171 26.624158415841585 114.15247524752475 26.725808580858086 114.15247524752475H27.063432343234325C27.161452145214522 114.15247524752475 27.266732673267327 114.11617161716171 27.353861386138615 114.04719471947195L27.484554455445547 113.93828382838284C27.58620462046205 113.85478547854785 27.64792079207921 113.72409240924092 27.64792079207921 113.593399339934V112.99801980198019C27.64792079207921 112.86732673267326 27.58620462046205 112.73300330033004 27.484554455445547 112.64950495049504L27.353861386138615 112.54422442244224C27.266732673267327 112.47524752475248 27.161452145214522 112.43894389438944 27.063432343234325 112.43894389438944ZM26.72943894389439 112.74026402640264H27.063432343234325C27.096105610561057 112.74026402640264 27.12877887788779 112.75478547854786 27.157821782178218 112.77656765676568L27.28851485148515 112.88547854785479C27.321188118811882 112.91089108910892 27.342970297029705 112.95808580858086 27.342970297029705 112.99801980198019V113.593399339934C27.342970297029705 113.63333333333334 27.321188118811882 113.68052805280529 27.28851485148515 113.7059405940594L27.157821782178218 113.81485148514851C27.12877887788779 113.83663366336634 27.096105610561057 113.84752475247525 27.063432343234325 113.84752475247525H26.72943894389439C26.696765676567658 113.84752475247525 26.664092409240926 113.83663366336634 26.635049504950494 113.81485148514851L26.504356435643565 113.7059405940594C26.471683168316833 113.68052805280529 26.44990099009901 113.63696369636963 26.44990099009901 113.593399339934V112.99801980198019C26.44990099009901 112.95445544554455 26.471683168316833 112.91089108910892 26.504356435643565 112.88547854785479L26.635049504950494 112.77656765676568C26.664092409240926 112.75478547854786 26.696765676567658 112.74026402640264 26.72943894389439 112.74026402640264Z M28.693465346534655 112.60957095709571C28.68983498349835 112.5006600660066 28.62811881188119 112.43894389438944 28.540990099009903 112.43894389438944C28.45749174917492 112.43894389438944 28.38851485148515 112.50429042904291 28.38851485148515 112.6023102310231V112.60957095709571L28.421188118811884 113.58250825082509C28.432079207920793 113.96006600660066 28.57729372937294 114.15247524752475 28.893135313531356 114.15247524752475H29.031089108910894C29.20897689768977 114.15247524752475 29.310627062706274 114.07986798679867 29.40864686468647 114.01089108910891L29.58653465346535 113.88745874587458V113.98184818481849C29.58653465346535 114.08349834983498 29.651881188118814 114.15247524752475 29.7390099009901 114.15247524752475C29.82613861386139 114.15247524752475 29.891485148514853 114.08712871287129 29.891485148514853 113.98184818481849V112.60957095709571C29.891485148514853 112.5079207920792 29.82613861386139 112.43894389438944 29.7390099009901 112.43894389438944C29.651881188118814 112.43894389438944 29.58653465346535 112.5006600660066 29.58653465346535 112.60957095709571V113.53168316831683L29.234389438943897 113.76039603960396C29.165412541254128 113.8039603960396 29.10732673267327 113.84752475247525 29.02019801980198 113.84752475247525H28.922178217821784C28.795115511551156 113.84752475247525 28.7370297029703 113.76402640264027 28.72976897689769 113.5970297029703Z M31.238349834983502 112.0940594059406C31.238349834983502 111.99240924092409 31.169372937293733 111.92706270627063 31.082244224422446 111.92706270627063C30.99511551155116 111.92706270627063 30.929768976897694 111.98514851485149 30.929768976897694 112.0940594059406V112.43894389438944H30.802706270627066C30.701056105610565 112.43894389438944 30.632079207920796 112.50429042904291 30.632079207920796 112.59141914191419C30.632079207920796 112.67854785478548 30.693795379537956 112.74389438943895 30.802706270627066 112.74389438943895H30.929768976897694V113.6986798679868C30.929768976897694 113.94554455445545 31.133069306930697 114.15247524752475 31.383564356435645 114.15247524752475H31.681254125412543C31.94627062706271 114.15247524752475 32.13141914191419 113.92013201320133 32.13141914191419 113.73498349834983C32.13141914191419 113.66237623762376 32.06970297029703 113.58976897689769 31.982574257425746 113.58976897689769C31.859141914191422 113.58976897689769 31.848250825082513 113.68778877887789 31.82646864686469 113.74224422442244C31.801056105610563 113.81122112211222 31.746600660066008 113.84752475247525 31.684884488448848 113.84752475247525H31.383564356435645C31.300066006600662 113.84752475247525 31.238349834983502 113.78217821782178 31.238349834983502 113.7023102310231V112.74389438943895H31.81557755775578C31.91722772277228 112.74389438943895 31.98620462046205 112.67854785478548 31.98620462046205 112.59141914191419C31.98620462046205 112.50429042904291 31.920858085808582 112.43894389438944 31.81557755775578 112.43894389438944H31.238349834983502Z" fill="#1a1a1a"/>
  <rect x="14.07" y="119.75" width="12.5" height="5.5" rx="1.2" fill="none" stroke="#ffd500" stroke-width="0.5"/>
  <rect x="20.20" y="120.25" width="0.25" height="4.5" fill="#ffd500"/>
  <circle cx="18.26" cy="123.86" r="0.625" fill="#ffd500"/>
  <circle cx="16.14" cy="121.22" r="0.625" fill="#ffd500"/>
  <circle cx="24.39" cy="123.86" r="0.625" fill="#ffd500"/>
  <circle cx="22.27" cy="121.22" r="0.625" fill="#ffd500"/>
</svg>